<?xml version="1.0" encoding="UTF-8" standalone="no"?>
<svg
   xmlns:dc="http://purl.org/dc/elements/1.1/"
   xmlns:cc="http://creativecommons.org/ns#"
   xmlns:rdf="http://www.w3.org/1999/02/22-rdf-syntax-ns#"
   xmlns:svg="http://www.w3.org/2000/svg"
   xmlns="http://www.w3.org/2000/svg"
   xmlns:sodipodi="http://sodipodi.sourceforge.net/DTD/sodipodi-0.dtd"
   xmlns:inkscape="http://www.inkscape.org/namespaces/inkscape"
   sodipodi:docname="carla.svg"
   inkscape:version="1.0 (4035a4fb49, 2020-05-01)"
   id="svg5712"
   version="1.1"
   viewBox="0 0 123 53"
   height="53mm"
   width="123mm">
  <defs
     id="defs5706" />
  <sodipodi:namedview
     inkscape:window-maximized="0"
     inkscape:window-y="0"
     inkscape:window-x="130"
     inkscape:window-height="1040"
     inkscape:window-width="1283"
     showgrid="false"
     inkscape:document-rotation="0"
     inkscape:current-layer="layer1"
     inkscape:document-units="mm"
     inkscape:cy="560"
     inkscape:cx="400"
     inkscape:zoom="0.35"
     inkscape:pageshadow="2"
     inkscape:pageopacity="0.0"
     borderopacity="1.0"
     bordercolor="#666666"
     pagecolor="#ffffff"
     id="base" />
  <metadata
     id="metadata5709">
    <rdf:RDF>
      <cc:Work
         rdf:about="">
        <dc:format>image/svg+xml</dc:format>
        <dc:type
           rdf:resource="http://purl.org/dc/dcmitype/StillImage" />
        <dc:title></dc:title>
      </cc:Work>
    </rdf:RDF>
  </metadata>
  <g
     id="layer1"
     inkscape:groupmode="layer"
     inkscape:label="Katman 1">
    <path
       style="fill:#ffffff;fill-rule:nonzero;stroke:#f1f2f8;stroke-width:0.697669;stroke-linecap:butt;stroke-linejoin:miter;stroke-miterlimit:4;stroke-dasharray:none;stroke-opacity:1"
       d="m 86.947394,21.160726 0.12675,0.12675 c 0.11092,0.10775 0.14261,0.27412 0.0887,0.4183 l -0.0269,0.0681 0.29788,0.0444 0.30739,-0.34224 -0.01,-0.0159 -0.22658,-0.29788 h -0.55773 m -0.11409,0.28045 -0.10774,-0.002 0.12676,0.0158 -0.0159,-0.0158 m -2.8885,0.14577 c 0.0412,0.0523 0.0998,0.0792 0.16479,0.0824 l 0.45474,0.01 -0.61794,-0.0919 m -73.81755,-2.58111 c -0.5941802,0.29154 -1.5876502,0.39612 -1.5876502,0.39612 l -0.57991,0.71301 c 0,0 1.8063,0.0159 2.6872702,-0.12676 0.88096,-0.1426 2.43059,-2.18657 2.43059,-2.18657 l -1.83325,-0.40563 c 0,0 -0.52604,1.31512 -1.11705,1.60983"
       id="path956" />
    <path
       style="fill:#ffffff;fill-rule:nonzero;stroke:#f1f2f8;stroke-width:0.697669;stroke-linecap:butt;stroke-linejoin:miter;stroke-miterlimit:4;stroke-dasharray:none;stroke-opacity:1"
       d="m 8.5475338,19.834516 c 0.58626,-0.008 1.5179302,-0.0317 2.0598202,-0.12201 0.48168,-0.0792 1.3785,-0.99822 1.98377,-1.73658 l -1.17886,-0.26144 c -0.19013,0.41513 -0.62903,1.27233 -1.15666,1.53694 -0.5149602,0.25352 -1.2770902,0.37235 -1.5686302,0.4088 l -0.14261,0.17429 m 2.1073602,0.15052 c 0.87938,-0.1426 2.43059,-2.18657 2.43059,-2.18657 l -1.83325,-0.40563 c 0,0 -0.52604,1.31512 -1.11705,1.60825 -0.5941802,0.29312 -1.5876502,0.39611 -1.5876502,0.39611 l -0.57991,0.71302 c 0,0 1.8063,0.0158 2.6872702,-0.12676 z m -3.7932402,-2.59061 c 0.79858,-0.1632 0.78273,-1.1028 1.16618,-1.31829 0.38819,-0.21865 6.5090302,1.29294 6.4995202,1.65736 -0.008,0.36443 -0.9697,1.74293 -1.5211,2.42425 -0.17746,0.22183 -0.32165,0.3676 -0.46742,0.47218 -0.31055,0.22182 -0.64171,0.26936 -1.36899,0.43731 -1.07744,0.25352 -3.9897102,0.77956 -3.9897102,0.77956 -0.29471,-0.79857 -0.019,-2.45277 -0.005,-3.07388 0.0111,-0.54823 -0.22658,-0.67182 -0.31689,-1.37849 m 14.0226102,7.47872 c 1.4894,-1.15667 3.56822,-1.90137 6.45832,-1.84116 7.21252,0.15211 9.18995,4.80571 9.65261,8.63539 0.28522,2.33393 0.01,4.365231 0.0159,4.888111 l -19.78217,-0.982382 c 0,0 -0.84452,-7.214109 3.65697,-10.699959"
       id="path958" />
    <path
       style="fill:#ffffff;fill-rule:nonzero;stroke:#f1f2f8;stroke-width:0.697669;stroke-linecap:butt;stroke-linejoin:miter;stroke-miterlimit:4;stroke-dasharray:none;stroke-opacity:1"
       d="m 36.759124,35.943877 c 0.0602,-0.865122 0.17113,-2.47653 -0.0428,-4.23689 -0.66072,-5.453761 -3.81859,-8.277301 -9.38644,-8.394551 l -0.32006,-0.003 c -2.42742,0 -4.43337,0.6021 -5.96239,1.78729 -3.88196,3.00575 -3.66489,8.96813 -3.57299,10.215119 l 19.26407,0.958602 0.0206,-0.326401 M 105.9056,25.058696 a 8.1917384,8.1917384 0 0 0 -1.62725,-0.98712 c -1.25174,-0.58151 -2.79343,-0.9396 -4.680536,-0.97921 -8.77166,-0.18538 -10.37038,6.89722 -10.55895,11.012111 -0.0792,1.679538 0.0792,2.867899 0.0792,2.867899 l 19.187996,-0.107749 c 0.58625,0.152109 1.08695,0.396121 1.08695,0.396121 0,0 0.82868,-4.523682 -0.74471,-8.461102 -0.55932,-1.39909 -1.42127,-2.7253 -2.73797,-3.7457"
       id="path960" />
    <path
       style="fill:#ffffff;fill-rule:nonzero;stroke:#f1f2f8;stroke-width:0.697669;stroke-linecap:butt;stroke-linejoin:miter;stroke-miterlimit:4;stroke-dasharray:none;stroke-opacity:1"
       d="m 109.17123,36.862875 c 0.15052,-1.124979 0.49594,-4.764519 -0.78273,-7.958819 -0.60527,-1.51476 -1.49575,-2.73639 -2.64925,-3.62845 -0.47851,-0.37235 -1.00772,-0.694 -1.57496,-0.95386 -1.28817,-0.59734 -2.82511,-0.91899 -4.571206,-0.95385 l -0.32798,-0.003 c -8.22818,0 -9.76354,6.73719 -9.94734,10.75384 -0.057,1.197861 0.01,2.148541 0.0475,2.574771 l 16.225016,-0.152111 c 2.56685,0 2.70629,0.0364 2.78234,0.0555 0.30739,0.0792 0.59101,0.183791 0.79699,0.269359 m -2.97089,-12.18145 -0.29313,0.37393 c 1.31512,1.01882 2.17866,2.34503 2.73639,3.7457 l 0.64489,0.0111 c -1.10122,-2.804529 -3.08973,-4.130729 -3.08973,-4.130729"
       id="path962" />
    <path
       style="fill:#ffffff;fill-rule:nonzero;stroke:#f1f2f8;stroke-width:0.697669;stroke-linecap:butt;stroke-linejoin:miter;stroke-miterlimit:4;stroke-dasharray:none;stroke-opacity:1"
       d="m 108.87018,28.531706 a 9.4910082,9.4910082 0 0 0 -0.60052,-1.14241 9.9029721,9.9029721 0 0 1 0.56091,1.14082 l 0.0396,0.002 m -78.637506,-13.8931 c 1.4292,0.11092 6.99705,0.18697 15.2078,0.43573 l 4.59498,0.14736 c 10.70789,0.36443 29.69307,1.59557 29.69307,1.59557 -3.1737,-2.52724 -6.87029,-5.21293 -10.14857,-7.0952804 -1.4989,-0.86196 -2.91067,-1.55596 -4.14181,-1.98694 -5.04339,-1.86017 -10.70313,-2.16122 -17.69067,-1.857 l -1.41652,0.0792 c -0.67658,0.0475 -1.33413,0.10775 -1.96792,0.17746 -11.6142,1.27709 -16.19651,6.0812204 -16.20918,6.5232904 -0.008,0.48485 0.40245,1.85384 2.08041,1.98059 z m 53.11163,6.57558 c 0.0666,0.12359 0.24876,0.3676 0.38027,0.53555 0.0919,0.11884 0.22974,0.19014 0.38028,0.19014 l 2.91068,0.0634 c 0.0317,-0.0254 0.0745,-0.12201 0.11883,-0.22658 l 0.30105,0.0444 0.30581,-0.34383 -0.008,-0.0127 -0.22658,-0.30105 -0.55774,-0.003 -0.42147,-0.42464 a 0.68132447,0.68132447 0 0 0 -0.43098,-0.19965 l -1.9489,-0.15211 c 0,0 -0.79224,0.62745 -0.8271,0.75263 l -0.51337,-0.003 z m 31.743366,4.43019 c 0.30105,-0.0856 0.28521,-0.43256 0.5308,-0.55457 0.24559,-0.122 0.64647,-0.10299 0.64647,-0.10299 0,0 -0.87147,-2.16122 -1.3072,-2.35453 a 11.709274,11.709274 0 0 0 -0.79699,-0.31055 c -0.80808,-0.28996 -2.01545,-0.66865 -2.9598,-0.78274 -1.37849,-0.16795 -4.14657,-0.0871 -4.14657,-0.0871 a 5.8308698,5.8308698 0 0 0 -1.22005,0.81442 c 2.97248,1.95207 8.96813,3.45416 9.25334,3.37493 z m -111.0083462,3.63796 0.0792,-3.7663 0.21549,-0.41197 c 0.4595,-2.05981 2.79977,-3.25926 2.79977,-3.25926 l 3.9881202,-0.77956 c 0.72887,-0.16796 1.05844,-0.21549 1.369,-0.43573 0.14577,-0.10616 0.28996,-0.25352 0.46583,-0.47535 0.5514,-0.68132 1.51318,-2.05981 1.5211,-2.42108 0.008,-0.36442 -6.1129102,-1.8776 -6.4995202,-1.65894 -0.38345,0.21549 -0.3676,1.15667 -1.16618,1.31828 -0.0111,-0.0951 -0.0222,-0.20598 -0.0285,-0.3264 -0.0475,-1.00297 0.31056,-3.16895 0.31056,-3.16895 2.74114,0.95702 8.0808302,0.10299 10.5209202,-0.67657 2.43693,-0.77639 12.90871,-5.6724204 15.1365,-6.4535704 0.37552,-0.13151 0.93483,-0.29471 1.64784,-0.47534 0.38345,-0.89206 0.44999,-1.67004 0.44999,-1.67004 2.42743,-0.36918 4.0531,0.17746 4.88812,0.6021 3.6126,-0.57516 8.1442,-1.03942 12.70116,-0.94276 7.91128,0.16954 13.70888,1.97742 14.77364,2.32918 -0.19964,0.14894 -0.35492,0.31689 -0.34066,0.46425 0.0269,0.28203 1.34364,0.96177 3.06913,1.95683 a 56.280571,56.280571 0 0 1 2.16123,1.3103604 c 2.66192,1.71757 7.95406,5.36028 7.95406,5.36028 a 88.857386,88.857386 0 0 1 2.71263,-0.11567 l 0.33274,-0.0111 c 17.508446,0.82076 26.403676,3.56032 30.474196,5.37137 0.19806,0.0856 0.38661,0.17429 0.56249,0.25827 1.75402,0.82868 2.41157,1.40701 2.41157,1.40701 0.0317,1.71599 1.02991,4.64252 1.02991,4.64252 0,0 1.03942,0.91899 0.89206,1.24223 -0.0222,0.0475 -0.0554,0.16795 -0.0951,0.33591 a 46.995543,46.995543 0 0 0 -0.39295,1.964748 l -0.39136,2.356112 c -0.1632,1.21529 0.19647,1.70806 0.21549,1.822149 0.019,0.11408 -0.39295,0.522869 -0.39295,0.522869 0,0 0.11566,1.061601 -0.0254,1.229561 -0.12675,0.155282 -1.12814,0.26302 -2.21192,0.26302 a 12.675804,12.675804 0 0 1 -0.34859,-0.006 c -1.21054,-0.02381 -5.47911,0.277291 -5.47911,0.277291 0,0 0.82868,-4.522099 -0.74471,-8.461099 l 0.6433,0.0111 c -1.09963,-2.804515 -3.08973,-4.130725 -3.08973,-4.130725 l -0.29313,0.37394 a 8.0966699,8.0966699 0 0 0 -1.62725,-0.98713 c -1.25173,-0.5815 -2.79342,-0.9396 -4.680526,-0.97921 -8.77166,-0.18538 -10.37039,6.89881 -10.55895,11.012111 -0.0792,1.679541 0.0792,2.867898 0.0792,2.867898 -1.01407,0.0222 -15.29336,-0.278868 -22.38864,-0.42781 -7.0937,-0.152109 -19.95964,0.221832 -23.50729,0.147362 l -6.21906,-0.133101 c -0.006,-0.52288 0.26936,-2.554179 -0.0158,-4.888111 -0.46426,-3.831259 -2.4401,-8.483279 -9.65422,-8.635389 -2.8885,-0.0634 -4.96733,0.68449 -6.45832,1.84116 -4.49991,3.48585 -3.65697,10.698381 -3.65697,10.698381 l -8.5751902,-1.49733 c -1.37849,-0.201231 -3.37493,-0.51971 -4.22262,-1.437121 -0.84294,-0.915829 -0.34225,-3.35909 -0.34225,-3.35909"
       id="path964" />
    <path
       style="fill:#ffffff;fill-rule:nonzero;stroke:#f1f2f8;stroke-width:0.697669;stroke-linecap:butt;stroke-linejoin:miter;stroke-miterlimit:4;stroke-dasharray:none;stroke-opacity:1"
       d="m 4.0793138,29.282746 0.0792,-3.7663 0.21549,-0.41197 c 0.4595,-2.05981 2.79977,-3.25926 2.79977,-3.25926 l 3.9881202,-0.77956 c 0.72887,-0.16796 1.05844,-0.21549 1.369,-0.43732 0.14577,-0.10457 0.28996,-0.25035 0.46583,-0.47217 0.5514,-0.68133 1.51318,-2.05982 1.5211,-2.42108 v -0.002 l 0.13785,0.003 25.94579,1.85384 c -2.99466,0.18221 -14.6057,0.42781 -19.05015,2.22302 -3.67915,1.48465 -5.92594,5.45059 -5.92594,9.93466 -0.002,1.46564 0.18538,2.718961 0.81759,3.685489 L 8.6394138,34.076786 c -1.37849,-0.202811 -3.37493,-0.51971 -4.22263,-1.438701 -0.84294,-0.914249 -0.34224,-3.359089 -0.34224,-3.359089 m 34.6619802,2.959801 -0.002,-0.25986 v -0.174289 c -0.0444,-2.836212 -1.11705,-5.431582 -2.86472,-7.424852 3.73937,1.63835 5.17648,2.57319 10.56211,5.41415 6.26819,3.305221 34.38629,2.97565 39.11754,3.031099 0.2852,0.003 0.44364,-0.337489 0.25035,-0.548219 a 4.3573076,4.3573076 0 0 0 -2.87424,-1.40385 c -2.32601,-0.205979 -37.33025,-1.07744 -38.17478,-7.18718 -0.53871,-3.9089 2.66192,-4.01665 4.80889,-4.08003 0,0 1.25649,-0.0364 0,0 l 34.32449,0.99189 c -0.2345,0.19489 -0.54347,0.46266 -0.56407,0.53872 l -0.51495,-0.002 0.53872,0.0792 c 0.0666,0.12676 0.24875,0.3676 0.38027,0.53872 a 0.49118742,0.49118742 0 0 0 0.38028,0.19014 l 2.91068,0.0602 c 0.0317,-0.0238 0.0761,-0.12042 0.11882,-0.22658 l 0.30106,0.0444 0.30739,-0.34225 -0.01,-0.0158 -0.22658,-0.29788 -0.55774,-0.003 -0.41989,-0.42781 c -0.0475,-0.0444 -0.0951,-0.0792 -0.15052,-0.11091 5.64865,-0.30739 9.17411,-0.34859 14.117676,0.14894 2.00594,0.20281 4.13231,0.97445 5.49813,1.36265 -0.0539,0.0428 -0.11092,0.0856 -0.16163,0.12992 2.97248,1.95208 8.96814,3.45416 9.25335,3.37494 0.30104,-0.0856 0.28837,-0.43098 0.53078,-0.55457 0.2456,-0.12042 0.64647,-0.10141 0.64647,-0.10141 l -0.0539,-0.13309 c 0.22974,-0.0159 0.22815,0.20598 0.47534,0.17746 0.30104,1.29452 0.94117,2.21827 0.94117,2.21827 0,0 1.03943,0.91899 0.89207,1.24064 -0.0222,0.0507 -0.0555,0.16954 -0.0951,0.33749 -0.10142,0.42781 -0.24876,1.18044 -0.39136,1.964749 l -0.39296,2.354529 c -0.1632,1.21688 0.19648,1.708071 0.21549,1.825321 0.019,0.115671 -0.39295,0.52288 -0.39295,0.52288 0,0 0.11567,1.061591 -0.0254,1.23113 -0.12676,0.155279 -1.12497,0.26303 -2.21034,0.26303 -0.11725,0 -0.23767,-0.003 -0.35175,-0.006 -0.72886,-0.0159 -2.56052,0.0887 -3.90574,0.174292 v -3.99288 c 0.003,-0.0887 0,-0.174292 0,-0.263022 v -0.17112 h -0.002 c -0.0982,-6.220648 -5.12736,-11.297308 -11.430406,-11.431988 -6.44881,-0.13627 -11.78849,4.9594 -11.92634,11.376529 v 0.0555 h -0.003 v 4.23055 l -20.87876,-0.411988 c -7.09369,-0.152109 -19.95963,0.221829 -23.50728,0.145769 l -2.21034,-0.0475 -3.20539,-0.0317 c 0,0 0.93167,-2.028129 0.9285,-4.35097 0,-0.006 0.002,-0.0158 0.002,-0.0222"
       id="path966" />
    <path
       style="fill:#ffffff;fill-rule:nonzero;stroke:#f1f2f8;stroke-width:0.697669;stroke-linecap:butt;stroke-linejoin:miter;stroke-miterlimit:4;stroke-dasharray:none;stroke-opacity:1"
       d="m 84.301314,26.112206 c 0.76055,-0.86512 3.67598,-4.00555 3.68866,-4.46505 0.002,-0.11091 -0.0396,-0.23292 -0.12676,-0.37077 -0.30422,-0.49752 -1.1329,-1.10279 -1.47039,-1.2755 -0.0523,-0.0238 -0.17112,-0.0856 -4.08319,-0.41672 0.006,0.0111 0.0158,0.0222 0.019,0.0317 l 0.0222,0.0475 -0.003,0.0412 c 0.003,0.0317 0.006,0.0824 0.0111,0.15845 3.3274,0.28521 3.6031,0.5609 3.67282,0.58309 0.24084,0.122 1.05209,0.71301 1.02991,1.04258 -0.0206,0.28521 -2.75699,4.62033 -2.75699,4.62033"
       id="path968" />
    <path
       id="use970"
       d="m 3.4724238,6.3265106 c -0.0277,1.310919 1.01243,2.395875 2.32335,2.423963 1.31092,0.02767 2.39588,-1.01243 2.42397,-2.323349 0.0277,-1.310919 -1.01243,-2.395876 -2.32335,-2.423964 -1.31092,-0.02767 -2.39588,1.012431 -2.42397,2.32335"
       style="fill:#ffffff;fill-rule:nonzero;stroke:#f1f2f8;stroke-width:0.0419224;stroke-linecap:butt;stroke-linejoin:miter;stroke-miterlimit:4;stroke-dasharray:none;stroke-opacity:1" />
    <path
       style="fill:#ffffff;fill-rule:nonzero;stroke:#f1f2f8;stroke-width:0.697669;stroke-linecap:butt;stroke-linejoin:miter;stroke-miterlimit:4;stroke-dasharray:none;stroke-opacity:1"
       d="m 20.079354,32.516657 a 7.114295,7.114295 0 0 0 6.95426,7.256899 7.114295,7.114295 0 0 0 7.2569,-6.955851 c 0.0824,-3.923159 -3.0311,-7.171329 -6.95585,-7.256899 -3.92316,-0.084 -7.17292,3.03111 -7.25689,6.955851"
       id="path972" />
    <path
       style="fill:#ffffff;fill-rule:nonzero;stroke:#f1f2f8;stroke-width:0.697669;stroke-linecap:butt;stroke-linejoin:miter;stroke-miterlimit:4;stroke-dasharray:none;stroke-opacity:1"
       d="m 24.740884,32.616477 -3.96753,-1.795212 c -0.15845,0.543481 -0.24718,1.113891 -0.25985,1.704901 -0.0127,0.591011 0.0539,1.16617 0.18696,1.715979 z m -2.83938,4.119639 4.10696,-2.622309 a 1.1725119,1.1725119 0 0 0 -0.67657,-1.231141 l -0.008,-0.003 -4.40801,2.06615 a 6.6706419,6.6706419 0 0 0 0.98713,1.792041 z m 3.40345,2.32918 0.61161,-4.30978 -3.53338,2.535169 a 6.6547971,6.6547971 0 0 0 2.92335,1.774611 z m 1.73659,0.269362 a 6.4488153,6.4488153 0 0 0 1.02515,-0.057 l -0.21073,-4.864338 -0.008,-0.006 c -0.40879,-0.320062 -0.98237,-0.33274 -1.40226,-0.0285 l -0.008,0.005 -0.41672,4.85325 c 0.33274,0.0586 0.67341,0.0951 1.02041,0.0998 z m 4.74392,-1.844332 -3.42564,-2.6841 0.42781,4.333539 c 1.14082,-0.28521 2.17073,-0.860369 2.99466,-1.647859 z m 1.56546,-2.284809 -4.32562,-2.246791 a 1.1725119,1.1725119 0 0 0 -0.72728,1.201031 v 0.01 l 3.99288,2.785512 c 0.4389,-0.52288 0.79858,-1.109141 1.0616,-1.749261 z m 0.50228,-2.3989 a 6.6072628,6.6072628 0 0 0 -0.18697,-1.71599 l -4.04041,1.625669 3.96911,1.795219 c 0.15527,-0.541888 0.24559,-1.113888 0.25827,-1.704898 z m -1.38801,-4.209951 -4.10696,2.622311 a 1.1725119,1.1725119 0 0 0 0.67658,1.22955 l 0.008,0.005 4.40958,-2.06615 c -0.23767,-0.649639 -0.57041,-1.251739 -0.98712,-1.790459 z m -3.40345,-2.33235 -0.61161,4.30977 3.53338,-2.53516 a 6.6547971,6.6547971 0 0 0 -2.92335,-1.77461 z m -1.73658,-0.26936 a 6.6389523,6.6389523 0 0 0 -1.02516,0.057 l 0.21866,4.872261 a 1.1725119,1.1725119 0 0 0 1.40384,0.0301 l 0.006,-0.006 0.41672,-4.853249 c -0.33274,-0.0586 -0.6734,-0.0951 -1.0204,-0.0998 z m -4.74392,1.84433 3.42563,2.684101 -0.42781,-4.333541 c -1.14082,0.28521 -2.17073,0.86037 -2.99465,1.64785 z m -1.56546,2.28481 4.32561,2.246789 c 0.48327,-0.194889 0.77957,-0.681328 0.72886,-1.201028 v -0.008 l -3.99288,-2.788669 c -0.4389,0.52287 -0.79857,1.10913 -1.06159,1.74926 z m -0.73837,0.469011 c 0.0729,-0.245602 0.15845,-0.484851 0.25827,-0.719351 0.27728,-0.65915 0.64963,-1.26758 1.09963,-1.80631 0.1632,-0.19647 0.3359,-0.38502 0.51812,-0.56248 0.92216,-0.8984 2.08041,-1.55279 3.37018,-1.85701 0.24718,-0.0586 0.49752,-0.10299 0.75262,-0.13627 0.34859,-0.0428 0.70034,-0.0634 1.0616,-0.0555 a 7.256898,7.256898 0 0 1 1.05685,0.1014 7.2727426,7.2727426 0 0 1 0.74629,0.16637 7.2093635,7.2093635 0 0 1 3.28937,1.99961 c 0.17429,0.18539 0.33906,0.38028 0.49118,0.58309 0.42781,0.55932 0.77323,1.1836 1.02199,1.85384 a 7.0984502,7.0984502 0 0 1 0.22817,0.73044 c 0.15844,0.617939 0.23767,1.262829 0.22182,1.929892 a 7.2252083,7.2252083 0 0 1 -0.30263,1.918798 7.3202768,7.3202768 0 0 1 -0.25986,0.719351 7.2093635,7.2093635 0 0 1 -1.09804,1.80789 c -0.1632,0.196469 -0.33591,0.38503 -0.51971,0.562489 a 7.2093635,7.2093635 0 0 1 -3.37018,1.858589 7.3202768,7.3202768 0 0 1 -0.75262,0.134681 7.114295,7.114295 0 0 1 -1.06002,0.0555 c -0.35967,-0.008 -0.71301,-0.0428 -1.05526,-0.0998 -0.25351,-0.0428 -0.50386,-0.0998 -0.74787,-0.16795 a 7.2093635,7.2093635 0 0 1 -3.28779,-1.99803 6.9400028,6.9400028 0 0 1 -0.49435,-0.584671 7.1776741,7.1776741 0 0 1 -1.02199,-1.85225 7.0984502,7.0984502 0 0 1 -0.22816,-0.73044 c -0.15845,-0.617951 -0.23767,-1.26283 -0.22183,-1.92989 a 7.1776741,7.1776741 0 0 1 0.30422,-1.9188"
       id="path974" />
    <path
       style="fill:#ffffff;fill-rule:nonzero;stroke:#f1f2f8;stroke-width:0.697669;stroke-linecap:butt;stroke-linejoin:miter;stroke-miterlimit:4;stroke-dasharray:none;stroke-opacity:1"
       d="m 26.230284,32.648166 a 0.9540775,0.9540775 0 1 0 1.90771,0.0412 0.9540775,0.9540775 0 1 0 -1.90771,-0.0412"
       id="path976" />
    <path
       id="use978"
       d="m 75.829084,6.4928806 c -0.0277,1.310918 1.01243,2.395875 2.32335,2.423963 1.31092,0.02767 2.39588,-1.01243 2.42396,-2.323349 0.0277,-1.310919 -1.01242,-2.395876 -2.32335,-2.423964 -1.31091,-0.02767 -2.39587,1.01243 -2.42396,2.32335"
       style="fill:#ffffff;fill-rule:nonzero;stroke:#f1f2f8;stroke-width:0.0419224;stroke-linecap:butt;stroke-linejoin:miter;stroke-miterlimit:4;stroke-dasharray:none;stroke-opacity:1" />
    <path
       style="fill:#ffffff;fill-rule:nonzero;stroke:#f1f2f8;stroke-width:0.697669;stroke-linecap:butt;stroke-linejoin:miter;stroke-miterlimit:4;stroke-dasharray:none;stroke-opacity:1"
       d="m 92.436014,32.683027 a 7.114295,7.114295 0 0 0 6.95426,7.256899 7.114295,7.114295 0 0 0 7.256886,-6.955851 c 0.0824,-3.923159 -3.0311,-7.172919 -6.955836,-7.256899 -3.92316,-0.084 -7.17133,3.03111 -7.2569,6.955851"
       id="path980" />
    <path
       style="fill:#ffffff;fill-rule:nonzero;stroke:#f1f2f8;stroke-width:0.697669;stroke-linecap:butt;stroke-linejoin:miter;stroke-miterlimit:4;stroke-dasharray:none;stroke-opacity:1"
       d="m 97.097544,32.781267 -3.96753,-1.796801 c -0.15845,0.54348 -0.24718,1.11389 -0.25986,1.704901 -0.0127,0.59101 0.0539,1.166169 0.18697,1.715989 z m -2.83938,4.119629 4.10696,-2.623889 a 1.1725119,1.1725119 0 0 0 -0.67658,-1.229551 l -0.008,-0.003 -4.40959,2.06457 a 6.6706419,6.6706419 0 0 0 0.98713,1.792041 z m 3.40345,2.32918 0.61161,-4.309769 -3.53338,2.535161 a 6.6547971,6.6547971 0 0 0 2.92335,1.774608 z m 1.73658,0.269361 a 6.6389523,6.6389523 0 0 0 1.025156,-0.0555 l -0.21074,-4.867511 -0.008,-0.006 a 1.1725119,1.1725119 0 0 0 -1.402256,-0.0301 l -0.008,0.006 -0.41673,4.853249 c 0.33274,0.0586 0.6734,0.0951 1.0204,0.0998 z m 4.743906,-1.84432 -3.42562,-2.684111 0.42781,4.333539 c 1.14082,-0.285199 2.17073,-0.860369 2.99464,-1.647849 z m 1.56547,-2.28482 -4.32561,-2.246781 a 1.1725119,1.1725119 0 0 0 -0.72728,1.201031 v 0.01 l 3.99287,2.78551 a 6.6706419,6.6706419 0 0 0 1.06318,-1.749258 z m 0.50227,-2.39889 a 6.6072628,6.6072628 0 0 0 -0.18696,-1.715989 l -4.03882,1.630418 3.9691,1.795211 a 6.6389523,6.6389523 0 0 0 0.25827,-1.704891 z m -1.388,-4.211541 -4.10695,2.62389 a 1.1725119,1.1725119 0 0 0 0.67657,1.229551 l 0.008,0.005 4.40958,-2.066161 a 6.6547971,6.6547971 0 0 0 -0.98713,-1.792041 z m -3.40344,-2.32918 -0.61161,4.30977 3.53337,-2.53516 a 6.6547971,6.6547971 0 0 0 -2.92334,-1.77461 z m -1.736586,-0.26936 a 6.6389523,6.6389523 0 0 0 -1.02515,0.057 l 0.21866,4.872261 a 1.1725119,1.1725119 0 0 0 1.403836,0.0301 l 0.006,-0.006 0.41672,-4.853249 c -0.33274,-0.0586 -0.67341,-0.0951 -1.020406,-0.0998 z m -4.74391,1.84433 3.42563,2.684101 -0.42781,-4.333541 c -1.14082,0.28521 -2.17073,0.86037 -2.99466,1.64785 z m -1.56547,2.28481 4.32562,2.246789 c 0.48327,-0.194889 0.77956,-0.681328 0.72886,-1.201028 v -0.008 l -3.99288,-2.785499 c -0.4389,0.5197 -0.79857,1.10913 -1.0616,1.747671 z m -0.73836,0.469011 c 0.0729,-0.245602 0.15845,-0.484851 0.25827,-0.719351 0.27728,-0.65915 0.64963,-1.26758 1.09962,-1.80631 0.1632,-0.19647 0.33591,-0.38502 0.51813,-0.56249 0.92216,-0.89839 2.08041,-1.55278 3.37018,-1.857 0.24717,-0.0586 0.49752,-0.10299 0.75262,-0.13627 0.34859,-0.0428 0.70034,-0.0634 1.0616,-0.0555 a 7.256898,7.256898 0 0 1 1.056846,0.1014 7.2727426,7.2727426 0 0 1 0.74628,0.16637 7.2093635,7.2093635 0 0 1 3.28936,1.99961 c 0.1743,0.18539 0.33908,0.38028 0.49119,0.58309 0.42781,0.55932 0.77323,1.1836 1.02199,1.853839 a 7.2252083,7.2252083 0 0 1 0.22816,0.730441 7.1935189,7.1935189 0 0 1 0.22183,1.929892 7.2252083,7.2252083 0 0 1 -0.30263,1.918798 7.3202768,7.3202768 0 0 1 -0.25986,0.719351 7.2093635,7.2093635 0 0 1 -1.09804,1.80789 c -0.1632,0.196469 -0.33591,0.38503 -0.51971,0.562489 a 7.1935189,7.1935189 0 0 1 -3.37017,1.857002 6.9875371,6.9875371 0 0 1 -0.75262,0.136268 c -0.34859,0.0428 -0.700336,0.0634 -1.061596,0.0555 -0.36126,-0.008 -0.71302,-0.0428 -1.05526,-0.0998 a 7.3044323,7.3044323 0 0 1 -0.74788,-0.16795 7.2093635,7.2093635 0 0 1 -3.28778,-1.99803 6.9400028,6.9400028 0 0 1 -0.49436,-0.584671 c -0.42781,-0.559319 -0.77322,-1.1836 -1.02198,-1.85383 a 7.0984502,7.0984502 0 0 1 -0.22817,-0.730451 c -0.15845,-0.617939 -0.23767,-1.262819 -0.22183,-1.929889 a 7.1776741,7.1776741 0 0 1 0.30422,-1.918801"
       id="path982" />
    <path
       style="fill:#ffffff;fill-rule:nonzero;stroke:#f1f2f8;stroke-width:0.697669;stroke-linecap:butt;stroke-linejoin:miter;stroke-miterlimit:4;stroke-dasharray:none;stroke-opacity:1"
       d="m 98.586944,32.812956 c -0.0111,0.526039 0.40721,0.963361 0.93484,0.97445 a 0.95407742,0.95407742 0 0 0 0.0412,-1.907709 0.9506853,0.9506853 0 0 0 -0.97445,0.933259 m -86.34124,-11.87406 0.12676,0.76847 8.02853,3.4494 0.27887,-0.25351 0.0665,-0.0475 -8.11252,-3.42247 -0.13785,-0.65597 -0.0824,0.0634 a 1.1249776,1.1249776 0 0 1 -0.16637,0.0998 m 31.48353,14.878231 c 0.99505,-0.38028 33.57504,0.0903 40.52771,0.23767 0.25669,0.006 0.32482,-0.348591 0.0856,-0.440481 l -0.49119,-0.19014 c -0.87464,-0.33274 -1.79522,-0.52288 -2.73164,-0.554569 -6.55657,-0.23767 -33.80953,-1.150332 -37.67883,-0.212321 -1.23114,0.301051 -2.16123,1.752431 -2.37989,2.059821 a 0.52287691,0.52287691 0 0 0 0.0713,0.003 l 0.90315,0.005 c 0.33749,-0.186971 0.73202,-0.541891 1.69222,-0.90632 M 24.281344,18.712826 h 0.0951 c 1.38166,0 2.53991,-0.69083 2.73322,-1.60032 a 1.1725119,1.1725119 0 0 0 0.0254,-0.15211 0.77639302,0.77639302 0 0 0 0.006,-0.0887 v -0.0349 c -0.003,-0.48802 -0.28046,-0.94593 -0.78116,-1.30878 -0.52763,-0.38027 -1.23589,-0.59893 -2.00119,-0.61794 h -0.0856 c -1.50842,0 -2.75699,0.8271 -2.776,1.83799 0,0.0127 0,0.0317 0.003,0.0428 -0.003,0.0428 0,0.084 0.006,0.12676 a 0.82392726,0.82392726 0 0 0 0.0269,0.15211 c 0.20598,0.90315 1.37374,1.61616 2.74589,1.64152 z m -0.006,-4.08002 0.0919,0.003 c 0.81759,0.0158 1.58448,0.25351 2.15806,0.66864 0.57833,0.41514 0.89364,0.95861 0.89364,1.53378 l 19.67602,0.25985 c 0.0317,0.003 0.0602,0.003 0.0903,0.003 0.0697,0.003 0.13784,0.003 0.21073,0.006 8.76532,0.19806 26.7713,1.48307 34.80459,2.15488 0.0871,0.008 0.16954,0.0127 0.25352,0.0222 a 1.2358909,1.2358909 0 0 1 0.0887,0.008 c 3.91366,0.33274 4.03091,0.39295 4.0832,0.41672 0.33749,0.17429 1.16617,0.77639 1.47039,1.2755 0.0887,0.13785 0.12993,0.25985 0.12676,0.37077 -0.0111,0.45949 -3.4906,4.27808 -3.4906,4.27808 1.52902,-1.74292 3.18004,-4.00872 3.21331,-4.28918 0,-0.0349 -0.0111,-0.1014 -0.0856,-0.21548 a 2.0915077,2.0915077 0 0 0 -0.26936,-0.3375 5.1337006,5.1337006 0 0 0 -1.08061,-0.83185 c -0.0697,-0.0222 -0.58942,-0.1014 -3.91682,-0.38661 -0.0539,-0.006 -0.10616,-0.008 -0.16162,-0.0158 -0.038,-0.003 -0.0792,-0.005 -0.11884,-0.0111 -7.98575,-0.66548 -26.19138,-1.97108 -34.97889,-2.16756 -0.0539,0 -0.10298,-0.002 -0.1521,-0.002 -0.0428,0 -0.084,-0.003 -0.12676,-0.003 l -19.65541,-0.26302 c -0.18222,1.07744 -1.45138,1.88077 -3.01843,1.88077 h -0.10299 c -1.55279,-0.0317 -2.82512,-0.85245 -3.02635,-1.91722 -0.008,-0.0396 -0.0127,-0.0792 -0.019,-0.11883 a 1.7112335,1.7112335 0 0 1 -0.008,-0.15845 v -0.0475 c 0.0222,-1.18836 1.36264,-2.11528 3.0517,-2.11528"
       id="path984" />
    <path
       style="fill:#ffffff;fill-rule:nonzero;stroke:#f1f2f8;stroke-width:0.697669;stroke-linecap:butt;stroke-linejoin:miter;stroke-miterlimit:4;stroke-dasharray:none;stroke-opacity:1"
       d="m 24.281384,19.116746 h 0.0951 c 1.38166,0 2.53991,-0.69083 2.73322,-1.60032 a 1.1725119,1.1725119 0 0 0 0.0254,-0.15211 0.77639302,0.77639302 0 0 0 0.006,-0.0887 v -0.0349 c -0.003,-0.48802 -0.28045,-0.94593 -0.78115,-1.30877 -0.52764,-0.38028 -1.23589,-0.59894 -2.00119,-0.61795 h -0.0856 c -1.50842,0 -2.757,0.8271 -2.776,1.83799 0,0.0127 0,0.0317 0.003,0.0428 -0.003,0.0428 0,0.084 0.006,0.12676 a 0.82392726,0.82392726 0 0 0 0.0269,0.15211 c 0.20598,0.90315 1.37374,1.61617 2.74589,1.64152 z m -0.006,-4.08002 0.0919,0.003 c 0.81759,0.0158 1.58448,0.25351 2.15806,0.66864 0.57833,0.41514 0.89364,0.95861 0.89364,1.53378 l 19.67602,0.25985 c 0.0317,0.003 0.0602,0.003 0.0903,0.003 0.0697,0.003 0.13785,0.003 0.21074,0.006 8.76532,0.19806 26.7713,1.48307 34.80459,2.15488 0.0871,0.008 0.16954,0.0127 0.25351,0.0222 a 1.2358909,1.2358909 0 0 1 0.0887,0.008 c 3.91366,0.33274 4.03091,0.39295 4.0832,0.41672 0.33749,0.17429 1.16617,0.77639 1.47039,1.2755 0.0887,0.13785 0.12993,0.25985 0.12676,0.37077 -0.0111,0.45949 -3.4906,4.05625 -3.4906,4.05625 1.52902,-1.74292 3.18004,-3.78372 3.21331,-4.06576 0,-0.0349 -0.0111,-0.10141 -0.0856,-0.21549 a 2.0915077,2.0915077 0 0 0 -0.26936,-0.33749 5.1337006,5.1337006 0 0 0 -1.08061,-0.83185 c -0.0697,-0.0222 -0.58942,-0.10141 -3.91682,-0.38661 -0.0539,-0.006 -0.10616,-0.008 -0.16162,-0.0159 -0.038,-0.003 -0.0792,-0.005 -0.11884,-0.0111 -7.98576,-0.665474 -26.19139,-1.971084 -34.97889,-2.167554 -0.0539,0 -0.10298,-0.002 -0.1521,-0.002 -0.0428,0 -0.084,-0.003 -0.12675,-0.003 l -19.66018,-0.263026 c -0.18221,1.07744 -1.45138,1.88077 -3.01842,1.88077 l -0.10299,-0.003 c -1.55279,-0.0317 -2.82512,-0.85244 -3.02635,-1.91721 -0.008,-0.0396 -0.0127,-0.0792 -0.019,-0.11884 a 1.7112335,1.7112335 0 0 1 -0.008,-0.15844 v -0.0475 c 0.0222,-1.18835 1.36265,-2.11527 3.0517,-2.11527 m 26.25476,18.245231 0.23133,0.01109 7.66887,0.28521 c 9.5322,0.269359 19.31475,0.278871 23.18721,0.269359 h 0.28521 l 2.61755,-0.019 c 2.28164,-0.0317 3.90256,0.20915 4.39217,0.294711 -0.002,0.0523 -0.005,0.106159 -0.008,0.158449 -0.003,0.0412 -0.003,0.0792 -0.005,0.118832 -0.43415,-0.0792 -2.05506,-0.33274 -4.37315,-0.296291 l -2.80452,0.019 c -3.72669,0.01 -13.30009,0 -22.74357,-0.253521 l -8.22818,-0.301048 c -0.0348,-0.003 -0.0713,-0.003 -0.10457,-0.006 -7.23472,-0.351751 -11.7679,-0.85561 -13.49024,-1.49891 -0.006,-0.0745 -0.0158,-0.152111 -0.0254,-0.228161 a 1.0615986,1.0615986 0 0 0 -0.0111,-0.0792 c 1.56863,0.652812 6.08123,1.16618 13.41101,1.525852 m 65.731956,-2.65875 -2.27531,-1.489401 c 0,0 3.14835,-0.51021 4.04992,1.52426 l -1.77461,-0.0349 m 1.68905,0.294722 c 0,0 -1.92197,0.209151 -2.28482,0.40721 0,0 -0.92216,2.154881 -0.92216,2.82353 0,0.66548 2.49396,1.201029 2.49396,1.201029 0,0 -0.80808,-0.649629 -0.97286,-0.88097 -0.16162,-0.229738 1.31194,-0.529209 1.31194,-0.529209 l 0.37394,-3.02159 m -3.96436,4.344631 2.14697,0.0871 1.31511,0.535562 c 0,0 0.14577,0.66548 -0.0697,0.880959 -0.2139,0.21549 -2.20559,0.224999 -2.20559,0.224999 0,0 -1.10279,-0.92533 -1.18518,-1.727078 m 3.51119,-7.966741 -2.37196,-1.5211 -3.53655,-1.00772 3.34008,3.01842 c 0,0 2.73322,0.21866 2.98832,0.39137 a 3.9453442,3.9453442 0 0 0 0.6021,0.31531 c 0,0 -0.0634,-0.58309 -1.02199,-1.19787 M 83.144484,15.575066 c 0,0 -10.77918,-6.7942304 -15.71007,-8.9047504 l -0.17746,-0.0602 c -0.19965,0.14894 -0.35334,0.31689 -0.33908,0.46425 0.0269,0.28203 1.34204,0.96177 3.06755,1.95841 a 53.11162,53.11162 0 0 1 2.1628,1.3087804 c 2.66192,1.71757 7.95407,5.36186 7.95407,5.36186 0.694,-0.0507 2.07566,-0.0951 2.71262,-0.11725 l 0.33274,-0.0111 m -54.99397,-2.91544 c -0.008,0.48327 0.40087,1.85384 2.07883,1.9806 1.4292,0.11091 6.99703,0.19014 15.2078,0.43731 l -1.07745,-8.9411904 c -11.61737,1.27709 -16.19809,6.0843804 -16.20918,6.5248704 m 51.57467,4.15766 c -3.1737,-2.52724 -6.87028,-5.21292 -10.14856,-7.0936904 -1.49891,-0.86196 -2.91228,-1.55596 -4.14182,-1.98852 -5.04497,-1.86018 -10.70789,-2.16123 -17.69384,-1.85701 l -1.41494,0.0792 2.87582,9.2374904 0.83185,0.0269 c 10.70631,0.36442 29.69308,1.59556 29.69308,1.59556 m -7.37415,-6.67064 -0.0634,-0.0396 c -0.64489,-0.4151304 -1.35631,-0.8445304 -2.17073,-1.3151204 l -0.97921,-0.55932 c -0.85561,-0.48485 -1.73658,-0.98554 -1.93623,-1.19786 a 0.68132447,0.68132447 0 0 1 0.10458,-0.11408 c 0.008,0.003 0.0159,0.005 0.0159,0.005 1.57972,0.67499 3.77897,1.84592 6.03051,3.1182504 l -0.99822,0.10457 m -27.77586,0.142611 c -4.53793,-0.3010504 -8.11726,-0.7098504 -10.92179,-1.1408204 2.48288,-1.11389 5.91644,-2.18658 10.45754,-2.71263 l 0.46425,3.8502804 m 2.11528,-4.0784404 1.0616,-0.0555 a 97.746296,97.746296 0 0 1 4.31294,-0.10299 c 5.53457,0 9.62727,0.59893 13.2779,1.94574 1.15192,0.40245 2.52883,1.06476 4.09429,1.96475 l 0.66073,0.3866104 c -4.68688,0.3676 -11.0026,0.57041 -19.20068,0.26461 l -2.8679,-0.12359 -1.33413,-4.2812604"
       id="path986" />
    <path
       style="fill:#ffffff;fill-rule:nonzero;stroke:#f1f2f8;stroke-width:0.697669;stroke-linecap:butt;stroke-linejoin:miter;stroke-miterlimit:4;stroke-dasharray:none;stroke-opacity:1"
       d="m 44.363024,6.1351356 1.07744,8.9396104 3.76789,0.11726 -2.87899,-9.2343304 c -0.67658,0.0475 -1.33413,0.10775 -1.96792,0.17746"
       id="path988" />
    <path
       style="fill:#ffffff;fill-rule:nonzero;stroke:#f1f2f8;stroke-width:0.697669;stroke-linecap:butt;stroke-linejoin:miter;stroke-miterlimit:4;stroke-dasharray:none;stroke-opacity:1"
       d="m 45.148924,10.327666 -0.47534,-3.9485204 1.46089,-0.12992 1.31511,4.2115304 -2.2975,-0.13309 m 37.83729,5.25253 0.15211,-0.005 c 12.78196,0.59893 20.968926,2.22143 26.044006,3.75521 -1.5005,0.25827 -7.45336,-1.56547 -14.234916,-2.18658 l -11.37653,-0.90315 -0.58626,-0.65914 m -4.37315,2.52724 c 0,0 -12.39535,-1.47357 -25.77942,-2.1026 -7.2458,-0.34067 -14.7578,-0.11092 -20.80416,0 l 46.58358,2.1026"
       id="path990" />
    <path
       style="fill:#ffffff;fill-rule:nonzero;stroke:#f1f2f8;stroke-width:0.697669;stroke-linecap:butt;stroke-linejoin:miter;stroke-miterlimit:4;stroke-dasharray:none;stroke-opacity:1"
       d="m 47.224584,17.411856 c 0.0111,-0.0317 0.0238,-0.0586 0.038,-0.0887 0.4595,-1.0616 1.18836,-1.69222 1.6431,-2.00753 l 0.50228,0.0158 c -0.1933,0.0982 -0.98237,0.74787 -1.58923,2.05506 -0.0253,0.0539 -0.30423,0.0475 -0.3264,0.0998 0.003,0.0254 0.003,0.0634 0.008,0.11725 0.0792,1.23589 2.02021,16.06183 5.66609,15.614999 -0.0317,0 -2.20718,-0.110911 -2.23411,-0.110911 l -0.23134,-0.01109 c -2.73639,-5.605888 -3.40028,-14.339508 -3.47793,-15.500928 a 2.455937,2.455937 0 0 1 -0.008,-0.12676 l -0.003,-0.0317 0.0158,-0.0269 m -11.56191,7.99685 c 0,0 -4.56329,-5.5219 -13.167,-2.51615 0,0 2.97248,-2.87107 8.50072,-1.36265 3.44148,0.93801 4.66628,3.88197 4.66628,3.88197 m 70.168476,-1.00931 c 0,0 -4.09427,-3.62845 -11.400286,-0.83977 0,0 2.74431,-2.29274 7.218866,-1.44822 2.99465,0.56408 4.18301,2.2864 4.18301,2.2864"
       id="path992" />
    <path
       style="fill:#ffffff;fill-rule:nonzero;stroke:#f1f2f8;stroke-width:0.697669;stroke-linecap:butt;stroke-linejoin:miter;stroke-miterlimit:4;stroke-dasharray:none;stroke-opacity:1"
       d="m 115.04805,25.712916 c 0.10457,-0.0317 0.15528,-0.10774 0.22182,-0.22975 0.0634,-0.11408 0.13627,-0.24084 0.28521,-0.31689 a 1.4735622,1.4735622 0 0 1 0.50386,-0.11408 c -0.36443,-0.85879 -0.91265,-1.98377 -1.15666,-2.09151 a 11.836032,11.836032 0 0 0 -0.78907,-0.30739 c -0.5308,-0.19014 -1.88236,-0.64963 -2.93128,-0.77639 -1.27709,-0.15845 -3.79324,-0.0951 -4.09746,-0.0871 -0.34541,0.17113 -0.68766,0.39612 -1.0204,0.66231 2.99149,1.88236 8.61955,3.29888 8.98398,3.25768 z m -9.44031,-3.22916 0.21549,-0.18538 a 5.7833358,5.7833358 0 0 1 1.16934,-0.76847 l 0.0571,-0.0159 c 0.11408,-0.003 2.79343,-0.0792 4.16717,0.0887 0.93484,0.11092 2.06774,0.47059 2.776,0.716191 l 0.21549,0.0745 c 0.0238,0.008 0.0475,0.019 0.0745,0.0269 0.34224,0.126761 0.60527,0.229751 0.72886,0.28521 0.46266,0.20598 1.23113,2.062991 1.37849,2.43058 l 0.0824,0.201231 -0.21549,-0.0111 c -0.1014,-0.005 -0.40245,0 -0.57991,0.0887 -0.0713,0.0364 -0.11567,0.11092 -0.16637,0.20123 -0.0745,0.1331 -0.16796,0.30105 -0.38979,0.35968 -0.0158,0.006 -0.0317,0.006 -0.0602,0.006 -0.76054,0 -6.3585,-1.50525 -9.21689,-3.34324 a 7.9540671,7.9540671 0 0 0 -1.05685,1.13924 c -0.1426,0.19014 -0.24876,0.34066 -0.30897,0.43414 l -0.1426,-0.0665 -0.11091,-0.0475 a 8.0332908,8.0332908 0 0 1 1.38007,-1.61458"
       id="path994" />
    <path
       style="fill:#ffffff;fill-rule:nonzero;stroke:#f1f2f8;stroke-width:0.697669;stroke-linecap:butt;stroke-linejoin:miter;stroke-miterlimit:4;stroke-dasharray:none;stroke-opacity:1"
       d="m 107.0512,21.452266 a 5.8150252,5.8150252 0 0 0 -1.22005,0.816 c 2.97248,1.95208 8.96497,3.45416 9.25334,3.37494 0.30105,-0.0856 0.28521,-0.43098 0.5308,-0.55457 0.24559,-0.122 0.64647,-0.10141 0.64647,-0.10141 0,0 -0.87147,-2.16281 -1.3072,-2.35611 a 11.946945,11.946945 0 0 0 -0.79699,-0.30897 c -0.80808,-0.29155 -2.01545,-0.67024 -2.9598,-0.78274 -1.37849,-0.16953 -4.14815,-0.0887 -4.14815,-0.0887 m -88.852626,-8.41831 c 3.15311,-1.17252 12.50943,-5.5298204 14.60094,-6.2650204 0.37553,-0.13151 0.93485,-0.29471 1.64786,-0.47534 0.38503,-0.89206 0.44999,-1.67004 0.44999,-1.67004 2.42742,-0.36918 4.05309,0.17746 4.8881,0.6021 3.6126,-0.57516 8.14421,-1.03942 12.70116,-0.94276 6.00199,0.12676 10.78553,1.19945 13.20978,1.86334 -0.12676,0.22183 -0.62429,0.59893 -2.57795,0.0792 -2.60329,-0.69083 -8.00636,-1.29927 -12.92457,-1.14557 -4.9198,0.15528 -12.85485,0.83185 -18.15492,3.18163 -5.29848,2.3497704 -10.81404,4.8865204 -12.94516,5.0829904 -0.36443,0.0317 -0.65914,-0.11408 -0.89364,-0.31055"
       id="path996" />
    <path
       style="fill:#ffffff;fill-rule:nonzero;stroke:#f1f2f8;stroke-width:0.697669;stroke-linecap:butt;stroke-linejoin:miter;stroke-miterlimit:4;stroke-dasharray:none;stroke-opacity:1"
       d="m 34.892614,4.8184356 c 0,0 0.63379,0.98238 4.56329,0.3169 v 0.1331 l -5.01011,1.02198 0.4484,-1.47356 M 6.8283838,17.259746 l 0.0555,0.26936 a 0.82392726,0.82392726 0 0 0 0.12676,-0.0333 l -0.0159,-0.11883 -0.0158,-0.1632 a 1.6636993,1.6636993 0 0 1 -0.14894,0.0444 m 0.47534,4.54111 a 1.2992699,1.2992699 0 0 1 -0.0364,-0.11091 l -0.0982,0.019 -0.18379,-0.0159 0.0222,0.0887 -0.27887,0.16478 0.44999,0.0396 0.0206,-0.003 c 0.002,0 0.0111,-0.003 0.0317,-0.006 l 0.003,-0.002 c 0.002,-0.003 0.005,-0.003 0.005,-0.003 l 0.10774,-0.05859 -0.0412,-0.11092 m 5.1051802,-1.12497 0.0365,0.16637 a 1.4735622,1.4735622 0 0 0 0.16478,-0.0998 c 0.0285,-0.019 0.0555,-0.0412 0.084,-0.0634 l -0.0159,-0.0586 -0.26936,0.0555"
       id="path998" />
    <path
       style="fill:#ffffff;fill-rule:nonzero;stroke:#f1f2f8;stroke-width:0.697669;stroke-linecap:butt;stroke-linejoin:miter;stroke-miterlimit:4;stroke-dasharray:none;stroke-opacity:1"
       d="m 12.450104,20.843826 0.1426,0.69083 8.01745,3.38127 0.18221,-0.14894 0.0665,-0.0475 -8.0222,-3.38444 -0.13785,-0.65598 -0.0824,0.0634 a 1.1249776,1.1249776 0 0 1 -0.16637,0.0998 m -1.77937,-0.72094 c 0.92375,-0.15053 2.45277,-2.15172 2.51932,-2.23728 l 0.12993,-0.17112 -0.0444,-0.008 v -0.003 l -2.11369,-0.46743 -0.0412,0.10775 c -0.14261,0.353339 -0.60527,1.31511 -1.05051,1.53694 -0.5672402,0.27887 -1.5321902,0.38027 -1.5401102,0.38027 l -0.0586,0.005 -0.79541,0.98237 0.4595,0.003 c 0.52288,0 1.82215,-0.0111 2.5351602,-0.12993 z m 2.1644,-2.23094 c -0.50703,0.63379 -1.59399,1.857 -2.20877,1.95999 -0.6543802,0.10458 -1.8696802,0.12042 -2.3735402,0.12359 l 0.36126,-0.44365 c 0.22183,-0.0238 1.04259,-0.13785 1.5765502,-0.40087 0.53239,-0.26936 0.99505,-1.24382 1.14083,-1.57339 l 1.50525,0.33591"
       id="path1000" />
    <path
       style="fill:#ffffff;fill-rule:nonzero;stroke:#f1f2f8;stroke-width:0.697669;stroke-linecap:butt;stroke-linejoin:miter;stroke-miterlimit:4;stroke-dasharray:none;stroke-opacity:1"
       d="m 13.110834,20.241726 c 0.40879,-0.50703 1.54011,-2.04397 1.55278,-2.50347 0.002,-0.10775 -0.0919,-0.17746 -0.17112,-0.22658 -0.76055,-0.45633 -6.0796402,-1.8063 -6.5359702,-1.55596 -0.18538,0.10458 -0.2852,0.32007 -0.39295,0.54982 -0.13309,0.2852 -0.26936,0.58308 -0.58308,0.70984 l 0.0158,0.1632 c 0.005,0.0412 0.01,0.0824 0.0158,0.11884 0.46425,-0.14894 0.6528,-0.54982 0.80174,-0.87622 0.0856,-0.19013 0.16796,-0.36126 0.2757,-0.42305 0.34383,-0.11092 3.5524002,0.64171 5.2604602,1.17251 0.5308,0.16637 0.919,0.30897 1.02991,0.39612 -0.0634,0.33274 -0.84294,1.51 -1.48465,2.30383 a 2.2658,2.2658 0 0 1 -0.44049,0.44365 c -0.23767,0.17429 -0.49752,0.22975 -1.00772,0.34858 l -0.31056,0.0681 c -0.9396,0.22182 -3.3115602,0.65597 -3.8661202,0.75738 0.0111,0.0396 0.0222,0.0745 0.0364,0.11091 l 0.0412,0.11408 -0.10775,0.057 c 0,0 -0.003,0 -0.006,0.003 l 4.2717502,-0.84294 c 0.42781,-0.0951 0.70193,-0.15845 0.94277,-0.28837 l -0.0365,-0.16479 0.26936,-0.0555 0.0159,0.057 c 0.12676,-0.10457 0.25668,-0.24242 0.41196,-0.43573"
       id="path1002" />
    <path
       style="fill:#ffffff;fill-rule:nonzero;stroke:#f1f2f8;stroke-width:0.697669;stroke-linecap:butt;stroke-linejoin:miter;stroke-miterlimit:4;stroke-dasharray:none;stroke-opacity:1"
       d="m 3.9430538,29.279576 c -0.019,0.0792 -0.5007,2.498719 0.38027,3.454151 0.83977,0.906319 2.65875,1.239059 4.30344,1.478319 1.36265,0.202811 8.4991302,1.484652 8.5720102,1.49574 l 0.0206,0.003 0.01,-0.277281 0.122,0.006 c -0.0792,-0.931664 -0.4595,-7.231545 3.55239,-10.405245 l -0.28996,-0.12201 c -3.91366,3.22124 -3.63479,9.351579 -3.54447,10.489229 L 8.6684438,33.939007 c -1.1535,-0.171122 -3.29887,-0.483261 -4.13865,-1.394341 -0.78748,-0.85086 -0.31689,-3.21173 -0.30897,-3.23708 l 0.0824,-3.75521 0.21232,-0.4183 c 0.42781,-1.91722 2.56368,-3.07864 2.72054,-3.15944 -0.019,0.003 -0.0269,0.006 -0.0317,0.006 l -0.019,0.002 -0.45157,-0.038 c -0.69717,0.438888 -2.1232,1.511578 -2.48446,3.113478 l -0.22499,0.42306 v 0.0317 l -0.0792,3.7663"
       id="path1004" />
    <path
       style="fill:#ffffff;fill-rule:nonzero;stroke:#f1f2f8;stroke-width:0.697669;stroke-linecap:butt;stroke-linejoin:miter;stroke-miterlimit:4;stroke-dasharray:none;stroke-opacity:1"
       d="m 17.225714,35.436848 -0.0111,0.277278 0.15845,0.008 -0.0159,-0.1632 c 0,-0.006 -0.006,-0.0444 -0.0111,-0.11566 l -0.122,-0.006"
       id="path1006" />
    <path
       id="path1010"
       d="m 17.214624,35.712546 0.1632,0.0317 -0.003,-0.0222 z"
       style="fill:#ffffff;fill-rule:nonzero;stroke:#f1f2f8;stroke-width:0.697669;stroke-linecap:round;stroke-linejoin:miter;stroke-miterlimit:4;stroke-dasharray:none;stroke-opacity:1" />
    <path
       style="fill:#ffffff;fill-rule:nonzero;stroke:#f1f2f8;stroke-width:0.697669;stroke-linecap:butt;stroke-linejoin:miter;stroke-miterlimit:4;stroke-dasharray:none;stroke-opacity:1"
       d="m 20.792364,24.765406 -0.18221,0.14894 0.28996,0.122 c 0.019,-0.0206 0.0412,-0.0364 0.0634,-0.0539 l 0.19013,-0.13943 -0.29629,-0.12676 -0.0665,0.0475 m 0.43256,-7.74491 a 1.679544,1.679544 0 0 0 0.008,0.15686 l 0.019,0.12042 h 0.2852 a 0.82392726,0.82392726 0 0 1 -0.0269,-0.15211 c -0.006,-0.0428 -0.01,-0.084 -0.006,-0.12676 h -0.27887"
       id="path1012" />
    <path
       style="fill:#ffffff;fill-rule:nonzero;stroke:#f1f2f8;stroke-width:0.697669;stroke-linecap:butt;stroke-linejoin:miter;stroke-miterlimit:4;stroke-dasharray:none;stroke-opacity:1"
       d="m 21.248694,17.294596 c 0.19965,1.06636 1.4704,1.88553 3.02635,1.91722 l 0.10141,0.003 c 1.56863,0 2.83621,-0.80175 3.02001,-1.88077 h -0.28521 c -0.1933,0.909491 -1.35156,1.600321 -2.7348,1.600321 h -0.0951 c -1.37057,-0.0269 -2.53516,-0.739951 -2.74431,-1.641521 h -0.28521 m 3.0216,-2.43534 c -1.68905,0 -3.02952,0.9285 -3.0517,2.11528 v 0.0475 h 0.27886 c -0.003,-0.0127 -0.003,-0.0317 -0.003,-0.0428 0.0206,-1.01406 1.26757,-1.83799 2.77599,-1.83799 h 0.0856 c 0.76372,0.0158 1.47356,0.23767 2.00119,0.61794 0.5007,0.36443 0.77639,0.82076 0.78115,1.30878 h 0.13151 l 0.1426,0.002 c 0,-0.57516 -0.31689,-1.11863 -0.89364,-1.53377 -0.57358,-0.41513 -1.34047,-0.6528 -2.15806,-0.66865 l -0.0919,-0.003"
       id="path1014" />
    <path
       style="fill:#ffffff;fill-rule:nonzero;stroke:#f1f2f8;stroke-width:0.697669;stroke-linecap:butt;stroke-linejoin:miter;stroke-miterlimit:4;stroke-dasharray:none;stroke-opacity:1"
       d="m 27.410724,17.212206 0.006,-0.11408 v -0.0349 l -0.14261,-0.003 h -0.13309 v 0.0365 c 0,0.0317 -0.003,0.0602 -0.005,0.0887 a 1.489407,1.489407 0 0 1 -0.0254,0.15052 h 0.28521 c 0.008,-0.0412 0.0127,-0.0824 0.0158,-0.12359 m 5.33652,-10.5747904 c -1.00932,0.35493 -3.71243,1.55279 -6.57558,2.82354 -3.38602,1.5005004 -7.22837,3.2038104 -8.55616,3.6284504 -1.64786,0.52763 -4.62667,1.09329 -7.27275,1.09329 -1.3056102,0 -2.3703802,-0.13785 -3.1610302,-0.41514 l -0.15845,-0.0555 -0.0253,0.1632 c -0.0158,0.0887 -0.36126,2.19291 -0.31214,3.20064 0.006,0.12676 0.0158,0.23767 0.0269,0.33749 0.0444,0.34859 0.12676,0.5609 0.19489,0.74946 0.0681,0.1933 0.12676,0.34541 0.12042,0.60685 -0.002,0.15211 -0.0238,0.37711 -0.0475,0.63379 -0.0666,0.70826 -0.14894,1.65103 0.002,2.28957 l 0.1838,0.0158 c 0.019,-0.003 0.0523,-0.0111 0.0982,-0.019 -0.10774,-0.38503 -0.10458,-0.93801 -0.0745,-1.47039 0.0158,-0.27729 0.0412,-0.54823 0.0634,-0.79224 0.0254,-0.26302 0.0475,-0.49119 0.0507,-0.6528 a 1.6953888,1.6953888 0 0 0 -0.1426,-0.71302 c -0.0555,-0.14894 -0.11567,-0.31373 -0.15845,-0.56566 a 0.82392726,0.82392726 0 0 1 -0.12676,0.0333 l -0.0555,-0.26936 a 1.2675804,1.2675804 0 0 0 0.14894,-0.0444 2.2341105,2.2341105 0 0 1 -0.009,-0.15211 c -0.0428,-0.82076 0.20123,-2.46544 0.28045,-2.98357 0.80175,0.25352 1.84275,0.38028 3.0976502,0.38028 2.67301,0 5.68828,-0.57041 7.35514,-1.10597 1.34364,-0.4278 5.02596,-2.05981 8.58786,-3.6411204 l 6.55499,-2.812441 a 20.788319,20.788319 0 0 1 1.35631,-0.40246 c 0.0444,-0.0919 0.084,-0.17746 0.11725,-0.25827 l 0.0238,-0.0602 a 19.885168,19.885168 0 0 0 -1.5924,0.4595"
       id="path1016" />
    <path
       style="fill:#ffffff;fill-rule:nonzero;stroke:#f1f2f8;stroke-width:0.697669;stroke-linecap:butt;stroke-linejoin:miter;stroke-miterlimit:4;stroke-dasharray:none;stroke-opacity:1"
       d="m 34.410924,6.1589056 -0.0697,0.0159 -0.0253,0.0602 -0.11566,0.25668 0.34224,-0.0856 0.0285,-0.0634 0.10141,-0.24876 -0.26144,0.0634 m -7.07785,17.0172604 c 5.56467,0.11567 8.75581,2.89959 9.48625,8.275721 l 0.22658,0.0951 c 0.0222,0.01109 0.0475,0.019 0.0713,0.0317 -0.49119,-3.89464 -2.59538,-8.52448 -9.77622,-8.67818 -2.6429,-0.0555 -4.8168,0.55457 -6.4805,1.82215 l 0.29629,0.12676 c 1.59399,-1.16142 3.66014,-1.72391 6.17946,-1.67004"
       id="path1018" />
    <path
       id="path1022"
       d="m 36.865284,36.691745 v 0.003 l 0.12993,0.003 z"
       style="fill:#ffffff;fill-rule:nonzero;stroke:#f1f2f8;stroke-width:0.697669;stroke-linecap:round;stroke-linejoin:miter;stroke-miterlimit:4;stroke-dasharray:none;stroke-opacity:1" />
    <path
       style="fill:#ffffff;fill-rule:nonzero;stroke:#f1f2f8;stroke-width:0.697669;stroke-linecap:butt;stroke-linejoin:miter;stroke-miterlimit:4;stroke-dasharray:none;stroke-opacity:1"
       d="m 36.868454,36.411297 -0.003,0.14894 v 0.129929 l 0.1331,0.006 0.0111,-0.277292 -0.1426,-0.008 m 0.0713,-4.61082 0.21549,0.0856 c -0.005,-0.0745 -0.0159,-0.152109 -0.0254,-0.229748 -0.002,-0.0269 -0.005,-0.0523 -0.0111,-0.0792 l -0.0713,-0.0317 -0.22658,-0.0951 0.0317,0.23767 0.008,0.0792 0.0792,0.0317 M 35.017974,4.7451456 c 2.01228,-0.28521 3.44782,0.0729 4.29075,0.4183 0.15054,-0.0285 0.30107,-0.0507 0.45159,-0.0745 l 0.0475,-0.01 c -0.79224,-0.39136 -2.45594,-0.9697 -4.93405,-0.59101 l -0.10458,0.0159 -0.0111,0.11091 a 5.8625594,5.8625594 0 0 1 -0.41513,1.56546 c 0.0222,-0.006 0.0475,-0.0111 0.0697,-0.0158 l 0.26143,-0.0634 c 0.23292,-0.61002 0.3169,-1.1329 0.34542,-1.35156"
       id="path1024" />
    <path
       style="fill:#ffffff;fill-rule:nonzero;stroke:#f1f2f8;stroke-width:0.697669;stroke-linecap:butt;stroke-linejoin:miter;stroke-miterlimit:4;stroke-dasharray:none;stroke-opacity:1"
       d="m 34.544034,6.4092556 c 1.4894,-0.37077 3.33373,-0.73837 5.21291,-1.04259 -0.0111,-0.008 -0.0254,-0.0158 -0.0364,-0.019 a 5.2763034,5.2763034 0 0 0 -0.4088,-0.18538 61.651944,61.651944 0 0 0 -4.63617,0.93484 l -0.10299,0.24876 c -0.008,0.0222 -0.0159,0.0412 -0.0269,0.0634"
       id="path1026" />
    <path
       style="fill:#ffffff;fill-rule:nonzero;stroke:#f1f2f8;stroke-width:0.697669;stroke-linecap:butt;stroke-linejoin:miter;stroke-miterlimit:4;stroke-dasharray:none;stroke-opacity:1"
       d="m 39.809234,5.0782956 -0.49752,0.0824 0.4088,0.18539 c 0.0111,0.006 0.0254,0.0111 0.0364,0.019 0.0158,-0.002 0.0317,-0.005 0.0475,-0.008 l 0.39295,-0.0602 a 3.3115538,3.3115538 0 0 0 -0.35176,-0.19965 c -0.0111,-0.005 -0.0238,-0.0111 -0.038,-0.019 m 1.09329,31.4882794 0.22658,0.155282 c 0.003,-0.003 0.0586,-0.0824 0.15211,-0.210741 l -0.26302,-0.005 c -0.0238,0 -0.0475,0 -0.0713,-0.003 l -0.0444,0.0634"
       id="path1028" />
    <path
       style="fill:#ffffff;fill-rule:nonzero;stroke:#f1f2f8;stroke-width:0.697669;stroke-linecap:butt;stroke-linejoin:miter;stroke-miterlimit:4;stroke-dasharray:none;stroke-opacity:1"
       d="m 28.293274,12.661596 c 0.10775,-0.44999 4.5316,-5.0861704 15.94775,-6.3727604 l -0.0317,-0.2757 c -11.23394,1.26758 -16.17434,5.9766404 -16.19335,6.6437104 -0.0111,0.63379 0.51495,1.9901 2.20559,2.12002 0.80491,0.0602 2.88375,0.11092 6.02734,0.19014 l 9.06796,0.24401 -0.0317,-0.27887 -15.03984,-0.43256 c -1.64469,-0.12359 -1.95683,-1.48148 -1.94891,-1.83799 m 12.64728,23.841599 -3.79798,-0.0792 0.0269,-0.453159 c 0.0586,-0.839772 0.16637,-2.376721 -0.019,-4.08795 -0.0792,-0.0269 -0.14894,-0.0555 -0.21549,-0.0856 l -0.0792,-0.0317 c 0.20598,1.742919 0.0951,3.332149 0.0364,4.186179 l -0.0285,0.4595 0.1426,0.008 -0.0111,0.277289 h 0.003 l 4.1244,0.0887 v -0.0634 l -0.22659,-0.153702 c 0.006,-0.006 0.019,-0.0285 0.0444,-0.0634"
       id="path1030" />
    <path
       style="fill:#ffffff;fill-rule:nonzero;stroke:#f1f2f8;stroke-width:0.697669;stroke-linecap:butt;stroke-linejoin:miter;stroke-miterlimit:4;stroke-dasharray:none;stroke-opacity:1"
       d="m 44.209334,6.0131356 0.0158,0.13943 0.0159,0.13785 0.13468,-0.0158 0.14259,-0.0127 -0.0317,-0.27728 -0.13467,0.0158 -0.1426,0.0158"
       id="path1032" />
    <path
       style="fill:#ffffff;fill-rule:nonzero;stroke:#f1f2f8;stroke-width:0.697669;stroke-linecap:butt;stroke-linejoin:miter;stroke-miterlimit:4;stroke-dasharray:none;stroke-opacity:1"
       d="m 44.241024,6.2888356 1.04258,8.6417304 0.15845,0.006 0.122,0.003 -1.04575,-8.6829204 -0.1426,0.0158 -0.13468,0.0159"
       id="path1034" />
    <path
       style="fill:#ffffff;fill-rule:nonzero;stroke:#f1f2f8;stroke-width:0.697669;stroke-linecap:butt;stroke-linejoin:miter;stroke-miterlimit:4;stroke-dasharray:none;stroke-opacity:1"
       d="m 45.443634,14.938486 -0.15844,-0.006 0.0317,0.27887 0.28203,0.01 -0.0317,-0.28046 c -0.0412,0 -0.0792,-0.002 -0.122,-0.002 m 0.70192,-9.1059704 a 47.138145,47.138145 0 0 0 -1.66211,0.14894 l 0.0317,0.27728 a 44.397004,44.397004 0 0 1 1.71439,-0.15528 l -0.0856,-0.26936"
       id="path1036" />
    <path
       style="fill:#ffffff;fill-rule:nonzero;stroke:#f1f2f8;stroke-width:0.697669;stroke-linecap:butt;stroke-linejoin:miter;stroke-miterlimit:4;stroke-dasharray:none;stroke-opacity:1"
       d="m 46.432354,5.8119056 -0.11092,0.008 -0.17429,0.0159 0.084,0.26936 0.10774,-0.008 c 0.0586,-0.006 0.11567,-0.008 0.17745,-0.0111 l -0.084,-0.27412 m 0.66072,11.5096304 -19.676,-0.22183 -0.005,0.11092 c -0.003,0.0412 -0.01,0.084 -0.0158,0.12676 l 19.64432,0.1014 0.0158,-0.0269 c 0.0111,-0.0317 0.0254,-0.0586 0.0396,-0.0887"
       id="path1038" />
    <path
       style="fill:#ffffff;fill-rule:nonzero;stroke:#f1f2f8;stroke-width:0.697669;stroke-linecap:butt;stroke-linejoin:miter;stroke-miterlimit:4;stroke-dasharray:none;stroke-opacity:1"
       d="m 47.042374,17.472066 c 0,0.006 0.002,0.0507 0.008,0.12675 l 0.12676,0.002 0.15211,0.003 -0.008,-0.11567 0.0713,-0.15845 -0.20915,-0.005 c -0.0317,0 -0.0634,0 -0.0919,-0.003 l -0.038,0.0887 -0.0158,0.0269 0.003,0.0317 m 1.98059,-2.41791 -3.45416,-0.11092 0.0317,0.27887 3.13726,0.0951 a 3.4541566,3.4541566 0 0 1 0.30898,-0.19331 l -0.0222,-0.0713"
       id="path1040" />
    <path
       style="fill:#ffffff;fill-rule:nonzero;stroke:#f1f2f8;stroke-width:0.697669;stroke-linecap:butt;stroke-linejoin:miter;stroke-miterlimit:4;stroke-dasharray:none;stroke-opacity:1"
       d="m 47.392544,17.331046 c 0.60844,-1.30719 1.65102,-1.90137 1.84433,-1.99644 h -0.0364 l -0.46743,-0.0159 a 4.7375818,4.7375818 0 0 0 -1.64152,2.00753 1.7746126,1.7746126 0 0 0 0.0919,0.002 c 0.0681,0.003 0.13785,0.003 0.20915,0.006 m -0.34225,0.2646 c 0.0792,1.16142 0.74154,9.89505 3.47793,15.500931 l 0.23291,0.01109 c 0.0269,0 0.0539,0.003 0.0856,0.003 -2.75699,-5.540911 -3.43831,-14.271371 -3.51754,-15.512021 -0.0523,0 -0.1014,-0.002 -0.1521,-0.002 -0.0412,0 -0.0824,-0.003 -0.12676,-0.003 m 2.16281,-2.5415 0.10141,0.003 -2.7966,-8.9744704 -0.28522,0.019 2.78869,8.9459504 0.19014,0.006"
       id="path1042" />
    <path
       style="fill:#ffffff;fill-rule:nonzero;stroke:#f1f2f8;stroke-width:0.697669;stroke-linecap:butt;stroke-linejoin:miter;stroke-miterlimit:4;stroke-dasharray:none;stroke-opacity:1"
       d="m 49.043564,15.123866 -0.30897,0.19331 0.50385,0.0158 0.0317,-0.0158 0.0349,-0.0269 0.0634,-0.0586 -0.0222,-0.0824 -0.0285,-0.0919 -0.29312,-0.008 0.0222,0.0713 m -11.89307,16.76376 c 1.72232,0.644883 6.25551,1.148742 13.49022,1.498913 l 0.003,-0.0412 -0.0158,-0.0317 -0.10141,-0.21073 c -7.3282,-0.35968 -11.84079,-0.871461 -13.411,-1.52585 a 1.3626489,1.3626489 0 0 1 0.0111,0.0792 l 0.0253,0.228172"
       id="path1044" />
    <path
       style="fill:#ffffff;fill-rule:nonzero;stroke:#f1f2f8;stroke-width:0.697669;stroke-linecap:butt;stroke-linejoin:miter;stroke-miterlimit:4;stroke-dasharray:none;stroke-opacity:1"
       d="m 50.761124,33.110837 -0.2329,-0.01111 0.11883,0.242422 0.25668,-0.107741 -0.0127,-0.0254 a 0.63379022,0.63379022 0 0 1 -0.0444,-0.0935 c -0.0317,0 -0.0586,-0.003 -0.0856,-0.003 m -7.33928,1.590818 c 1.10914,-0.42781 15.718,-0.43098 16.01905,-0.41197 0,0 -14.22859,-0.522869 -16.12045,0.153702 -1.19311,0.42781 -2.16124,1.752428 -2.37989,2.059818 a 0.52287691,0.52287691 0 0 0 0.0713,0.003 l 0.26301,0.005 c 0.3375,-0.435732 1.18837,-1.441871 2.14539,-1.8063 m 9.06003,-30.2888304 c 7.42327,0.15845 12.98477,1.76352 14.49795,2.24996 0.0539,-0.0523 0.11884,-0.10775 0.19488,-0.16637 l 0.057,-0.0412 c -1.24697,-0.40879 -6.98753,-2.15172 -14.74512,-2.3165 l -1.22321,-0.0158 c -4.511,0 -8.70986,0.51654 -11.45577,0.95069 0.0158,0.008 0.0269,0.0158 0.038,0.019 0.13943,0.0697 0.25351,0.13944 0.35175,0.19965 1.17568,-0.17905 2.58745,-0.37077 4.15766,-0.52763 a 69.257426,69.257426 0 0 1 6.90832,-0.36602 l 1.21688,0.0159"
       id="path1046" />
    <path
       style="fill:#ffffff;fill-rule:nonzero;stroke:#f1f2f8;stroke-width:0.697669;stroke-linecap:butt;stroke-linejoin:miter;stroke-miterlimit:4;stroke-dasharray:none;stroke-opacity:1"
       d="m 67.173134,6.4995656 -0.1933,0.16637 0.23291,0.0745 a 0.45949791,0.45949791 0 0 1 0.0713,0.0254 0.52287691,0.52287691 0 0 1 0.0555,-0.0444 2.2974895,2.2974895 0 0 1 0.21866,-0.14736 l -0.0697,-0.0317 a 3.5650699,3.5650699 0 0 0 -0.19014,-0.0634 l -0.0681,-0.0222 -0.0586,0.0412 m 11.64588,10.1248004 -29.4554,-1.388 -0.0602,0.0586 -0.0364,0.0269 c -0.003,0.003 -0.0127,0.006 -0.0317,0.0158 l 0.79858,0.0269 c 10.38148,0.35492 28.78199,1.536941 29.65504,1.5924 -0.008,-0.003 -0.01,-0.005 -0.01,-0.005 l -0.86037,-0.3264 m -6.23015,-5.208171 a 57.991804,57.991804 0 0 0 -2.93603,-1.8126404 c -1.58764,-0.91583 -2.98832,-1.58764 -4.164,-1.99961 -3.69183,-1.35948 -7.82731,-1.96792 -13.41417,-1.96792 a 98.506844,98.506844 0 0 0 -4.33196,0.103 l -1.30719,0.0713 0.0824,0.27411 1.23589,-0.0697 c 1.58765,-0.0697 2.99942,-0.1014 4.32087,-0.1014 5.552,0 9.66055,0.6021 13.32069,1.9489 1.15983,0.40721 2.54625,1.07269 4.11963,1.97743 3.33691,1.9124604 6.85603,4.5110004 9.42763,6.5280404 l 0.85562,0.3264 c -1.91722,-1.52902 -4.51576,-3.50486 -7.20937,-5.2763"
       id="path1048" />
    <path
       style="fill:#ffffff;fill-rule:nonzero;stroke:#f1f2f8;stroke-width:0.697669;stroke-linecap:butt;stroke-linejoin:miter;stroke-miterlimit:4;stroke-dasharray:none;stroke-opacity:1"
       d="m 79.796654,16.695666 -0.85563,-0.3264 0.35969,0.28204 -0.47852,-0.0317 0.86038,0.3264 c 0,0 0.002,0.002 0.0111,0.005 0.0158,0.003 0.0269,0.003 0.0317,0.003 l 0.4389,0.0269 -0.34542,-0.27253 c -0.003,-0.003 -0.005,-0.006 -0.008,-0.01 -0.006,-0.002 -0.008,-0.005 -0.0111,-0.005 m 1.81581,16.972902 -0.0269,0.0998 0.26461,0.0792 0.0475,-0.17747 h -0.2852"
       id="path1050" />
    <path
       style="fill:#ffffff;fill-rule:nonzero;stroke:#f1f2f8;stroke-width:0.697669;stroke-linecap:butt;stroke-linejoin:miter;stroke-miterlimit:4;stroke-dasharray:none;stroke-opacity:1"
       d="m 82.843594,15.448686 -1.01406,-0.52763 0.85562,0.5308 0.16161,-0.003 m -3.02951,1.25966 0.34541,0.27411 -0.44048,-0.0285 c -0.003,0 -0.0127,0 -0.0317,-0.002 0.12992,0.0745 1.51,0.88097 2.50664,2.53199 l 0.34066,0.0317 c -1.0616,-1.86334 -2.57636,-2.72847 -2.73164,-2.81403 0.003,0.003 0.006,0.005 0.01,0.008"
       id="path1052" />
    <path
       style="fill:#ffffff;fill-rule:nonzero;stroke:#f1f2f8;stroke-width:0.697669;stroke-linecap:butt;stroke-linejoin:miter;stroke-miterlimit:4;stroke-dasharray:none;stroke-opacity:1"
       d="m 82.198714,19.484346 c -8.0333,-0.66865 -26.03927,-1.95366 -34.80617,-2.15489 l -0.0713,0.15845 c 0.003,0.0254 0.003,0.0634 0.008,0.11725 8.78592,0.19648 26.99629,1.5005 34.98047,2.16756 -0.006,-0.0507 -0.006,-0.0871 -0.008,-0.10774 v -0.006 l -0.10299,-0.17429 m -9.32147,-8.5023 7.23471,4.85801 c 0.73204,-0.0523 2.22461,-0.10299 2.64608,-0.11567 -0.0111,-0.01 -0.019,-0.0206 -0.0269,-0.0254 l -0.45158,-0.2345 -2.14221,0.0951 -7.91604,-5.33176 a 54.64856,54.64856 0 0 0 -2.16757,-1.3135304 l -0.97761,-0.55773 c -0.96653,-0.54981 -1.96475,-1.11706 -2.02338,-1.29927 -0.003,-0.0444 0.0539,-0.14894 0.23133,-0.28996 a 0.71301398,0.71301398 0 0 0 -0.0713,-0.0254 l -0.23291,-0.0745 c -0.14578,0.14894 -0.21232,0.2852 -0.20123,0.42305 0.0269,0.28521 0.64329,0.64647 2.16122,1.50525 l 0.97604,0.55457 2.9598,1.8300704"
       id="path1054" />
    <path
       style="fill:#ffffff;fill-rule:nonzero;stroke:#f1f2f8;stroke-width:0.697669;stroke-linecap:butt;stroke-linejoin:miter;stroke-miterlimit:4;stroke-dasharray:none;stroke-opacity:1"
       d="m 82.309634,19.772716 0.0745,1.38167 c 0.13784,3.14043 0.21864,8.92059 -0.76848,12.5126 h 0.2852 c 0.96653,-3.58091 0.8984,-9.22799 0.76531,-12.3906 -0.003,-0.0444 -0.003,-0.0887 -0.005,-0.13309 l -0.0729,-1.34681 c -0.0523,-0.006 -0.10457,-0.008 -0.15844,-0.0158 -0.038,-0.003 -0.0792,-0.005 -0.11884,-0.0111"
       id="path1056" />
    <path
       style="fill:#ffffff;fill-rule:nonzero;stroke:#f1f2f8;stroke-width:0.697669;stroke-linecap:butt;stroke-linejoin:miter;stroke-miterlimit:4;stroke-dasharray:none;stroke-opacity:1"
       d="m 82.301704,19.658636 v 0.005 l 0.008,0.10774 c 0.038,0.006 0.0792,0.01 0.11883,0.0111 l 0.15844,0.0159 -0.0111,-0.15845 0.003,-0.0412 -0.0222,-0.0475 c -0.006,-0.0111 -0.0158,-0.0222 -0.019,-0.0317 l -0.34065,-0.0317 0.10298,0.17429 M 67.385444,6.8006156 c 3.86612,1.6542 11.43991,6.2586804 14.42665,8.1077604 l 0.0158,0.0111 1.01407,0.52921 0.25985,-0.0111 0.038,-0.0254 c -0.96653,-0.60844 -10.88535,-6.8084904 -15.58332,-8.8382104 a 2.915435,2.915435 0 0 0 -0.21865,0.14578 c -0.019,0.0158 -0.0396,0.0317 -0.0555,0.0444 a 1.8063021,1.8063021 0 0 1 0.10141,0.0364"
       id="path1058" />
    <path
       style="fill:#ffffff;fill-rule:nonzero;stroke:#f1f2f8;stroke-width:0.697669;stroke-linecap:butt;stroke-linejoin:miter;stroke-miterlimit:4;stroke-dasharray:none;stroke-opacity:1"
       d="m 82.282694,15.466116 0.44999,0.2345 c 0.01,0.006 0.0159,0.0159 0.0285,0.0254 h 0.057 l 0.32165,-0.0111 -0.0396,-0.003 -0.0317,-0.019 c -0.0111,-0.008 -0.14577,-0.0919 -0.38661,-0.24084 l -0.40088,0.0158 m 0.90316,-0.0269 c -0.0111,-0.008 -0.0269,-0.0159 -0.0444,-0.0269 l -0.038,0.0254 -0.25985,0.0111 0.0317,0.0158 0.0317,0.0222 a 4.0245678,4.0245678 0 0 0 0.26302,0.22658 h 0.0127 l 0.38978,-0.25351 -0.38978,-0.0206"
       id="path1060" />
    <path
       style="fill:#ffffff;fill-rule:nonzero;stroke:#f1f2f8;stroke-width:0.697669;stroke-linecap:butt;stroke-linejoin:miter;stroke-miterlimit:4;stroke-dasharray:none;stroke-opacity:1"
       d="m 83.173164,15.713296 -0.26302,-0.22658 -0.0317,-0.0222 -0.0317,-0.0159 h -0.0349 l -0.12675,0.003 0.41671,0.25985 0.0396,0.002 h 0.0317"
       id="path1062" />
    <path
       style="fill:#ffffff;fill-rule:nonzero;stroke:#f1f2f8;stroke-width:0.697669;stroke-linecap:butt;stroke-linejoin:miter;stroke-miterlimit:4;stroke-dasharray:none;stroke-opacity:1"
       d="m 83.147814,15.713296 c 0.008,0 0.019,0 0.0269,0.003 0,-0.003 -0.002,-0.003 -0.002,-0.003 h -0.0254 m -1.53218,17.952111 c -3.87405,0.008 -13.65501,-0.003 -23.18722,-0.26937 l -7.5833,-0.28203 c 0.0159,0.0317 0.0285,0.0634 0.0444,0.0951 l 0.0158,0.0254 -0.25668,0.107741 v 0.0412 c 0.0317,0.003 0.0697,0.003 0.10457,0.006 l 8.22818,0.30105 c 9.44348,0.253511 19.01688,0.26302 22.74356,0.253511 l 2.80453,-0.019 c 2.31967,-0.038 3.94059,0.218662 4.37315,0.296301 0.003,-0.0396 0.003,-0.0792 0.006,-0.11884 l 0.008,-0.158451 c -0.49119,-0.0856 -2.10735,-0.32798 -4.39217,-0.294709 l -2.61914,0.019 c -0.0127,0.0586 -0.0317,0.118841 -0.0475,0.17747 l -0.2662,-0.0792 c 0.008,-0.0317 0.019,-0.0666 0.0285,-0.0998"
       id="path1064" />
    <path
       style="fill:#ffffff;fill-rule:nonzero;stroke:#f1f2f8;stroke-width:0.697669;stroke-linecap:butt;stroke-linejoin:miter;stroke-miterlimit:4;stroke-dasharray:none;stroke-opacity:1"
       d="m 88.219724,21.577436 c 0.003,-0.11091 -0.038,-0.23292 -0.12676,-0.37077 -0.30422,-0.49752 -1.1329,-1.10279 -1.47039,-1.2755 -0.0523,-0.0238 -0.17113,-0.0856 -4.0832,-0.41671 0.005,0.0111 0.0159,0.0222 0.019,0.0317 l 0.0222,0.0475 -0.003,0.0412 c 0.003,0.0317 0.006,0.0824 0.0111,0.15844 l 3.91841,0.38661 a 5.1337006,5.1337006 0 0 1 1.08061,0.83185 c 0.11092,0.11726 0.20599,0.22975 0.26936,0.3375 0.0745,0.11408 0.0856,0.18063 0.0856,0.21549 -0.0317,0.28203 -1.6843,2.32284 -3.21333,4.06576 0,0 3.47793,-3.59676 3.48901,-4.05626 m 0.68608,12.526871 -0.006,0.11883 0.0951,0.019 0.1743,0.0951 0.0111,-0.221819 c 0,-0.0285 0.003,-0.0539 0.005,-0.0792 l -0.11567,-0.0634 c -0.002,0 -0.0555,-0.01 -0.15844,-0.0269 l -0.008,0.158449"
       id="path1066" />
    <path
       style="fill:#ffffff;fill-rule:nonzero;stroke:#f1f2f8;stroke-width:0.697669;stroke-linecap:butt;stroke-linejoin:miter;stroke-miterlimit:4;stroke-dasharray:none;stroke-opacity:1"
       d="m 79.997884,36.680657 -17.36586,-0.30897 -18.19611,0.19331 c -0.47535,0 -0.88097,-0.006 -1.21054,-0.01109 l -1.94892,-0.0428 -0.1521,0.21074 v 0.0634 l 3.31156,0.0555 22.71345,-0.148942 21.97034,0.419891 -0.005,-0.275701 0.12676,-0.003 c -0.0365,-0.323228 -0.11567,-1.264409 -0.0745,-2.49872 l -0.1743,-0.0951 c -0.019,-0.0021 -0.0523,-0.01109 -0.0951,-0.019 a 18.601742,18.601742 0 0 0 0.0666,2.61597 c -0.9079,0 -4.61399,-0.0697 -8.96813,-0.155279"
       id="path1068" />
    <path
       style="fill:#ffffff;fill-rule:nonzero;stroke:#f1f2f8;stroke-width:0.697669;stroke-linecap:butt;stroke-linejoin:miter;stroke-miterlimit:4;stroke-dasharray:none;stroke-opacity:1"
       d="m 89.118124,36.835935 0.005,0.275701 0.15528,-0.003 -0.019,-0.153689 c 0,-0.003 -0.006,-0.0444 -0.0159,-0.12201 l -0.12676,0.003 m -4.15925,-19.774249 c 0.67816,0.24559 2.89167,0.39612 5.69302,0.58308 2.64291,0.17905 5.63598,0.38028 8.28681,0.72094 5.092506,0.55457 15.472396,3.0105 14.518546,2.90593 -8.65758,-2.646083 -14.434576,-3.176873 -14.491616,-3.181633 -2.64608,-0.34066 -5.64707,-0.54189 -8.29632,-0.71935 -2.66825,-0.17905 -4.97525,-0.33749 -5.61538,-0.57041 a 6.7498656,6.7498656 0 0 1 -1.87602,-1.08378 c -0.01,-0.003 -0.019,-0.003 -0.0285,-0.003 h -0.008 a 9.8871273,9.8871273 0 0 0 -0.32006,0.0111 h -0.0586 a 7.0509162,7.0509162 0 0 0 2.19767,1.33571 m 14.64055,5.89425 c -8.75739,-0.18538 -10.46387,6.75462 -10.69045,10.989922 0.10299,0.0159 0.15527,0.0269 0.15844,0.0269 l 0.11725,0.0634 c 0.20123,-4.127561 1.838,-10.996261 10.41001,-10.801371 1.711226,0.0349 3.232326,0.34225 4.510986,0.91424 l 0.0523,-0.1426 c 0.006,-0.01 0.0254,-0.0444 0.0666,-0.10616 -1.31511,-0.58626 -2.87265,-0.90632 -4.626656,-0.94276"
       id="path1070" />
    <path
       style="fill:#ffffff;fill-rule:nonzero;stroke:#f1f2f8;stroke-width:0.697669;stroke-linecap:butt;stroke-linejoin:miter;stroke-miterlimit:4;stroke-dasharray:none;stroke-opacity:1"
       d="m 104.22767,23.897106 -0.0666,0.10458 -0.0523,0.1426 0.11408,0.0475 0.13785,0.0665 0.0475,-0.1426 0.0697,-0.10616 -0.1426,-0.0665 -0.11091,-0.0475"
       id="path1072" />
    <path
       style="fill:#ffffff;fill-rule:nonzero;stroke:#f1f2f8;stroke-width:0.697669;stroke-linecap:butt;stroke-linejoin:miter;stroke-miterlimit:4;stroke-dasharray:none;stroke-opacity:1"
       d="m 104.4083,24.117356 -0.0475,0.1426 c 0.48327,0.23292 0.93484,0.50703 1.35156,0.82076 l 0.17112,-0.21866 a 8.160049,8.160049 0 0 0 -1.40384,-0.85086 l -0.0697,0.10457"
       id="path1074" />
    <path
       style="fill:#ffffff;fill-rule:nonzero;stroke:#f1f2f8;stroke-width:0.697669;stroke-linecap:butt;stroke-linejoin:miter;stroke-miterlimit:4;stroke-dasharray:none;stroke-opacity:1"
       d="m 105.88186,24.865226 -0.17113,0.21866 0.11092,0.0824 0.10774,0.0856 0.17113,-0.21866 -0.10775,-0.0856 -0.11091,-0.0824"
       id="path1076" />
    <path
       style="fill:#ffffff;fill-rule:nonzero;stroke:#f1f2f8;stroke-width:0.697669;stroke-linecap:butt;stroke-linejoin:miter;stroke-miterlimit:4;stroke-dasharray:none;stroke-opacity:1"
       d="m 105.92939,25.251836 c 1.12181,0.90315 1.9901,2.11211 2.58745,3.60468 0.008,0.0222 0.0159,0.0444 0.0254,0.0666 l 0.005,-0.25985 0.19013,0.003 c -0.60844,-1.49892 -1.49891,-2.71738 -2.63498,-3.63321 l -0.17112,0.21866 m 2.6128,3.67282 v 0.0158 h 0.006 c 0,-0.006 -0.003,-0.0111 -0.006,-0.0158"
       id="path1078" />
    <path
       style="fill:#ffffff;fill-rule:nonzero;stroke:#f1f2f8;stroke-width:0.697669;stroke-linecap:butt;stroke-linejoin:miter;stroke-miterlimit:4;stroke-dasharray:none;stroke-opacity:1"
       d="m 108.54853,28.663216 -0.006,0.25985 c 0.003,0.006 0.006,0.0111 0.006,0.0159 l 0.29471,0.005 -0.0713,-0.19331 -0.0364,-0.0856 -0.18697,-0.003"
       id="path1080" />
    <path
       style="fill:#ffffff;fill-rule:nonzero;stroke:#f1f2f8;stroke-width:0.697669;stroke-linecap:butt;stroke-linejoin:miter;stroke-miterlimit:4;stroke-dasharray:none;stroke-opacity:1"
       d="m 109.41999,28.766206 c -1.10596,-2.81403 -3.05804,-4.14024 -3.14043,-4.19569 l -0.11091,-0.0697 -0.28521,0.36443 0.11092,0.084 0.10774,0.0856 0.12676,-0.15845 c 0.40721,0.30422 1.91721,1.55279 2.85205,3.79957 l -0.34541,-0.01 c 0.0127,0.0285 0.0238,0.0586 0.0349,0.0871 a 3.4858463,3.4858463 0 0 1 0.0729,0.19331 l 0.64964,0.0111 -0.0745,-0.19014 m 0.0317,8.370789 c -0.005,-0.003 -0.0666,-0.0317 -0.16796,-0.0792 l -0.0285,0.177462 -0.019,0.104579 0.0951,0.0444 0.122,-0.248759"
       id="path1082" />
    <path
       style="fill:#ffffff;fill-rule:nonzero;stroke:#f1f2f8;stroke-width:0.697669;stroke-linecap:butt;stroke-linejoin:miter;stroke-miterlimit:4;stroke-dasharray:none;stroke-opacity:1"
       d="m 83.176334,15.716466 c 17.817426,0.83977 26.669886,3.70767 30.368046,5.34919 0.006,0.003 0.0159,0.006 0.019,0.01 a 8.2868069,8.2868069 0 0 1 0.43732,0.196481 c 0.0222,-0.0761 0.0475,-0.12201 0.0697,-0.14736 l 0.057,-0.0951 a 12.549046,12.549046 0 0 0 -0.45316,-0.207562 c -3.67599,-1.63677 -12.46031,-4.49991 -30.097096,-5.36028 l -0.38979,0.25351 h -0.0158 c 0,0 0.003,0 0.003,0.003 m 30.534426,18.546291 0.003,0.245589 0.12674,0.0666 0.14578,-0.28045 v -0.0317 l -0.003,-0.54506 -0.27413,0.511778 v 0.0317"
       id="path1084" />
    <path
       style="fill:#ffffff;fill-rule:nonzero;stroke:#f1f2f8;stroke-width:0.697669;stroke-linecap:butt;stroke-linejoin:miter;stroke-miterlimit:4;stroke-dasharray:none;stroke-opacity:1"
       d="m 114.00071,21.271636 c -0.0428,0.1426 -0.0697,0.40087 -0.01,0.84928 l 0.29155,0.1014 c -0.0729,-0.46425 -0.0539,-0.70984 -0.0285,-0.82868 l -0.25352,-0.122"
       id="path1086" />
    <path
       style="fill:#ffffff;fill-rule:nonzero;stroke:#f1f2f8;stroke-width:0.697669;stroke-linecap:butt;stroke-linejoin:miter;stroke-miterlimit:4;stroke-dasharray:none;stroke-opacity:1"
       d="m 113.9912,22.119326 0.0317,0.22975 0.26936,-0.0507 c -0.006,-0.0269 -0.008,-0.0523 -0.0158,-0.0792 l -0.0745,-0.0269 -0.21549,-0.0745 m 0.22183,-1.05209 -0.084,-0.038 -0.057,0.0951 c -0.0206,0.0254 -0.0475,0.0729 -0.0697,0.14735 l 0.12675,0.0571 0.12993,0.0634 c 0.0158,-0.0713 0.0317,-0.0982 0.0317,-0.0982 l 0.0871,-0.15053 -0.1632,-0.0792 m -0.49911,13.447441 0.0317,0.792239 c 0.0555,0.4595 0.58626,1.056841 1.1123,1.54486 h 0.019 l 0.40087,0.006 c -0.76055,-0.66548 -1.21371,-1.243811 -1.25491,-1.58764 -0.0222,-0.153699 -0.0317,-0.494361 -0.0317,-0.969701 l -0.0158,0.0317 -0.12994,0.248761 -0.12676,-0.0666 m -4.2654,2.630231 -0.12042,0.248759 c -0.003,-0.003 -0.0365,-0.0158 -0.0951,-0.0444 l -0.0127,0.0697 0.17905,-0.01109 c 0.0396,-0.003 4.27491,-0.301048 5.46645,-0.27728 l 0.30104,0.006 c -0.0111,-0.01109 -0.0254,-0.0222 -0.0396,-0.0317 l -0.27569,-0.248759 c -0.0444,0 -0.0919,-0.003 -0.14261,-0.003 -1.20895,0 -4.3795,0.21232 -5.15905,0.269359 0.12992,-0.85879 0.60209,-4.721741 -0.70984,-8.16956 l -0.29631,-0.005 c 1.32621,3.395529 0.86513,7.253731 0.7352,8.12202 0.10299,0.0444 0.1632,0.0745 0.16795,0.0792"
       id="path1088" />
    <path
       style="fill:#ffffff;fill-rule:nonzero;stroke:#f1f2f8;stroke-width:0.697669;stroke-linecap:butt;stroke-linejoin:miter;stroke-miterlimit:4;stroke-dasharray:none;stroke-opacity:1"
       d="m 115.12886,37.097375 0.0396,0.0317 h 0.0523 l 0.37076,-0.006 -0.31689,-0.269362 h -0.0523 c -0.11567,0 -0.23133,-0.0021 -0.34858,-0.005 h -0.019 l 0.27569,0.248759 M 107.08606,21.5918 c 0.30422,-0.01 2.82037,-0.0697 4.09745,0.0871 1.04576,0.12676 2.3989,0.58625 2.93128,0.77639 a 11.836032,11.836032 0 0 1 0.78907,0.30739 c 0.24559,0.10774 0.79541,1.23272 1.15667,2.09151 a 1.4735622,1.4735622 0 0 0 -0.50387,0.11408 c -0.14894,0.0745 -0.22182,0.20123 -0.2852,0.31689 -0.0681,0.12201 -0.11884,0.19965 -0.22183,0.22975 -0.36126,0.0412 -5.98931,-1.37374 -8.98397,-3.25768 0.33274,-0.26936 0.67498,-0.49119 1.0204,-0.66231 z m -1.24065,0.8477 c 2.8584,1.83799 8.45635,3.34324 9.2169,3.34324 0.0269,0 0.0475,0 0.0602,-0.006 0.22183,-0.0602 0.31689,-0.22658 0.38978,-0.35967 0.0507,-0.0872 0.0951,-0.164789 0.16637,-0.201229 0.17746,-0.0887 0.47851,-0.0951 0.57992,-0.0887 l 0.21549,0.0111 -0.0824,-0.20123 c -0.14894,-0.3676 -0.91899,-2.22302 -1.37849,-2.43059 -0.12359,-0.0554 -0.38661,-0.15844 -0.72886,-0.2852 0.005,0.0254 0.008,0.0507 0.0127,0.0792 l -0.26936,0.0507 a 4.0245678,4.0245678 0 0 1 -0.0333,-0.22975 c -0.70826,-0.2456 -1.84116,-0.6021 -2.776,-0.71619 -1.37374,-0.16637 -4.05309,-0.0919 -4.16717,-0.0887 l -0.057,0.0159 a 5.7833358,5.7833358 0 0 0 -1.16934,0.76847 l -0.21549,0.18538 a 8.0332908,8.0332908 0 0 0 -1.38008,1.61458 l 0.11091,0.0475 0.14261,0.0666 c 0.0602,-0.0951 0.16637,-0.2456 0.30897,-0.43415 a 7.9540671,7.9540671 0 0 1 1.05684,-1.13924 m 10.41001,8.18223 c -0.49119,0 -1.46247,1.584481 -2.27531,3.08973 l 0.003,0.583092 c 1.17251,-2.230941 2.02813,-3.397121 2.27214,-3.397121 a 61.794543,61.794543 0 0 1 1.60666,0.0317 c 0.008,-0.0523 0.0158,-0.107741 0.0269,-0.158451 l 0.0222,-0.11566 -1.65577,-0.0317 m -2.17073,-2.51298 c -0.30105,0.6528 -0.39612,4.55695 -0.38028,6.11924 l 0.0159,-0.0317 0.25827,-0.486431 c 0.005,-2.07091 0.13468,-5.00694 0.3565,-5.48229 0.0555,-0.11883 0.21866,-0.2139 0.47535,-0.27411 0.88413,-0.21232 2.49871,0.0412 2.99149,0.38027 a 0.80808251,0.80808251 0 0 1 -0.0206,0.38028 c -0.0713,0.29313 -0.3169,1.14082 -0.3169,1.14082 0.30581,-0.38027 0.50228,-0.73836 0.58626,-1.07269 0.0903,-0.36443 0.005,-0.57041 -0.003,-0.59101 l -0.0159,-0.0317 -0.0269,-0.019 c -0.54506,-0.42781 -2.34503,-0.68133 -3.26402,-0.45633 -0.34542,0.0824 -0.56724,0.22658 -0.65756,0.424639"
       id="path1090" />
    <path
       style="fill:#ffffff;fill-rule:nonzero;stroke:#f1f2f8;stroke-width:0.697669;stroke-linecap:butt;stroke-linejoin:miter;stroke-miterlimit:4;stroke-dasharray:none;stroke-opacity:1"
       d="m 118.02211,30.936936 0.0111,-0.275698 c -0.002,0 -0.0475,0 -0.11884,-0.003 l -0.0222,0.115668 -0.0269,0.16161 0.15845,0.0021"
       id="path1092" />
    <path
       style="fill:#ffffff;fill-rule:nonzero;stroke:#f1f2f8;stroke-width:0.697669;stroke-linecap:butt;stroke-linejoin:miter;stroke-miterlimit:4;stroke-dasharray:none;stroke-opacity:1"
       d="m 118.64481,28.549126 c 0.16478,-0.36126 -0.55457,-1.06159 -0.90315,-1.37849 -0.11092,-0.33274 -0.98238,-2.98832 -1.01407,-4.56329 v -0.0634 l -0.0475,-0.0412 c -0.0285,-0.0222 -0.66073,-0.57042 -2.31334,-1.36265 l -0.0856,0.14894 c 0,0 -0.0158,0.0285 -0.0317,0.0998 1.37057,0.65756 2.0313,1.1535 2.20242,1.28342 0.0539,1.72708 0.99505,4.49992 1.03625,4.62034 l 0.0111,0.0364 0.0269,0.0222 a 4.8484951,4.8484951 0 0 1 0.7241,0.78115 c 0.10616,0.14735 0.15528,0.25351 0.13627,0.30105 -0.019,0.038 -0.0475,0.11566 -0.10775,0.36126 -0.10774,0.46266 -0.25668,1.24223 -0.37076,1.85859 l 0.11883,0.003 -0.0111,0.275698 c -0.003,0 -0.0602,-0.003 -0.15845,-0.003 -0.15844,0.846111 -0.30105,1.69855 -0.36759,2.20242 -0.13944,1.04258 0.0903,1.576549 0.19013,1.80313 0.008,0.019 0.0159,0.0349 0.0222,0.0475 -0.0317,0.0713 -0.19013,0.256688 -0.34858,0.415139 l -0.0475,0.0475 0.006,0.0666 c 0.0523,0.467421 0.0666,1.034661 0.005,1.131322 -0.0951,0.0856 -0.87147,0.20598 -2.05032,0.21073 0.0158,0.01109 0.0238,0.0222 0.038,0.0317 l 0.27886,0.23767 c 0.61161,-0.0158 1.7556,-0.0729 1.94891,-0.30739 0.14577,-0.177459 0.10458,-0.842939 0.0602,-1.267579 0.41514,-0.416711 0.39296,-0.54506 0.38344,-0.59418 -0.005,-0.0396 -0.0222,-0.0745 -0.0428,-0.129921 -0.0919,-0.205981 -0.30106,-0.68925 -0.16954,-1.652609 0.0713,-0.533971 0.22657,-1.457722 0.38977,-2.35136 a 48.247279,48.247279 0 0 1 0.39296,-1.95683 2.329179,2.329179 0 0 1 0.0887,-0.31689 M 22.457474,16.213916 c 0,0.34225 0.83502,0.61795 1.86493,0.61795 1.0299,0 1.86492,-0.2757 1.86492,-0.61795 0,-0.34066 -0.83502,-0.61794 -1.86492,-0.61794 -1.02991,0 -1.86493,0.27728 -1.86493,0.61794"
       id="path1094" />
    <path
       style="fill:#ffffff;fill-rule:nonzero;stroke:#f1f2f8;stroke-width:0.697669;stroke-linecap:butt;stroke-linejoin:miter;stroke-miterlimit:4;stroke-dasharray:none;stroke-opacity:1"
       d="m 106.87532,22.280946 3.58092,1.45772 c 0,0 -2.29115,-1.11389 -2.24679,-1.29927 0.0444,-0.18539 1.83166,-0.0238 1.83166,-0.0238 l 0.18379,0.85245 0.12359,0.057 -0.18538,-0.89206 c 0,0 1.86017,0.24401 2.38939,0.50703 0.52921,0.26302 0.25352,0.59735 0.25352,0.59735 0,0 0.64488,0.17112 0.62269,0.53872 -0.0238,0.3676 -0.36918,0.52288 -0.62269,0.46742 l 1.17568,0.48643 a 11.899411,11.899411 0 0 0 0.96653,0.21708 l 0.0158,-0.0982 a 0.66547971,0.66547971 0 0 1 0.59893,-0.55615 h 0.006 c 0,0 -0.45474,-1.24223 -0.83026,-1.50842 -0.37393,-0.26461 -2.14855,-0.93009 -4.72807,-1.15984 -2.57954,-0.22975 -3.13727,0.35334 -3.13727,0.35334 m -19.926346,-1.11389 0.55773,0.003 0.22658,0.297881 0.008,0.0159 -0.3058,0.342251 -4.62667,-0.686081 a 517.12527,517.12527 0 0 1 4.14182,0.0285"
       id="path1096" />
    <path
       style="fill:#ffffff;fill-rule:nonzero;stroke:#f1f2f8;stroke-width:0.697669;stroke-linecap:butt;stroke-linejoin:miter;stroke-miterlimit:4;stroke-dasharray:none;stroke-opacity:1"
       d="m 84.149204,20.384326 1.94891,0.15211 a 0.68132447,0.68132447 0 0 1 0.43097,0.19965 l 0.41988,0.42464 -3.62844,-0.0254 c 0.0317,-0.12359 0.8271,-0.75104 0.8271,-0.75104 m 2.8679,1.61617 -2.91068,-0.0602 a 0.49118742,0.49118742 0 0 1 -0.38028,-0.19014 c -0.13309,-0.16954 -0.31689,-0.41196 -0.38027,-0.53872 l 3.79006,0.5609 c -0.0444,0.10616 -0.0887,0.20282 -0.11883,0.22658"
       id="path1098" />
    <path
       id="path1102"
       d="m 87.739624,21.477616 -4.93405,-0.34225 4.69955,0.0317 z"
       style="fill:#ffffff;fill-rule:nonzero;stroke:#f1f2f8;stroke-width:0.697669;stroke-linecap:round;stroke-linejoin:miter;stroke-miterlimit:4;stroke-dasharray:none;stroke-opacity:1" />
    <path
       id="path1104"
       stroke-linecap="butt"
       d="m 7.2989738,18.015536 c -0.0475,-0.12676 -0.0951,-0.25351 -0.13152,-0.43098 0.4389,-0.19013 0.62746,-0.59734 0.77006,-0.90632 0.0634,-0.13626 0.13468,-0.28837 0.19964,-0.34858 h 0.0364 c 0.87147,0 4.8358302,0.98237 5.8942602,1.43078 -0.3264,0.17905 -0.65439,0.33908 -0.98237,0.47534 l 0.2139,-0.26936 0.26144,-0.34224 -2.48447,-0.5514 -0.0871,0.21866 c -0.19013,0.469 -0.6227,1.28342 -0.98237,1.46247 -0.5418902,0.26936 -1.4830702,0.3676 -1.4925802,0.36918 l -0.11408,0.0111 -0.0444,0.0539 c -0.33274,0.006 -0.64647,0 -0.93484,-0.0127 a 7.9382223,7.9382223 0 0 0 0.0253,-0.39929 c 0.006,-0.34066 -0.0729,-0.55457 -0.14894,-0.76055"
       style="fill:#ffffff;fill-rule:nonzero;stroke:#f1f2f8;stroke-width:0.697669;stroke-linejoin:miter;stroke-miterlimit:4;stroke-dasharray:none;stroke-opacity:1" />
    <path
       style="fill:#f1f2f8;fill-opacity:1;fill-rule:evenodd;stroke:none;stroke-width:0.264583;stroke-linecap:round;stroke-linejoin:round"
       d="m 37.298984,47.915639 c -1.22433,-1.15936 -1.25677,-1.2306 -1.25677,-2.759661 0,-1.470652 0.0693,-1.645682 1.09902,-2.777181 l 1.09903,-1.207622 h 2.68793 c 2.59951,0 2.71132,0.02439 3.39875,0.741961 l 0.71087,0.74196 -0.92012,0.89181 c -0.86963,0.84287 -0.94697,0.86749 -1.40978,0.448659 -0.57991,-0.524798 -2.95193,-0.611489 -3.43779,-0.12564 -0.17463,0.174631 -0.3175,0.746131 -0.3175,1.27 0,0.523884 0.14287,1.095384 0.3175,1.270004 0.48586,0.48586 2.85788,0.39916 3.43779,-0.12564 0.46281,-0.41883 0.54015,-0.39421 1.40978,0.44866 l 0.92012,0.89181 -0.71087,0.74196 c -0.68199,0.71187 -0.81343,0.7419 -3.241,0.74048 l -2.5302,-0.002 z m 10.83831,1.0291 c -0.10385,-0.10386 -0.18883,-1.33433 -0.18883,-2.73437 v -2.545543 l 1.26585,-1.24682 c 1.2534,-1.234549 1.28322,-1.246831 3.02815,-1.246831 1.75694,0 1.76599,0.004 2.96693,1.256771 l 1.20463,1.256771 -0.0656,2.645842 -0.0656,2.64583 h -1.19062 c -1.10218,0 -1.19684,-0.054 -1.27434,-0.7276 -0.0807,-0.70157 -0.1393,-0.72761 -1.63608,-0.72761 -1.4968,0 -1.55535,0.026 -1.63607,0.72761 -0.0741,0.644 -0.20643,0.73663 -1.15166,0.80619 -0.58737,0.0432 -1.15292,-0.006 -1.25677,-0.11024 z m 5.632,-3.982412 c 0,-0.678241 -0.79996,-1.409902 -1.54154,-1.409902 -0.8033,0 -1.63346,0.693182 -1.63346,1.36393 0,0.420251 0.22085,0.488151 1.5875,0.488151 1.30702,0 1.5875,-0.0781 1.5875,-0.442179 z m 6.27425,3.982412 c -0.10385,-0.10386 -0.18883,-1.8954 -0.18883,-3.981203 v -3.792361 h 3.38766 3.38771 l 0.84563,0.87249 c 0.97423,1.005131 1.16189,2.572872 0.40778,3.406162 -0.40746,0.450232 -0.40746,0.517472 0,0.967712 0.26203,0.28956 0.43788,0.93284 0.43788,1.60199 v 1.11814 l -1.25539,-0.0806 c -1.16499,-0.0748 -1.26516,-0.13782 -1.39062,-0.87439 -0.12962,-0.76094 -0.1973,-0.79701 -1.6373,-0.87257 l -1.50209,-0.0788 -0.0839,0.87257 c -0.0782,0.81361 -0.156,0.87788 -1.1518,0.95116 -0.58733,0.0432 -1.15289,-0.006 -1.25676,-0.11024 z m 5.58425,-4.797004 c 0.0797,-0.561258 -0.007,-0.59531 -1.52137,-0.59531 -1.54494,0 -1.60588,0.02561 -1.60588,0.674661 0,0.65414 0.0463,0.672251 1.52136,0.59531 1.34771,-0.0703 1.53101,-0.147291 1.60589,-0.674661 z m 6.39775,0.977691 v -3.983238 l 1.25677,0.0806 1.25677,0.0806 0.0388,2.61284 0.0388,2.612841 1.94556,0.033 1.94553,0.033 0.0806,1.25677 0.0806,1.25677 h -3.32179 -3.32179 z m 9.525,1.199223 v -2.784043 l 1.09204,-1.184708 1.09201,-1.184723 h 1.89448 1.89449 l 1.25696,1.276163 1.25698,1.276159 -0.0763,2.626452 -0.0763,2.62644 -1.25677,0.0806 c -1.24265,0.0797 -1.25677,0.0716 -1.25677,-0.7276 v -0.80825 h -1.7198 -1.71979 v 0.79375 c 0,0.76435 -0.0441,0.79375 -1.19062,0.79375 h -1.19063 z m 5.82084,-1.362322 c 0,-1.289421 -2.11183,-1.90935 -3.0338,-0.890591 -0.81637,0.9021 -0.35171,1.33277 1.43799,1.33277 1.31479,0 1.59581,-0.0779 1.59581,-0.442179 z"
       id="path1919"
       sodipodi:nodetypes="csscsscssssssscscccsscssscccssssssssssssscccsssscssscsssssssscccccccccccccccccccccccsscccssccssss" />
  </g>
</svg>
