<?xml version="1.0" encoding="UTF-8" standalone="no"?>
<svg
   xmlns:dc="http://purl.org/dc/elements/1.1/"
   xmlns:cc="http://creativecommons.org/ns#"
   xmlns:rdf="http://www.w3.org/1999/02/22-rdf-syntax-ns#"
   xmlns:svg="http://www.w3.org/2000/svg"
   xmlns="http://www.w3.org/2000/svg"
   xmlns:sodipodi="http://sodipodi.sourceforge.net/DTD/sodipodi-0.dtd"
   xmlns:inkscape="http://www.inkscape.org/namespaces/inkscape"
   sodipodi:docname="spot.svg"
   inkscape:version="1.0 (4035a4fb49, 2020-05-01)"
   id="svg4416"
   version="1.1"
   viewBox="0 0 90 60"
   height="60mm"
   width="90mm">
  <defs
     id="defs4410" />
  <sodipodi:namedview
     inkscape:window-maximized="1"
     inkscape:window-y="-8"
     inkscape:window-x="-8"
     inkscape:window-height="1017"
     inkscape:window-width="1920"
     showgrid="false"
     inkscape:document-rotation="0"
     inkscape:current-layer="layer1"
     inkscape:document-units="mm"
     inkscape:cy="261.3054"
     inkscape:cx="200.59472"
     inkscape:zoom="1.4"
     inkscape:pageshadow="2"
     inkscape:pageopacity="0.0"
     borderopacity="1.0"
     bordercolor="#666666"
     pagecolor="#ffffff"
     id="base" />
  <metadata
     id="metadata4413">
    <rdf:RDF>
      <cc:Work
         rdf:about="">
        <dc:format>image/svg+xml</dc:format>
        <dc:type
           rdf:resource="http://purl.org/dc/dcmitype/StillImage" />
        <dc:title></dc:title>
      </cc:Work>
    </rdf:RDF>
  </metadata>
  <g
     id="layer1"
     inkscape:groupmode="layer"
     inkscape:label="Katman 1">
    <g
       id="Ebene_x0020_1"
       transform="matrix(0.15732123,0,0,0.15732123,3.5362403,4.9357604)"
       style="fill:none;stroke:#f1f2f8;stroke-width:6.5789;stroke-miterlimit:4;stroke-dasharray:none;stroke-opacity:1">
      <path
         id="path852"
         d="M 90.6,57.5 C 83.5,46.6 82.6,33 84.1,21.1 l 15.1,-6.2 46.3,-5.1 5.8,-6.5 10.3,2.1 6.9,5.1 289.9,-1.7 8.6,-8.2 13.4,5.1 5.5,5.5 8.2,-0.3 26.1,7.5 1.4,5.5 -27.8,66.9 -68.3,1 -42.2,32.2 -22,22.6 -5.8,13.7 6.9,11.7 41.2,30.5 42.9,55.9 26.4,38.8 c 3.5,13.8 -3.9,15.3 -8.9,20.2 l -8.6,1.7 c -8.7,-1.8 -12.9,-6.4 -16.8,-12.7 l -1,-39.8 c -9.7,15.9 -22.2,15 -32.6,3.1 l 3.1,-31.2 -21.6,-31.6 -42.2,-27.8 -25.4,-28.1 -8.2,-10.6 v -6.9 l 5.8,-5.8 8.2,1.4 5.5,-18.5 19.2,-17.8 -55.9,0.3 -30.2,-0.3 -53.3,-6.2 -75.1,-1.4 -61.4,48.8 -4.8,17.8 6.9,10.6 21.6,10 24.4,25 30.9,40.5 18.5,24 -2.4,12 -8.2,6.2 -12.4,-0.3 -8.2,-5.1 1,-32.6 -16.1,-25 -19.9,-20.2 -62.8,-41.5 -3.4,10.3 7.5,12.4 43.2,30.2 47.3,63.1 21.6,27.8 c 0,18.9 -14.8,21.3 -19.6,21.6 -17.2,-2.3 -19.9,-12.3 -15.1,-32.9 0.2,-8.7 -1.5,-17.5 -3.7,-24.4 L 78.6,214.4 25.9,182 C 17.7,173.9 9.6,167.6 3.5,155.7 -1,149.9 1.4,137.9 16.9,140.3 c -0.5,-2.5 4.4,-14.6 6.3,-16.7 9.7,-11.1 20.5,-21.7 35.7,-36 z"
         class="st0"
         style="fill:none;stroke:#f1f2f8;stroke-width:6.5789;stroke-miterlimit:4;stroke-dasharray:none;stroke-opacity:1" />
      <path
         id="path854"
         d="M 183,30.9 C 180.2,24.5 175.7,17.4 169.8,12.2 165.2,8.2 159.6,5.3 153,4.7 120.2,30.4 91.5,58 62.9,85.4 51.9,96 40.8,106.6 29.6,117 l -7.5,8.3 -11.6,34.2 c 0.6,4.6 1.9,7.8 3.5,9.9 1.5,1.8 3.2,2.8 5.1,3.1 1.9,0.3 4,-0.1 5.9,-1 2.9,-1.3 5.6,-3.6 7.4,-6.2 l 8.2,-20.9 0.2,-0.2 C 64.9,125.9 88.8,107.5 112.5,88.8 136.1,70.2 159.6,51.1 183,30.9 Z M 171.1,10.7 c 6.4,5.6 11.1,13.3 14,20.1 l 0.3,0.7 -0.6,0.5 c -23.6,20.3 -47.2,39.7 -71,58.5 -23.8,18.8 -47.6,37.1 -71.5,55.3 l -8,20.5 -0.1,0.1 c -1.9,3 -5,5.6 -8.3,7 -2.3,1 -4.7,1.5 -7,1.1 -2.4,-0.4 -4.6,-1.5 -6.4,-3.8 -1.9,-2.4 -3.4,-6 -4,-11.1 v -0.2 c 3.9,-11.7 7.9,-23.4 11.8,-35.1 2.3,-2.6 5.5,-6.6 7.9,-8.8 C 39.5,105 50.5,94.5 61.5,83.9 90.2,56.4 119,28.8 152.1,3 l 0.3,-0.2 h 0.4 c 7.1,0.4 13.2,3.6 18.3,7.9 z"
         class="st1"
         style="fill:none;stroke:#f1f2f8;stroke-width:6.5789;stroke-miterlimit:4;stroke-dasharray:none;stroke-opacity:1" />
      <path
         id="path856"
         d="M 88.8,58.3 C 86.6,55.1 84,49.6 82.8,41.7 82,36.1 81.9,29.3 83.2,21.1 l 0.1,-0.5 c 5.3,-2.2 10.6,-4.4 16,-6.6 l 45.6,-5 0.2,2 -45.3,5 -14.7,6 c -1.2,7.7 -1.1,14.2 -0.3,19.4 1.1,7.5 3.6,12.7 5.6,15.8 z"
         class="st1"
         style="fill:none;stroke:#f1f2f8;stroke-width:6.5789;stroke-miterlimit:4;stroke-dasharray:none;stroke-opacity:1" />
      <polygon
         id="polygon858"
         points="169.8,11.6 169.7,9.6 458.2,7.8 458.2,9.8 "
         class="st1"
         style="fill:none;stroke:#f1f2f8;stroke-width:6.5789;stroke-miterlimit:4;stroke-dasharray:none;stroke-opacity:1" />
      <path
         id="path860"
         d="m 485.2,9.5 10.2,0.9 c 8.4,2.6 16.8,5.2 25.2,7.8 l 0.2,0.3 c 0.8,1.1 1.2,2.8 1.1,4.9 -0.1,1.7 -0.5,3.6 -1.5,5.5 L 494,92.1 424,93.5 v -2 l 68.7,-1.3 25.9,-62 c 0.8,-1.7 1.2,-3.4 1.3,-4.8 C 520,22 519.7,20.8 519.3,20 L 495,12.4 485,11.5 Z"
         class="st1"
         style="fill:none;stroke:#f1f2f8;stroke-width:6.5789;stroke-miterlimit:4;stroke-dasharray:none;stroke-opacity:1" />
      <path
         id="path862"
         d="M 494.6,30.8 C 493.1,23.2 489.7,16.5 484.8,11.4 480,6.4 474,3.1 467.2,2 l -56,50.7 -9.4,4 -54.6,54.6 c -3,7.8 -5.7,15.1 -8.1,22.4 -2.4,7.3 -4.4,14.4 -6.1,21.8 -0.5,6.9 1.4,10.9 4.4,12.8 1.3,0.8 2.8,1.3 4.3,1.4 1.6,0.1 3.2,-0.1 4.7,-0.5 3.8,-1.1 7.1,-3.9 7.6,-7.2 v -0.1 l 5,-10.9 c 2.1,-6.2 8.6,-12.3 15,-18.4 3.2,-3 6.4,-6 9,-8.9 l 0.1,-0.1 0.1,-0.1 c 20.5,-14.8 39.6,-30.1 58,-45.7 18.1,-15.4 35.8,-31.1 53.4,-47 z m -8.3,-20.7 c 5.2,5.5 8.9,12.7 10.4,20.9 l 0.1,0.5 -0.4,0.4 c -17.8,16 -35.6,31.8 -54,47.5 -18.5,15.6 -37.6,30.9 -58,45.7 -2.7,3 -5.9,6 -9,9 -6.3,5.9 -12.6,11.8 -14.5,17.6 v 0.1 l -4.9,10.7 c -0.6,4 -4.5,7.4 -9,8.7 -1.8,0.5 -3.6,0.7 -5.4,0.6 -1.8,-0.2 -3.6,-0.7 -5.2,-1.7 -3.5,-2.3 -5.9,-6.9 -5.3,-14.7 v -0.1 -0.1 c 1.7,-7.5 3.8,-14.7 6.2,-22 2.4,-7.3 5.2,-14.8 8.2,-22.7 l 0.1,-0.2 55.2,-55.2 9.5,-4.1 56.3,-51 0.5,0.1 c 7.4,1 14,4.6 19.2,10 z"
         class="st1"
         style="fill:none;stroke:#f1f2f8;stroke-width:6.5789;stroke-miterlimit:4;stroke-dasharray:none;stroke-opacity:1" />
      <path
         id="path864"
         d="m 120.7,83.3 68.4,1.4 c 16.4,0.2 32.3,2.1 48,4 13.1,1.6 26.1,3.1 39.3,3.7 h 86.9 v 2 h -86.9 v 0 c -13.3,-0.5 -26.4,-2.1 -39.5,-3.7 -15.7,-1.9 -31.5,-3.8 -47.8,-4 l -68.4,-1.4 z"
         class="st1"
         style="fill:none;stroke:#f1f2f8;stroke-width:6.5789;stroke-miterlimit:4;stroke-dasharray:none;stroke-opacity:1" />
      <path
         id="path866"
         d="m 15.6,141.7 c -1.6,-1.8 -4.2,-2 -6.6,-1.2 -1.2,0.4 -2.4,1.1 -3.5,2 -1,0.9 -1.9,2 -2.5,3.3 -1.5,3.1 -1.4,7.2 2,11.8 l 8.1,10.6 -1.6,1.2 -8.1,-10.6 c -3.9,-5.3 -4,-10.1 -2.2,-13.8 0.7,-1.5 1.8,-2.9 3.1,-4 1.2,-1.1 2.7,-1.9 4.1,-2.4 3.2,-1.1 6.6,-0.6 8.7,1.8 z"
         class="st1"
         style="fill:none;stroke:#f1f2f8;stroke-width:6.5789;stroke-miterlimit:4;stroke-dasharray:none;stroke-opacity:1" />
      <path
         id="path868"
         d="m 19.5,173.2 7.3,7.6 51.7,33.3 0.1,0.1 c 10.3,9.1 19,19.9 27.7,30.7 4.6,5.7 9.1,11.3 13.8,16.7 l 0.1,0.1 0.1,0.2 c 6.1,15.2 4.2,25.9 2.4,36.5 -0.3,1.9 -0.7,3.8 -0.9,5.7 2,9.3 6.6,13.9 11.8,15.4 2.5,0.7 5.1,0.7 7.7,0.2 2.6,-0.5 5.2,-1.7 7.5,-3.2 v 0 c 5.8,-3.8 10,-10.3 9.3,-16.9 l -67.3,-87 C 84.7,207 77.5,201 70,195.4 62,189.4 53.8,183.7 46.4,179.1 L 46.2,179 c -2.8,-4.1 -5.6,-8.2 -8.5,-12.2 l 5,-22.9 2,0.4 -4.8,21.7 7.7,11.2 c 7.4,4.6 15.6,10.3 23.6,16.3 7.5,5.7 14.8,11.7 21,17.4 l 0.1,0.1 c 22.4,29.3 45.1,58.4 67.7,87.6 v 0.3 c 1,7.6 -3.6,14.9 -10.1,19.1 v 0 c -2.5,1.7 -5.3,2.9 -8.2,3.5 -2.9,0.6 -5.8,0.6 -8.6,-0.2 -6,-1.7 -11.2,-6.9 -13.3,-17.1 v -0.2 -0.2 c 0.3,-2 0.6,-3.9 1,-5.9 1.8,-10.3 3.6,-20.7 -2.2,-35.3 -4.7,-5.4 -9.3,-11 -13.8,-16.6 -8.6,-10.7 -17.2,-21.4 -27.4,-30.4 l -51.8,-33.3 -7.5,-7.7 z"
         class="st1"
         style="fill:none;stroke:#f1f2f8;stroke-width:6.5789;stroke-miterlimit:4;stroke-dasharray:none;stroke-opacity:1" />
      <path
         id="path870"
         d="m 135.8,86 -61.9,49.8 -4.3,16 c 3.3,7.5 11.6,12 20,16.6 6.4,3.5 12.8,7 17.5,12 11.8,11.4 22.7,25.9 33.6,40.4 5.4,7.2 10.9,14.5 16.4,21.3 5,6.5 9.9,13.9 14.6,20.6 v 0.3 c -0.4,9.5 -4.6,14.6 -9.8,16.9 -2.3,1 -4.8,1.4 -7.2,1.5 -2.4,0 -4.9,-0.4 -7.1,-1.1 -5,-1.6 -8.7,-4.8 -8.9,-8.3 l 0.9,-29.1 C 132.7,225.7 114.8,208.4 102,196.1 l -0.7,-0.7 C 87.3,188 74.2,179 61.1,170 v 0 c -6.5,-4.5 -13,-9 -19.7,-13.3 l 1.1,-1.7 c 6.6,4.3 13.2,8.8 19.8,13.3 v 0 c 13.1,9 26.2,18 40,25.4 l 0.1,0.1 0.9,0.9 c 12.9,12.5 31.1,30 38.1,47.7 l 0.1,0.2 -0.9,29.4 c 0.1,2.6 3.3,5.1 7.5,6.5 2,0.6 4.2,1 6.4,1 2.2,0 4.4,-0.4 6.5,-1.3 4.5,-2 8.2,-6.5 8.6,-14.9 l -14.2,-20 c -5.5,-6.8 -11,-14.1 -16.5,-21.4 C 128,207.4 117.1,193 105.5,181.7 v 0 c -4.4,-4.7 -10.8,-8.2 -17,-11.6 -8.8,-4.8 -17.5,-9.6 -21,-17.9 l -0.1,-0.3 4.7,-17.3 62.4,-50.2 z"
         class="st1"
         style="fill:none;stroke:#f1f2f8;stroke-width:6.5789;stroke-miterlimit:4;stroke-dasharray:none;stroke-opacity:1" />
      <path
         id="path872"
         d="m 152.3,248.1 c -1,-0.8 -1.9,-1.1 -2.5,-1.1 -0.7,0 -1.3,0.5 -1.8,1.3 -0.6,0.9 -1,2.3 -1.3,3.8 -0.6,3.1 -0.7,6.6 -0.7,8.5 4.3,-2.8 8,-3 12.5,-3.2 -0.2,-0.3 -0.4,-0.6 -0.6,-0.9 -2,-3.2 -5.5,-8.4 -5.6,-8.4 z m -2.5,-3.2 c 1.1,0 2.3,0.5 3.7,1.5 0.1,0.1 4,5.6 6.1,8.8 0.5,0.7 0.8,1.3 1.1,1.7 0.5,0.9 0.6,1.6 0.1,2 -0.2,0.1 -0.4,0.2 -0.6,0.2 l -1.5,0.1 c -4.7,0.2 -8.5,0.3 -13,3.8 l -1.1,0.8 -0.5,-1.2 c -0.1,-0.1 -0.5,-6.3 0.5,-11.1 0.3,-1.7 0.8,-3.3 1.6,-4.4 0.9,-1.3 2,-2.1 3.6,-2.2 z"
         class="st1"
         style="fill:none;stroke:#f1f2f8;stroke-width:6.5789;stroke-miterlimit:4;stroke-dasharray:none;stroke-opacity:1" />
      <path
         id="path874"
         d="m 136.9,280.7 c -1.4,-1.1 -2.6,-1.5 -3.5,-1.5 -1,0 -1.8,0.6 -2.4,1.7 -0.7,1.2 -1.2,2.9 -1.5,4.8 -0.7,4.5 -0.6,9.8 -0.4,12.1 4.5,-1.8 8.1,-2.5 12.1,-3.2 1.5,-0.3 3,-0.6 4.7,-0.9 -0.3,-0.5 -0.8,-1.2 -1.3,-2 -2.9,-4.4 -7.6,-11 -7.7,-11 z m -3.5,-3.6 c 1.3,0 2.9,0.6 4.7,2 v 0 c 0.1,0.1 5.2,7 8.1,11.2 0.6,0.9 1.2,1.7 1.5,2.3 0.6,1 0.8,1.8 0.3,2.3 -0.1,0.1 -0.3,0.2 -0.4,0.2 v 0 c -2.2,0.5 -4.1,0.9 -6,1.2 -4.3,0.8 -8,1.5 -12.9,3.6 l -0.9,0.4 -0.4,-1 c -0.1,-0.2 -0.8,-8 0.2,-14.2 0.4,-2.1 0.9,-4.1 1.8,-5.5 0.9,-1.5 2.2,-2.5 4,-2.5 z"
         class="st1"
         style="fill:none;stroke:#f1f2f8;stroke-width:6.5789;stroke-miterlimit:4;stroke-dasharray:none;stroke-opacity:1" />
      <path
         id="path876"
         d="m 350,94.1 c -3.8,2.7 -7.1,5.3 -10.2,8.2 -3.1,2.9 -5.9,5.9 -8.8,9.4 l -6.2,19.5 -1.1,-0.7 c -2,-1.3 -4.2,-1.6 -6.1,-1.3 -1.5,0.3 -2.8,0.9 -3.9,1.9 -1.1,1 -1.9,2.3 -2.3,3.9 -0.6,2.2 -0.3,5 1.3,8 l 10,10.9 -1.5,1.4 -10.2,-11 -0.1,-0.1 c -1.8,-3.6 -2.2,-6.8 -1.5,-9.5 0.5,-1.9 1.5,-3.6 2.9,-4.9 1.3,-1.3 3,-2.1 4.8,-2.4 2.1,-0.4 4.3,-0.1 6.5,0.9 l 5.5,-17.5 0.1,-0.2 c 3,-3.6 5.9,-6.8 9.1,-9.8 3.2,-3 6.6,-5.7 10.5,-8.4 z"
         class="st1"
         style="fill:none;stroke:#f1f2f8;stroke-width:6.5789;stroke-miterlimit:4;stroke-dasharray:none;stroke-opacity:1" />
      <path
         id="path878"
         d="m 337.8,137.4 -3.8,2.4 -0.6,-0.5 c -1.4,-1.3 -3.1,-1.8 -4.8,-1.7 -1.5,0.1 -3,0.6 -4.3,1.5 -1.3,0.9 -2.5,2.2 -3.3,3.8 -1.1,2.3 -1.5,5.4 -0.4,8.8 l 23.4,26.5 c 11,6.7 21.8,13.8 31.8,21 9.9,7.1 19,14.3 26.7,21.1 l 0.1,0.1 v 0 c 6.3,7.3 15,17.6 22.4,27.1 7.4,9.6 13.4,18.4 14.1,22.4 v 0.1 l 0.7,36.9 c 5.5,8.8 11.9,11.7 17.6,11.2 2.4,-0.2 4.6,-1 6.7,-2.2 2,-1.2 3.9,-2.8 5.3,-4.6 3.4,-4.3 4.8,-9.8 2.6,-14 l -22.2,-32.8 -43.6,-58 c -6.6,-6.7 -18.6,-14.9 -30.1,-22.8 -4.7,-3.2 -9.2,-6.3 -13.4,-9.3 l -0.2,-0.1 -8.3,-12.5 1.7,-1.1 8.1,12.3 c 4,2.9 8.6,6 13.2,9.2 11.5,7.9 23.6,16.2 30.4,23.1 v 0 c 17.2,23 51.9,64.9 66.1,91.1 2.7,4.9 1.2,11.3 -2.7,16.2 -1.6,2 -3.6,3.8 -5.9,5.1 -2.3,1.3 -4.8,2.2 -7.5,2.4 -6.5,0.6 -13.6,-2.6 -19.6,-12.4 l -0.1,-0.2 -0.7,-37.3 c -0.7,-3.7 -6.5,-12.2 -13.7,-21.5 -7.3,-9.4 -16,-19.7 -22.3,-27 -7.6,-6.7 -16.7,-13.8 -26.5,-20.9 -10,-7.2 -20.9,-14.4 -31.8,-21 l -0.1,-0.1 c -8,-9 -15.9,-18 -23.9,-27.1 l -0.1,-0.2 c -1.3,-4.1 -0.9,-7.7 0.4,-10.5 0.9,-1.9 2.3,-3.5 3.9,-4.6 1.6,-1.1 3.5,-1.8 5.3,-1.8 2,-0.1 3.9,0.5 5.6,1.8 l 2.5,-1.6 z"
         class="st1"
         style="fill:none;stroke:#f1f2f8;stroke-width:6.5789;stroke-miterlimit:4;stroke-dasharray:none;stroke-opacity:1" />
      <path
         id="path880"
         d="m 453,279.3 c -0.9,-0.9 -1.9,-1.5 -2.8,-1.7 -0.7,-0.2 -1.5,-0.1 -2.1,0.2 -0.6,0.3 -1.2,0.9 -1.7,1.8 -0.7,1.3 -1,3.2 -0.9,5.7 0,1.3 0,2.7 -0.1,4 -0.2,2.4 -0.3,4.6 0.3,5.5 0.4,0.6 1.4,0.4 3.8,-1.2 1.2,-0.8 3.5,-1.1 5.9,-1.3 2.2,-0.2 4.5,-0.5 5.5,-1.2 0.4,-0.3 0.4,-0.7 -0.1,-1.5 -0.6,-0.8 -2,-2.7 -3.4,-4.7 -2.2,-2.8 -4.3,-5.5 -4.4,-5.6 z m -2.3,-3.7 c 1.3,0.3 2.6,1.1 3.8,2.3 0.2,0.2 2.4,3 4.4,5.8 1.5,2 2.9,3.9 3.5,4.8 1.4,2 1,3.4 -0.4,4.3 -1.4,1 -3.9,1.2 -6.4,1.5 -2.1,0.2 -4.1,0.4 -5,1 -3.6,2.4 -5.5,2.2 -6.5,0.6 -0.9,-1.4 -0.8,-4 -0.6,-6.7 0.1,-1.3 0.2,-2.7 0.1,-3.8 -0.1,-2.9 0.3,-5.1 1.1,-6.7 0.7,-1.3 1.5,-2.2 2.6,-2.7 1,-0.6 2.2,-0.7 3.4,-0.4 z"
         class="st1"
         style="fill:none;stroke:#f1f2f8;stroke-width:6.5789;stroke-miterlimit:4;stroke-dasharray:none;stroke-opacity:1" />
      <path
         id="path882"
         d="m 419,247.8 c -0.8,-0.7 -1.7,-1.1 -2.5,-1.3 -0.7,-0.2 -1.4,-0.1 -2,0.2 -0.6,0.3 -1.1,0.8 -1.5,1.6 -0.4,0.9 -0.7,2.2 -0.6,3.8 0,1 0,2.1 -0.1,3.1 -0.1,1.6 -0.2,3.2 0.1,3.9 0.3,0.5 1.2,0.4 3.4,-0.9 1.1,-0.6 3.1,-0.8 5.2,-1 2.1,-0.2 4.3,-0.4 5.1,-1 0.1,-0.1 0,-0.3 -0.3,-0.6 -0.5,-0.6 -1.7,-2.1 -3.1,-3.5 -1.7,-2.2 -3.6,-4.3 -3.7,-4.3 z m -2.2,-3.3 c 1.2,0.2 2.3,0.8 3.4,1.7 0.2,0.1 2.1,2.3 4,4.4 1.3,1.5 2.6,3 3.1,3.6 1.2,1.5 1,2.6 0,3.4 -1.2,0.9 -3.7,1.2 -6.1,1.4 -1.9,0.2 -3.7,0.3 -4.5,0.8 -3.5,2 -5.3,1.6 -6.1,0.1 -0.7,-1.2 -0.5,-3 -0.4,-5 0.1,-1 0.2,-2 0.1,-2.9 -0.1,-2 0.2,-3.5 0.8,-4.7 0.6,-1.2 1.4,-2.1 2.4,-2.5 1.1,-0.4 2.2,-0.5 3.3,-0.3 z"
         class="st1"
         style="fill:none;stroke:#f1f2f8;stroke-width:6.5789;stroke-miterlimit:4;stroke-dasharray:none;stroke-opacity:1" />
      <path
         id="path884"
         d="m 389.3,209.2 17.8,25.2 v 0.1 c 2.7,4.9 1.5,14.2 0.5,22.3 -0.8,6.5 -1.5,12.3 -0.2,13.9 3,3.1 6.1,5.1 9,6 2.8,0.9 5.4,1 7.9,0.4 v 0 c 2.4,-0.6 4.7,-1.9 6.5,-3.7 2,-1.9 3.6,-4.5 4.6,-7.4 l 1.9,0.6 c -1.1,3.2 -2.8,6 -5.1,8.2 -2.1,2 -4.6,3.5 -7.4,4.2 -2.8,0.7 -5.9,0.6 -9,-0.4 -3.3,-1.1 -6.6,-3.2 -9.9,-6.6 l -0.1,-0.1 c -1.9,-2.3 -1.1,-8.5 -0.3,-15.5 1,-7.8 2.1,-16.7 -0.3,-21.1 l -17.8,-25.2 z"
         class="st1"
         style="fill:none;stroke:#f1f2f8;stroke-width:6.5789;stroke-miterlimit:4;stroke-dasharray:none;stroke-opacity:1" />
      <path
         id="path886"
         d="m 210.5,20.3 h 51.8 c 1.4,0 2.8,0.6 3.7,1.5 v 0 c 1,1 1.5,2.3 1.5,3.7 v 8.2 c 0,1.4 -0.6,2.8 -1.5,3.7 v 0 c -1,1 -2.3,1.5 -3.7,1.5 h -51.8 c -1.4,0 -2.8,-0.6 -3.7,-1.5 -1,-1 -1.5,-2.3 -1.5,-3.7 v -8.2 c 0,-1.4 0.6,-2.8 1.5,-3.7 0.9,-0.9 2.3,-1.5 3.7,-1.5 z m 51.8,2 h -51.8 c -0.9,0 -1.7,0.4 -2.3,1 -0.6,0.6 -1,1.4 -1,2.3 v 8.2 c 0,0.9 0.4,1.7 1,2.3 0.6,0.6 1.4,1 2.3,1 h 51.8 c 0.9,0 1.7,-0.4 2.3,-1 0.6,-0.6 1,-1.4 1,-2.3 v -8.2 c 0,-0.9 -0.4,-1.7 -1,-2.3 -0.6,-0.6 -1.4,-1 -2.3,-1 z"
         class="st1"
         style="fill:none;stroke:#f1f2f8;stroke-width:6.5789;stroke-miterlimit:4;stroke-dasharray:none;stroke-opacity:1" />
      <path
         id="path888"
         d="m 213.8,24.4 h 6.5 c 0.9,0 1.7,0.4 2.2,0.9 0.6,0.6 0.9,1.4 0.9,2.2 v 4.2 c 0,0.9 -0.4,1.7 -0.9,2.2 -0.6,0.6 -1.4,0.9 -2.2,0.9 h -6.5 c -0.9,0 -1.7,-0.4 -2.2,-0.9 -0.6,-0.6 -0.9,-1.4 -0.9,-2.2 v -4.2 c 0,-0.9 0.4,-1.7 0.9,-2.2 0.5,-0.5 1.3,-0.9 2.2,-0.9 z m 6.5,2 h -6.5 c -0.3,0 -0.6,0.1 -0.8,0.3 -0.2,0.2 -0.3,0.5 -0.3,0.8 v 4.2 c 0,0.3 0.1,0.6 0.3,0.8 0.2,0.2 0.5,0.3 0.8,0.3 h 6.5 c 0.3,0 0.6,-0.1 0.8,-0.3 0.2,-0.2 0.3,-0.5 0.3,-0.8 v -4.2 c 0,-0.3 -0.1,-0.6 -0.3,-0.8 -0.2,-0.2 -0.5,-0.3 -0.8,-0.3 z"
         class="st1"
         style="fill:none;stroke:#f1f2f8;stroke-width:6.5789;stroke-miterlimit:4;stroke-dasharray:none;stroke-opacity:1" />
      <path
         id="path890"
         d="m 227.3,24.4 h 5.1 c 0.9,0 1.7,0.4 2.2,0.9 0.6,0.6 0.9,1.4 0.9,2.2 v 4.2 c 0,0.9 -0.4,1.7 -0.9,2.2 -0.6,0.6 -1.4,0.9 -2.2,0.9 h -5.1 c -0.9,0 -1.7,-0.4 -2.2,-0.9 -0.6,-0.6 -0.9,-1.4 -0.9,-2.2 v -4.2 c 0,-0.9 0.4,-1.7 0.9,-2.2 0.6,-0.6 1.4,-0.9 2.2,-0.9 z m 5.1,2 h -5.1 c -0.3,0 -0.6,0.1 -0.8,0.3 -0.2,0.2 -0.3,0.5 -0.3,0.8 v 4.2 c 0,0.3 0.1,0.6 0.3,0.8 0.2,0.2 0.5,0.3 0.8,0.3 h 5.1 c 0.3,0 0.6,-0.1 0.8,-0.3 0.2,-0.2 0.3,-0.5 0.3,-0.8 v -4.2 c 0,-0.3 -0.1,-0.6 -0.3,-0.8 -0.2,-0.2 -0.4,-0.3 -0.8,-0.3 z"
         class="st1"
         style="fill:none;stroke:#f1f2f8;stroke-width:6.5789;stroke-miterlimit:4;stroke-dasharray:none;stroke-opacity:1" />
      <path
         id="path892"
         d="m 239.9,24.4 h 18.6 c 0.9,0 1.7,0.4 2.2,0.9 0.6,0.6 0.9,1.4 0.9,2.2 v 4.2 c 0,0.9 -0.4,1.7 -0.9,2.2 -0.6,0.6 -1.4,0.9 -2.2,0.9 h -18.6 c -0.9,0 -1.7,-0.4 -2.2,-0.9 -0.6,-0.6 -0.9,-1.4 -0.9,-2.2 v -4.2 c 0,-0.9 0.4,-1.7 0.9,-2.2 0.6,-0.6 1.4,-0.9 2.2,-0.9 z m 18.6,2 h -18.6 c -0.3,0 -0.6,0.1 -0.8,0.3 -0.2,0.2 -0.3,0.5 -0.3,0.8 v 4.2 c 0,0.3 0.1,0.6 0.3,0.8 0.2,0.2 0.5,0.3 0.8,0.3 h 18.6 c 0.3,0 0.6,-0.1 0.8,-0.3 0.2,-0.2 0.3,-0.5 0.3,-0.8 v -4.2 c 0,-0.3 -0.1,-0.6 -0.3,-0.8 -0.1,-0.2 -0.4,-0.3 -0.8,-0.3 z"
         class="st1"
         style="fill:none;stroke:#f1f2f8;stroke-width:6.5789;stroke-miterlimit:4;stroke-dasharray:none;stroke-opacity:1" />
      <path
         id="path894"
         d="m 183.2,28.9 12.3,-1.1 c 2.2,-0.8 4.2,-1.7 6.2,-2.7 2,-1.1 4,-2.3 6,-3.9 l 1.2,1.6 c -2.1,1.7 -4.2,3 -6.3,4.1 -2.1,1.1 -4.3,2 -6.6,2.8 h -0.1 l -12.5,1.1 z"
         class="st1"
         style="fill:none;stroke:#f1f2f8;stroke-width:6.5789;stroke-miterlimit:4;stroke-dasharray:none;stroke-opacity:1" />
      <path
         id="path896"
         d="m 265.2,20.9 29,14.3 119.5,-1.3 c 2.1,-0.1 2.5,-5.5 3,-11.4 0.4,-5.2 0.8,-10.9 2.7,-14.4 l 1.8,0.9 c -1.7,3.2 -2.1,8.6 -2.5,13.6 -0.5,6.8 -1,13 -4.9,13.2 -39.9,0 -80.1,0.9 -120,1.4 L 264.3,22.7 c 0,0 0.9,-1.8 0.9,-1.8 z"
         class="st1"
         style="fill:none;stroke:#f1f2f8;stroke-width:6.5789;stroke-miterlimit:4;stroke-dasharray:none;stroke-opacity:1" />
      <polygon
         id="polygon898"
         points="183.7,32.7 183.7,30.7 206.7,30.7 206.7,32.7 "
         class="st1"
         style="fill:none;stroke:#f1f2f8;stroke-width:6.5789;stroke-miterlimit:4;stroke-dasharray:none;stroke-opacity:1" />
      <polygon
         id="polygon900"
         points="266.9,31.3 267.1,29.3 277.2,30.2 308.4,44.2 419.8,42.8 419.9,44.8 308,46.2 276.7,32.2 "
         class="st1"
         style="fill:none;stroke:#f1f2f8;stroke-width:6.5789;stroke-miterlimit:4;stroke-dasharray:none;stroke-opacity:1" />
      <path
         id="path902"
         d="m 181.6,34.4 -0.9,40.7 v 0.1 c -2.2,9.2 -6.7,9.9 -11.7,10.7 -0.3,0.1 -0.6,0.1 -1.2,0.2 l -0.3,-2 1.2,-0.2 c 4.3,-0.7 8.2,-1.3 10.1,-9.1 l 0.9,-40.5 z"
         class="st1"
         style="fill:none;stroke:#f1f2f8;stroke-width:6.5789;stroke-miterlimit:4;stroke-dasharray:none;stroke-opacity:1" />
      <path
         id="path904"
         d="m 489,38.3 1.4,15.6 c -4.9,10.8 -9.8,21.7 -14.7,32.5 l -11.6,6 -0.9,-1.8 10.9,-5.7 14.2,-31.4 -1.3,-15 z"
         class="st1"
         style="fill:none;stroke:#f1f2f8;stroke-width:6.5789;stroke-miterlimit:4;stroke-dasharray:none;stroke-opacity:1" />
      <polygon
         id="polygon906"
         points="119,19.1 119,33.5 117,33.5 117,18.1 126,11.5 127.2,13.1 "
         class="st1"
         style="fill:none;stroke:#f1f2f8;stroke-width:6.5789;stroke-miterlimit:4;stroke-dasharray:none;stroke-opacity:1" />
    </g>
  </g>
</svg>
