<?xml version="1.0" encoding="UTF-8" standalone="no"?>
<svg
   xmlns:dc="http://purl.org/dc/elements/1.1/"
   xmlns:cc="http://creativecommons.org/ns#"
   xmlns:rdf="http://www.w3.org/1999/02/22-rdf-syntax-ns#"
   xmlns:svg="http://www.w3.org/2000/svg"
   xmlns="http://www.w3.org/2000/svg"
   xmlns:sodipodi="http://sodipodi.sourceforge.net/DTD/sodipodi-0.dtd"
   xmlns:inkscape="http://www.inkscape.org/namespaces/inkscape"
   width="200px"
   height="40px"
   viewBox="0 0 200 40"
   version="1.1"
   id="svg2849"
   sodipodi:docname="login-logo.svg"
   inkscape:version="1.0 (4035a4fb49, 2020-05-01)">
  <metadata
     id="metadata2855">
    <rdf:RDF>
      <cc:Work
         rdf:about="">
        <dc:format>image/svg+xml</dc:format>
        <dc:type
           rdf:resource="http://purl.org/dc/dcmitype/StillImage" />
      </cc:Work>
    </rdf:RDF>
  </metadata>
  <defs
     id="defs2853">
    <rect
       id="rect957"
       height="166.41889"
       width="364.80239"
       y="-93.059926"
       x="425.22663" />
    <rect
       id="rect951"
       height="221.21536"
       width="366.83189"
       y="-118.93603"
       x="441.46262" />
    <rect
       id="rect859"
       height="76.763876"
       width="173.28316"
       y="61.147695"
       x="215.23989" />
    <rect
       x="234.15013"
       y="-18.093419"
       width="184.65931"
       height="84.879422"
       id="rect3518" />
    <rect
       x="178.27339"
       y="79.025668"
       width="156.98702"
       height="98.715566"
       id="rect3512" />
  </defs>
  <sodipodi:namedview
     inkscape:document-rotation="0"
     pagecolor="#ffffff"
     bordercolor="#666666"
     borderopacity="1"
     objecttolerance="10"
     gridtolerance="10"
     guidetolerance="10"
     inkscape:pageopacity="0"
     inkscape:pageshadow="2"
     inkscape:window-width="1920"
     inkscape:window-height="1017"
     id="namedview2851"
     showgrid="false"
     inkscape:zoom="3.7582725"
     inkscape:cx="134.8901"
     inkscape:cy="28.605087"
     inkscape:window-x="-8"
     inkscape:window-y="-8"
     inkscape:window-maximized="1"
     inkscape:current-layer="g2517" />
  <!-- Generator: Sketch 54 (76480) - https://sketchapp.com -->
  <title
     id="title2828">logo</title>
  <desc
     id="desc2830">Created with Sketch.</desc>
  <g
     id="页面1"
     stroke="none"
     stroke-width="1"
     fill="none"
     fill-rule="evenodd">
    <g
       id="logo"
       fill-rule="nonzero">
      <g
         id="g932"
         transform="matrix(1.3635379,0,0,1.3635379,-6.2440229,-7.6909327)">
        <g
           transform="matrix(0.38460572,0,0,0.38460572,11.976626,34.211654)"
           id="g2517">
          <path
             id="path2494"
             d="m 28.265974,-16.243453 a 3.4451742,3.4451742 0 0 1 -2.605525,1.3193 l -1.735811,9.4976108 11.032919,-0.014986 c 5.142356,-0.007 8.442475,-0.049201 10.049515,-0.1276408 a 3.4451747,3.4451747 0 0 1 0.05684,-0.5302001 z"
             style="fill:#80e5ff;fill-opacity:1;stroke-width:0.264583" />
          <path
             id="path2492"
             d="m 22.446175,-16.87959 -25.5462442,9.3524009 a 3.4451747,3.4451747 0 0 1 -0.3963582,1.5823324 c 0.1868701,0.0469 0.3943067,0.094994 0.6330362,0.1462442 1.0799817,0.2319504 5.0738028,0.3346664 13.6275922,0.3503663 l 11.697993,0.021704 1.782838,-9.7539268 a 3.4451742,3.4451742 0 0 1 -1.798857,-1.699121 z"
             style="fill:#2ad4ff;fill-opacity:1;stroke-width:0.264583" />
          <path
             id="path2490"
             d="m 38.620898,-27.413831 -9.976136,7.526156 a 3.4451742,3.4451742 0 0 1 0.353984,1.520321 3.4451742,3.4451742 0 0 1 -0.100251,0.825273 l 16.726627,10.1006748 a 3.4451747,3.4451747 0 0 1 1.95647,-1.3627076 L 41.095165,-26.777693 a 3.4451747,3.4451747 0 0 1 -0.440799,0.02894 3.4451747,3.4451747 0 0 1 -2.033468,-0.665075 z"
             style="fill:#80e5ff;fill-opacity:1;stroke-width:0.264583" />
          <path
             id="path2488"
             d="m 13.579016,-27.861866 a 3.4451739,3.4451739 0 0 1 -1.853117,0.541052 3.4451739,3.4451739 0 0 1 -1.7719847,-0.490924 L -3.891752,-9.7466919 a 3.4451747,3.4451747 0 0 1 0.4940266,0.7963339 l 25.5069704,-9.337931 a 3.4451742,3.4451742 0 0 1 -0.001,-0.07906 3.4451742,3.4451742 0 0 1 0.513663,-1.809192 z"
             style="fill:#2ad4ff;fill-opacity:1;stroke-width:0.264583" />
          <path
             id="path2486"
             d="m 43.30175,-27.990022 a 3.4451747,3.4451747 0 0 1 -0.850077,0.734838 l 6.640938,18.4004274 a 3.4451747,3.4451747 0 0 1 2.803446,3.3842896 3.4451747,3.4451747 0 0 1 -5.29e-4,0.024289 c 0.47739,0.006 1.094076,-0.00597 1.86862,-0.036174 2.664642,-0.1043101 3.399197,-0.2365613 5.143357,-0.9244915 3.966096,-1.56431 6.812063,-4.1626295 8.720915,-7.9623045 0.760862,-1.514541 1.076187,-2.442161 0.979784,-2.928503 z"
             style="fill:#80e5ff;fill-opacity:1;stroke-width:0.264583" />
          <path
             id="path2484"
             d="m 8.4801024,-29.612664 -23.2611124,2.755906 a 3.4451747,3.4451747 0 0 1 -3.386873,2.814298 3.4451747,3.4451747 0 0 1 -0.205155,-0.0062 l 0.112654,0.975651 c 0.60904,5.273857 3.127815,9.927932 7.184574,13.2741253 0.47728,0.3936899 0.942379,0.7497948 1.3151656,1.0133748 a 3.4451747,3.4451747 0 0 1 3.2158244,-2.2091681 3.4451747,3.4451747 0 0 1 1.523938,0.356051 l 13.9190467,-18.16065 a 3.4451739,3.4451739 0 0 1 -0.4180623,-0.813388 z"
             style="fill:#2ad4ff;fill-opacity:1;stroke-width:0.264583" />
          <path
             id="path2482"
             d="m 14.975313,-29.620413 a 3.4451739,3.4451739 0 0 1 -0.368453,0.743624 l 9.011853,7.65948 a 3.4451742,3.4451742 0 0 1 1.934766,-0.595313 3.4451742,3.4451742 0 0 1 2.2009,0.7953 l 9.905338,-7.473961 a 3.4451747,3.4451747 0 0 1 -0.319879,-0.765328 z"
             style="fill:#00ccff;fill-opacity:1;stroke-width:0.264583" />
          <path
             id="path2480"
             d="m 60.186506,-36.102705 a 3.4451747,3.4451747 0 0 1 -2.759004,1.382345 3.4451747,3.4451747 0 0 1 -2.487705,-1.061434 l -10.851533,5.311304 a 3.4451747,3.4451747 0 0 1 0.01138,0.276468 3.4451747,3.4451747 0 0 1 -0.127125,0.926042 l 25.036717,10.577648 c 0.292711,-0.812398 0.425791,-2.534715 0.273367,-4.24987 -0.192841,-2.170019 -1.336939,-5.562712 -2.4722,-7.331851 -1.234149,-1.923251 -4.276402,-4.675309 -6.237862,-5.642549 -0.146664,-0.0723 -0.262834,-0.128424 -0.386024,-0.188103 z"
             style="fill:#80e5ff;fill-opacity:1;stroke-width:0.264583" />
          <path
             id="path2478"
             d="m -1.5869832,-44.43863 c -0.2869957,0.05778 -0.6404727,0.132826 -1.1415324,0.238228 -6.7276,1.415201 -12.1827134,6.151917 -14.3763834,12.482959 l -0.30179,0.870231 a 3.4451747,3.4451747 0 0 1 2.586405,2.546614 l 23.112801,-2.73885 a 3.4451739,3.4451739 0 0 1 0.6304524,-1.728578 z"
             style="fill:#5162ff;fill-opacity:1;stroke-width:0.264583" />
          <path
             id="path2476"
             d="m 24.842928,-47.028652 a 3.4451747,3.4451747 0 0 1 -1.895492,0.568438 3.4451747,3.4451747 0 0 1 -1.056266,-0.166396 l -7.873421,13.288594 a 3.4451739,3.4451739 0 0 1 1.140499,2.281513 l 22.088058,0.359669 a 3.4451747,3.4451747 0 0 1 0.571023,-1.452107 z"
             style="fill:#00ccff;fill-opacity:1;stroke-width:0.264583" />
          <path
             id="path2474"
             d="m 19.904211,-48.292141 -19.24068562,4.202327 9.32139472,10.350788 a 3.4451739,3.4451739 0 0 1 1.7409789,-0.472321 3.4451739,3.4451739 0 0 1 1.041797,0.161229 l 7.876522,-13.294278 a 3.4451747,3.4451747 0 0 1 -0.740007,-0.947745 z"
             style="fill:#5162ff;fill-opacity:1;stroke-width:0.264583" />
          <path
             id="path2472"
             d="m 48.141762,-48.928795 c -1.01859,-0.005 -2.279755,0.139854 -2.801895,0.321943 l -0.549836,0.191719 -2.597774,15.138612 a 3.4451747,3.4451747 0 0 1 1.474327,1.411282 l 10.514605,-5.146455 a 3.4451747,3.4451747 0 0 1 -0.198956,-1.153935 3.4451747,3.4451747 0 0 1 2.827734,-3.38894 c -0.834591,-4.208579 -4.500374,-7.353977 -8.668205,-7.374226 z"
             style="fill:#00ccff;fill-opacity:1;stroke-width:0.264583" />
          <path
             id="path2470"
             d="m 26.251627,-48.929829 a 3.4451747,3.4451747 0 0 1 -0.396875,0.873331 l 13.009026,14.918986 a 3.4451747,3.4451747 0 0 1 1.790588,-0.501777 3.4451747,3.4451747 0 0 1 0.140042,0.0031 l 2.399855,-13.985708 z"
             style="fill:#00ccff;fill-opacity:1;stroke-width:0.264583" />
          <path
             id="path2468"
             d="m 12.1729,-61.306334 c -0.372996,0.18623 -1.197446,0.643166 -2.067574,1.151351 -2.5492616,1.48885 -6.0716534,5.080717 -7.5695635,7.718909 -1.18305,2.083649 -2.67135592,5.951135 -2.67735592,6.959264 -1.8643e-4,0.03432 0.001097,0.0603 0.00155,0.09043 L 19.510437,-49.678621 a 3.4451747,3.4451747 0 0 1 -0.0078,-0.226859 3.4451747,3.4451747 0 0 1 0.806152,-2.214335 z"
             style="fill:#5162ff;fill-opacity:1;stroke-width:0.264583" />
          <path
             id="path2466"
             d="m 31.052367,-61.642749 -5.626529,9.344134 a 3.4451747,3.4451747 0 0 1 0.936377,1.934765 l 16.996378,1.312064 c -0.120621,-0.297926 -0.293081,-0.708996 -0.517281,-1.215946 -1.938981,-4.3844 -6.026013,-8.640955 -10.410733,-10.843265 -0.726035,-0.364665 -1.118227,-0.527664 -1.378212,-0.531752 z"
             style="fill:#5162ff;fill-opacity:1;stroke-width:0.264583" />
          <path
             id="path1039-3-1"
             d="m 22.580534,-63.559427 c -1.114532,-0.01839 -2.400351,0.0443 -3.326412,0.173117 -1.994082,0.277365 -5.039754,1.134424 -5.628081,1.551326 l 7.819678,8.829434 a 3.4451747,3.4451747 0 0 1 1.501717,-0.345197 3.4451747,3.4451747 0 0 1 1.283126,0.248047 l 5.523178,-9.172051 c -1.043737,-0.423788 -4.245017,-1.089319 -6.135027,-1.238684 -0.313751,-0.02479 -0.66667,-0.03989 -1.038179,-0.04599 z"
             style="fill:#5162ff;fill-opacity:1;stroke-width:0.264583" />
          <path
             d="m 93.401243,-49.96144 q 7.873997,0 12.090397,2.794 4.2164,2.7432 4.2164,9.0424 0,6.35 -4.2672,9.1948 -4.2672,2.794 -12.191997,2.794 h -2.4892 v 11.7856 h -7.9248 v -34.6964 q 2.5908,-0.508 5.4864,-0.7112 2.8956,-0.2032 5.08,-0.2032 z m 0.508,6.7564 q -0.8636,0 -1.7272,0.0508 -0.8128,0.0508 -1.4224,0.1016 v 10.16 h 2.4892 q 4.1148,0 6.1976,-1.1176 2.082797,-1.1176 2.082797,-4.1656 0,-1.4732 -0.5588,-2.4384 -0.508,-0.9652 -1.523997,-1.524 -0.9652,-0.6096 -2.3876,-0.8128 -1.4224,-0.254 -3.1496,-0.254 z"
             style="font-style:normal;font-variant:normal;font-weight:bold;font-stretch:normal;font-size:50.8px;line-height:1.25;font-family:Ubuntu;-inkscape-font-specification:Ubuntu;fill:#ffffff;fill-opacity:1;stroke:none;stroke-width:0.264583"
             id="path970" />
          <path
             d="m 125.88943,-49.96144 q 7.9248,0 12.1412,2.8448 4.2164,2.794 4.2164,8.7376 0,3.7084 -1.7272,6.0452 -1.6764,2.286 -4.8768,3.6068 1.0668,1.3208 2.2352,3.048 1.1684,1.6764 2.286,3.556 1.1684,1.8288 2.2352,3.8608 1.0668,1.9812 1.9812,3.9116 h -8.89 q -0.9652,-1.7272 -1.9812,-3.5052 -0.9652,-1.778 -2.032,-3.4544 -1.016,-1.6764 -2.032,-3.1496 -1.016,-1.524 -2.032,-2.7432 h -3.9116 v 12.8524 h -7.9248 v -34.6964 q 2.5908,-0.508 5.334,-0.7112 2.794,-0.2032 4.9784,-0.2032 z m 0.4572,6.7564 q -0.8636,0 -1.5748,0.0508 -0.6604,0.0508 -1.27,0.1016 v 9.5504 h 2.2352 q 4.4704,0 6.4008,-1.1176 1.9304,-1.1176 1.9304,-3.81 0,-2.5908 -1.9812,-3.6576 -1.9304,-1.1176 -5.7404,-1.1176 z"
             style="font-style:normal;font-variant:normal;font-weight:bold;font-stretch:normal;font-size:50.8px;line-height:1.25;font-family:Ubuntu;-inkscape-font-specification:Ubuntu;fill:#ffffff;fill-opacity:1;stroke:none;stroke-width:0.264583"
             id="path972" />
          <path
             d="m 155.27167,-31.97824 q 0,2.5908 0.6096,4.6736 0.6604,2.0828 1.8288,3.6068 1.2192,1.4732 2.9464,2.286 1.7272,0.8128 3.9624,0.8128 2.1844,0 3.9116,-0.8128 1.778,-0.8128 2.9464,-2.286 1.2192,-1.524 1.8288,-3.6068 0.6604,-2.0828 0.6604,-4.6736 0,-2.5908 -0.6604,-4.6736 -0.6096,-2.1336 -1.8288,-3.6068 -1.1684,-1.524 -2.9464,-2.3368 -1.7272,-0.8128 -3.9116,-0.8128 -2.2352,0 -3.9624,0.8636 -1.7272,0.8128 -2.9464,2.3368 -1.1684,1.4732 -1.8288,3.6068 -0.6096,2.0828 -0.6096,4.6228 z m 26.8732,0 q 0,4.5212 -1.3716,7.9756 -1.3208,3.4036 -3.6576,5.7404 -2.3368,2.286 -5.588,3.4544 -3.2004,1.1684 -6.9088,1.1684 -3.6068,0 -6.8072,-1.1684 -3.2004,-1.1684 -5.588,-3.4544 -2.3876,-2.3368 -3.7592,-5.7404 -1.3716,-3.4544 -1.3716,-7.9756 0,-4.5212 1.4224,-7.9248 1.4224,-3.4544 3.81,-5.7912 2.4384,-2.3368 5.588,-3.5052 3.2004,-1.1684 6.7056,-1.1684 3.6068,0 6.8072,1.1684 3.2004,1.1684 5.588,3.5052 2.3876,2.3368 3.7592,5.7912 1.3716,3.4036 1.3716,7.9248 z"
             style="font-style:normal;font-variant:normal;font-weight:bold;font-stretch:normal;font-size:50.8px;line-height:1.25;font-family:Ubuntu;-inkscape-font-specification:Ubuntu;fill:#ffffff;fill-opacity:1;stroke:none;stroke-width:0.264583"
             id="path974" />
          <path
             d="m 197.8762,-14.35064 q -2.0828,-4.4196 -4.1148,-9.1948 -2.032,-4.7752 -3.8608,-9.4488 -1.8288,-4.6736 -3.4036,-8.9408 -1.524,-4.2672 -2.6416,-7.62 h 8.7376 q 1.016,3.048 2.1844,6.604 1.2192,3.5052 2.4384,7.0104 1.27,3.5052 2.4384,6.7056 1.1684,3.2004 2.1844,5.5372 0.9652,-2.3368 2.1336,-5.5372 1.2192,-3.2004 2.4384,-6.7056 1.27,-3.5052 2.4384,-7.0104 1.2192,-3.556 2.2352,-6.604 h 8.4328 q -1.1684,3.3528 -2.6924,7.62 -1.524,4.2672 -3.3528,8.9408 -1.8288,4.6736 -3.8608,9.4488 -2.032,4.7752 -4.1148,9.1948 z"
             style="font-style:normal;font-variant:normal;font-weight:bold;font-stretch:normal;font-size:50.8px;line-height:1.25;font-family:Ubuntu;-inkscape-font-specification:Ubuntu;fill:#ffffff;fill-opacity:1;stroke:none;stroke-width:0.264583"
             id="path976" />
          <path
             d="m 225.89426,-14.371362 v -35.204399 h 23.7744 v 6.6548 h -15.8496 v 6.9088 h 14.0716 v 6.502399 h -14.0716 v 8.4836 h 17.018 v 6.6548 z"
             style="font-style:normal;font-variant:normal;font-weight:bold;font-stretch:normal;font-size:50.8px;line-height:1.25;font-family:Ubuntu;-inkscape-font-specification:Ubuntu;opacity:0.6;fill:#f9f9f9;fill-opacity:0.79;stroke:none;stroke-width:0.264583"
             id="path961" />
          <path
             d="m 264.57687,-20.822962 q 0.5588,0.0508 1.27,0.1016 0.762,0 1.778,0 5.9436,0 8.7884,-2.9972 2.8956,-2.9972 2.8956,-8.280399 0,-5.5372 -2.7432,-8.382 -2.7432,-2.8448 -8.6868,-2.8448 -0.8128,0 -1.6764,0.0508 -0.8636,0 -1.6256,0.1016 z m 22.9108,-11.175999 q 0,4.571999 -1.4224,7.975599 -1.4224,3.4036 -4.064,5.6388 -2.5908,2.2352 -6.35,3.3528 -3.7592,1.1176 -8.4328,1.1176 -2.1336,0 -4.9784,-0.2032 -2.8448,-0.1524 -5.588,-0.7112 v -34.289999 q 2.7432,-0.508 5.6896,-0.6604 2.9972,-0.2032 5.1308,-0.2032 4.5212,0 8.1788,1.016 3.7084,1.016 6.35,3.2004 2.6416,2.1844 4.064,5.588 1.4224,3.4036 1.4224,8.1788 z"
             style="font-style:normal;font-variant:normal;font-weight:bold;font-stretch:normal;font-size:50.8px;line-height:1.25;font-family:Ubuntu;-inkscape-font-specification:Ubuntu;opacity:0.6;fill:#f9f9f9;fill-opacity:0.79;stroke:none;stroke-width:0.264583"
             id="path963" />
          <path
             d="m 311.22795,-43.479761 q -5.5372,0 -8.0264,3.0988 -2.4384,3.048 -2.4384,8.382 0,2.590799 0.6096,4.724399 0.6096,2.0828 1.8288,3.6068 1.2192,1.524 3.048,2.3876 1.8288,0.8128 4.2672,0.8128 1.3208,0 2.2352,-0.0508 0.9652,-0.0508 1.6764,-0.2032 v -12.242799 h 7.9248 v 17.424399 q -1.4224,0.5588 -4.572,1.1684 -3.1496,0.6604 -7.7724,0.6604 -3.9624,0 -7.2136,-1.2192 -3.2004,-1.2192 -5.4864,-3.556 -2.286,-2.3368 -3.556,-5.7404 -1.2192,-3.4036 -1.2192,-7.772399 0,-4.4196 1.3716,-7.8232 1.3716,-3.4036 3.7592,-5.7404 2.3876,-2.3876 5.588,-3.6068 3.2512,-1.2192 6.9088,-1.2192 2.4892,0 4.4704,0.3556 2.032,0.3048 3.4544,0.762 1.4732,0.4064 2.3876,0.8636 0.9652,0.4572 1.3716,0.7112 l -2.286,6.35 q -1.6256,-0.8636 -3.7592,-1.4732 -2.0828,-0.6604 -4.572,-0.6604 z"
             style="font-style:normal;font-variant:normal;font-weight:bold;font-stretch:normal;font-size:50.8px;line-height:1.25;font-family:Ubuntu;-inkscape-font-specification:Ubuntu;opacity:0.6;fill:#f9f9f9;fill-opacity:0.79;stroke:none;stroke-width:0.264583"
             id="path965" />
          <path
             d="m 329.67707,-14.371362 v -35.204399 h 23.7744 v 6.6548 h -15.8496 v 6.9088 h 14.0716 v 6.502399 h -14.0716 v 8.4836 h 17.018 v 6.6548 z"
             style="font-style:normal;font-variant:normal;font-weight:bold;font-stretch:normal;font-size:50.8px;line-height:1.25;font-family:Ubuntu;-inkscape-font-specification:Ubuntu;opacity:0.6;fill:#f9f9f9;fill-opacity:0.79;stroke:none;stroke-width:0.264583"
             id="path967" />
          <text
             style="fill:black;fill-opacity:1;line-height:1.25;stroke:none;font-family:sans-serif;font-style:normal;font-weight:normal;font-size:76.27409064px;white-space:pre;shape-inside:url(#rect951);"
             id="text949"
             xml:space="preserve" />
          <text
             style="fill:black;fill-opacity:1;line-height:1.25;stroke:none;font-family:sans-serif;font-style:normal;font-weight:normal;font-size:76.27409064px;white-space:pre;shape-inside:url(#rect957);"
             id="text955"
             xml:space="preserve" />
        </g>
      </g>
    </g>
  </g>
</svg>
