<?xml version="1.0" encoding="UTF-8" standalone="no"?>
<svg
   xmlns:dc="http://purl.org/dc/elements/1.1/"
   xmlns:cc="http://creativecommons.org/ns#"
   xmlns:rdf="http://www.w3.org/1999/02/22-rdf-syntax-ns#"
   xmlns:svg="http://www.w3.org/2000/svg"
   xmlns="http://www.w3.org/2000/svg"
   xmlns:sodipodi="http://sodipodi.sourceforge.net/DTD/sodipodi-0.dtd"
   xmlns:inkscape="http://www.inkscape.org/namespaces/inkscape"
   sodipodi:docname="jackal.svg"
   inkscape:version="1.0 (4035a4fb49, 2020-05-01)"
   id="svg5056"
   version="1.1"
   viewBox="0 0 108 75"
   height="75mm"
   width="108mm">
  <defs
     id="defs5050" />
  <sodipodi:namedview
     inkscape:window-maximized="0"
     inkscape:window-y="0"
     inkscape:window-x="78"
     inkscape:window-height="1040"
     inkscape:window-width="1283"
     showgrid="false"
     inkscape:document-rotation="0"
     inkscape:current-layer="layer1"
     inkscape:document-units="mm"
     inkscape:cy="560"
     inkscape:cx="400"
     inkscape:zoom="0.35"
     inkscape:pageshadow="2"
     inkscape:pageopacity="0.0"
     borderopacity="1.0"
     bordercolor="#666666"
     pagecolor="#ffffff"
     id="base" />
  <metadata
     id="metadata5053">
    <rdf:RDF>
      <cc:Work
         rdf:about="">
        <dc:format>image/svg+xml</dc:format>
        <dc:type
           rdf:resource="http://purl.org/dc/dcmitype/StillImage" />
        <dc:title></dc:title>
      </cc:Work>
    </rdf:RDF>
  </metadata>
  <g
     id="layer1"
     inkscape:groupmode="layer"
     inkscape:label="Katman 1">
    <path
       style="fill:#f1f2f8;fill-opacity:1;stroke:#f1f2f8;stroke-width:0.963999;stroke-miterlimit:4;stroke-dasharray:none;stroke-opacity:1"
       d="m 25.573468,69.38317 c -2.127901,-0.32498 -4.743861,-1.30918 -6.923761,-2.6049 -2.19173,-1.30275 -5.40004,-4.61721 -6.85663,-7.08347 -3.4486398,-5.83915 -3.4009388,-13.61965 0.119351,-19.46566 0.50849,-0.84444 0.92453,-1.64356 0.92453,-1.77582 0,-0.13226 -0.42352,-0.21195 -0.941161,-0.1771 -1.165429,0.0785 -1.32856,-0.1731 -1.213119,-1.87092 l 0.0915,-1.3465 h 1.031359 c 0.74063,0 1.031371,-0.11172 1.031371,-0.39632 0,-0.21798 0.11889,-0.39633 0.26421,-0.39633 0.14532,0 0.264219,-0.45486 0.264219,-1.0108 0,-0.71703 -0.179,-1.17897 -0.61588,-1.5894 l -0.61588,-0.57859 -0.48194,0.53254 c -0.26506,0.29289 -0.61,0.53254 -0.76652,0.53254 -0.15653,0 -1.4441098,1.15516 -2.8612898,2.56703 -2.02976,2.02212 -2.64523,2.4985 -2.89954,2.24418 -0.35243,-0.35244 -0.20816,-0.51602 5.1351598,-5.8228 1.56143,-1.55075 2.83958,-2.96817 2.84032,-3.14982 10e-4,-0.2407 -0.666869,-0.33027 -2.46264,-0.33027 -2.2266498,0 -2.5187698,-0.0583 -3.0326298,-0.60528 l -0.56863,-0.60528 2.6272,-2.61733 c 2.4826398,-2.47333 2.6858398,-2.61605 3.6931598,-2.5939 l 1.06597,0.0234 v -1.25583 -1.25583 l 1.4767,-0.5651 c 2.78914,-1.06735 7.850361,-0.58452 8.8985,0.84889 0.27883,0.38133 0.678971,0.44746 2.312971,0.38225 l 1.975809,-0.0788 0.20808,-6.07696 c 0.21546,-6.2924095 0.391421,-7.3666595 1.181961,-7.2159995 0.39092,0.0745 0.48402,0.52076 0.62402,2.99124 0.0905,1.5970195 0.179671,4.5979595 0.19816,6.6687495 l 0.0336,3.76508 h 6.341182 c 6.07314,0 6.341179,0.0214 6.341179,0.50641 0,0.27853 -0.139941,0.55306 -0.310989,0.61008 -0.171051,0.057 -0.22348,0.24527 -0.116523,0.41834 0.144921,0.23448 2.749352,0.31468 10.219088,0.31468 8.73462,0 10.02462,-0.051 10.02462,-0.39633 0,-0.32293 -0.44037,-0.39632 -2.37795,-0.39632 -2.2018,0 -2.37794,-0.0391 -2.37794,-0.52843 0,-0.52314 0.17614,-0.52843 17.58972,-0.52843 16.60968,0 17.58481,0.0258 17.50128,0.46238 -0.0754,0.39413 -0.45145,0.47362 -2.54804,0.53859 -1.78181,0.0552 -2.43034,0.16443 -2.3534,0.39632 0.0725,0.21846 1.02608,0.34367 3.00315,0.39431 l 2.89695,0.0742 3.26221,3.27006 c 2.296495,2.30203 3.214405,3.39464 3.100725,3.69087 -0.24144,0.62919 -0.85241,0.50858 -1.36177,-0.2688 l -0.451855,-0.68961 -0.97681,0.95382 c -1.20876,1.18031 -2.19632,1.25523 -3.24922,0.2465 -0.40606,-0.38903 -0.82303,-0.62259 -0.92661,-0.51901 -0.10357,0.10357 1.63624,2.01572 3.86624,4.24923 2.876945,2.88141 4.007615,4.18328 3.892885,4.48224 -0.0889,0.23174 -0.25693,0.42136 -0.37335,0.42136 -0.11643,0 -1.3365,-1.12953 -2.711305,-2.51006 -1.37478,-1.38053 -2.63214,-2.51005 -2.79415,-2.51005 -0.16198,0 -0.50663,-0.23436 -0.76585,-0.5208 -0.46746,-0.51655 -0.47534,-0.51567 -0.9657,0.10773 -0.41628,0.52921 -0.4944,1.09659 -0.4944,3.59078 0,2.91066 0.0159,2.98835 0.91081,4.46157 1.92976,3.17672 2.89157,6.62577 2.87995,10.3274 -0.0236,7.50039 -4.15299,14.17151 -10.78573,17.42442 -3.25845,1.59805 -4.92793,1.92907 -9.12038,1.80832 -3.02501,-0.0871 -3.88128,-0.21145 -5.6202,-0.81595 -2.16432,-0.75237 -4.74831,-2.20079 -6.54098,-3.66647 -1.50169,-1.22776 -4.0206,-4.61028 -4.7579,-6.38915 l -0.61822,-1.49156 h -6.83446 -6.834486 l -0.40131,0.96048 c -1.956191,4.68181 -6.96528,9.08147 -12.272161,10.77906 -2.33476,0.74685 -6.151859,1.03595 -8.64689,0.6549 z m 4.11198,-1.48617 c -0.39702,-0.0603 -1.110401,-0.0615 -1.585291,-0.003 -0.47489,0.0588 -0.15005,0.10813 0.72186,0.1096 0.87191,0.002 1.26046,-0.0466 0.863431,-0.10691 z m 49.936797,0 c -0.39702,-0.0603 -1.11041,-0.0615 -1.5853,-0.003 -0.47488,0.0588 -0.15005,0.10813 0.72187,0.1096 0.87191,0.002 1.26045,-0.0466 0.86343,-0.10691 z M 23.410377,67.02762 c -1.40274,-0.47713 -2.30611,-0.51567 -1.03224,-0.044 0.34712,0.12852 0.80948,0.3008 1.02745,0.38286 0.21798,0.082 0.63412,0.15024 0.92476,0.15152 0.29064,0.001 -0.123349,-0.21938 -0.91997,-0.49035 z m 3.1658,0.16422 c 0,-0.20103 -0.23779,-0.42768 -0.52843,-0.50369 -0.39196,-0.1025 -0.52843,-0.008 -0.52843,0.3655 0,0.32755 0.1848,0.50371 0.52843,0.50371 0.29064,0 0.52843,-0.16449 0.52843,-0.36552 z m 5.354191,0.20757 c 0.0869,-0.0869 0.0968,-0.31715 0.0222,-0.51174 -0.16946,-0.4416 -0.884679,-0.19776 -0.884679,0.30163 0,0.36881 0.565941,0.50668 0.862509,0.21011 z m 3.23283,-0.38275 c 0.435949,-0.17321 0.673749,-0.36012 0.528429,-0.41533 -0.14532,-0.0552 -0.8587,0.14253 -1.585288,0.43942 -0.927751,0.3791 -1.085091,0.50274 -0.528442,0.41533 0.435959,-0.0685 1.149339,-0.26622 1.585301,-0.43942 z m 38.200367,-0.006 c -0.7876,-0.27956 -1.48775,-0.45255 -1.55588,-0.38442 -0.0681,0.0681 0.16013,0.22904 0.50725,0.35755 0.34712,0.12853 0.80947,0.3008 1.02745,0.38286 0.21798,0.082 0.63412,0.14989 0.92476,0.15075 0.29063,7.9e-4 -0.11598,-0.22718 -0.90358,-0.50674 z m 3.14941,0.17885 c 0,-0.20243 -0.17834,-0.4365 -0.39632,-0.52014 -0.21798,-0.0836 -0.39633,-0.10609 -0.39633,-0.0499 0,0.0562 -0.0722,0.29027 -0.16037,0.52014 -0.11497,0.2996 -0.003,0.41793 0.39632,0.41793 0.30619,0 0.5567,-0.16563 0.5567,-0.36806 z m 5.54853,0.0158 c 0,-0.49697 -0.25426,-0.69182 -0.68637,-0.52601 -0.562,0.21566 -0.44284,0.87828 0.15794,0.87828 0.29064,0 0.52843,-0.15853 0.52843,-0.35229 z m 3.00908,-0.16433 c 0.41978,-0.15995 0.70749,-0.34657 0.63935,-0.4147 -0.0681,-0.0681 -0.76828,0.11543 -1.55588,0.40794 -0.86194,0.3201 -1.11646,0.48519 -0.63936,0.41471 0.43596,-0.0644 1.13611,-0.24799 1.55589,-0.40795 z M 30.535377,66.03836 c -0.006,-1.08838 -0.252309,-1.25376 -1.88878,-1.26858 l -1.49649,-0.0136 -0.0958,1.00435 -0.0958,1.00435 h 1.790429 c 1.77805,0 1.79041,-0.005 1.7864,-0.72659 z m 49.890738,-0.26423 -0.082,-0.9908 h -1.58529 -1.5853 l -0.082,0.9908 -0.082,0.99082 h 1.74931 1.7493 z M 25.609207,65.15979 c 0.15016,-0.63376 0.0604,-0.71219 -1.30864,-1.14375 -0.80841,-0.25483 -1.50372,-0.42423 -1.545129,-0.37644 -0.0414,0.0478 -0.269451,0.46873 -0.506771,0.93545 -0.4118,0.80988 -0.40731,0.86149 0.0985,1.13221 0.29149,0.15599 0.52998,0.23255 0.52998,0.1701 0,-0.0624 0.50532,0.0374 1.12292,0.22176 1.21363,0.36238 1.314711,0.30338 1.60914,-0.93933 z m 8.383131,0.91107 c 1.41964,-0.22701 1.708711,-0.64377 1.169598,-1.6863 -0.253838,-0.49086 -0.574939,-0.77772 -0.781748,-0.69836 -0.19303,0.0741 -0.83892,0.28088 -1.43532,0.45956 -1.17902,0.35324 -1.16064,0.32229 -0.916339,1.54377 0.117869,0.58934 0.282519,0.79624 0.551529,0.69301 0.210921,-0.0809 0.84645,-0.2212 1.41228,-0.31168 z m 41.467377,-0.0325 c 0.002,-0.25431 0.071,-0.71338 0.15333,-1.02016 0.12931,-0.48176 -0.0242,-0.60622 -1.12652,-0.91328 -0.70194,-0.19552 -1.40816,-0.39589 -1.5694,-0.44525 -0.16123,-0.0494 -0.44322,0.27254 -0.62664,0.71535 -0.26861,0.6485 -0.26851,0.88341 5.3e-4,1.20758 0.18371,0.22136 0.38214,0.35436 0.44095,0.29554 0.0588,-0.0588 0.60664,0.0493 1.21738,0.24016 1.46864,0.45905 1.50618,0.45706 1.51037,-0.0799 z m 8.6223,-0.0879 c 0.31202,-0.11477 0.62205,-0.15393 0.68894,-0.087 0.0669,0.0669 0.25742,-0.042 0.42339,-0.24197 0.22231,-0.26788 0.22542,-0.58256 0.0118,-1.19536 -0.15949,-0.45746 -0.35706,-0.83176 -0.43906,-0.83176 -0.082,0 -0.79132,0.20245 -1.57626,0.44988 -1.22062,0.38476 -1.40613,0.52816 -1.28185,0.99081 0.0799,0.29751 0.14693,0.75127 0.14892,1.00834 0.004,0.47938 0.53436,0.45502 2.02411,-0.0929 z M 26.632537,65.44383 c 0.0794,-0.5409 0.005,-0.79263 -0.23422,-0.79263 -0.192819,0 -0.35057,0.16861 -0.35057,0.3747 0,0.2061 -0.0722,0.56279 -0.16037,0.79266 -0.10213,0.26612 -0.017,0.41792 0.23422,0.41792 0.23646,0 0.44123,-0.31768 0.51094,-0.79265 z m 4.959702,0.33028 c -0.005,-0.59949 -0.444281,-1.29109 -0.673861,-1.06152 -0.2483,0.2483 0.102199,1.52389 0.41872,1.52389 0.14255,0 0.257361,-0.20806 0.255141,-0.46237 z M 76.590955,65.5099 c 0.15755,-0.8202 0.0831,-0.98942 -0.32462,-0.73746 -0.33871,0.20933 -0.38017,1.46404 -0.0484,1.46404 0.12838,0 0.29623,-0.32697 0.373,-0.72658 z m 4.94212,0.0816 c 0,-0.61339 -0.41874,-1.13811 -0.69097,-0.86587 -0.2011,0.20109 0.19368,1.51081 0.4554,1.51081 0.12956,0 0.23557,-0.29021 0.23557,-0.64494 z M 21.484677,65.5259 c 0.0516,-0.15466 -0.10985,-0.35933 -0.35869,-0.45483 -0.53498,-0.20528 -1.01103,0.39697 -0.54677,0.69173 0.38551,0.24476 0.77924,0.14176 0.90546,-0.2369 z m 15.363721,0.20761 c 0.200261,-0.12684 0.285629,-0.35762 0.189699,-0.51285 -0.23131,-0.37425 -0.950148,-0.0841 -0.950148,0.38352 0,0.42079 0.236717,0.46106 0.760449,0.12933 z M 71.421475,65.5259 c 0.0516,-0.15466 -0.10985,-0.35933 -0.35869,-0.45483 -0.53498,-0.20528 -1.01103,0.39697 -0.54677,0.69173 0.38551,0.24476 0.77924,0.14176 0.90546,-0.2369 z m 15.48973,0.29236 c 0.37222,-0.14283 0.32453,-0.90791 -0.056,-0.89884 -0.42412,0.0101 -0.88061,0.49365 -0.71658,0.75906 0.21015,0.34003 0.23776,0.34502 0.77261,0.13978 z M 19.297037,65.23105 c -0.89021,-0.75448 -2.23154,-1.6295 -2.22586,-1.45205 0.008,0.25563 1.87166,1.64122 2.22586,1.65502 0.15853,0.006 0.15853,-0.0686 0,-0.20297 z m 20.441241,-0.77768 c 0.48182,-0.35652 0.8201,-0.70419 0.75171,-0.77258 -0.12047,-0.12047 -0.363071,0.0505 -1.759881,1.24052 -0.83003,0.70715 -0.15888,0.39564 1.008171,-0.46794 z m 29.640867,0.9031 c 0,-0.048 -0.56476,-0.47322 -1.25502,-0.9449 l -1.25503,-0.8576 1.03483,0.94492 c 0.89771,0.8197 1.47522,1.15543 1.47522,0.85758 z m 20.23455,-0.85758 1.03483,-0.94492 -1.25503,0.8576 c -0.69026,0.47168 -1.25502,0.89689 -1.25502,0.9449 0,0.29785 0.57752,-0.0379 1.47522,-0.85758 z M 22.084957,63.85742 c 0.26884,-0.64903 0.44193,-0.77112 0.8931,-0.62994 1.28749,0.40284 1.2909,0.37309 0.0312,-0.27245 -1.50844,-0.77301 -1.77374,-0.84789 -1.04131,-0.29391 0.28209,0.21336 0.37793,0.3917 0.213,0.39633 -0.410639,0.0115 -1.213429,1.28266 -1.01392,1.60547 0.23394,0.37853 0.538,0.11171 0.91792,-0.8055 z m 14.076699,-0.0266 c -0.728228,-1.23279 -1.170619,-0.92916 -0.569248,0.3907 0.174919,0.38391 0.445961,0.59493 0.659098,0.51314 0.296133,-0.11363 0.279781,-0.27809 -0.0899,-0.90384 z m 35.823679,0.15983 c 0.18391,-0.50862 0.46832,-0.92476 0.63201,-0.92476 0.3502,0 -0.61121,-0.77189 -0.97681,-0.78424 -0.13676,-0.005 -0.0179,0.16616 0.26422,0.37951 0.28208,0.21336 0.36731,0.3917 0.18939,0.39633 -0.38111,0.01 -1.18421,1.45111 -0.94302,1.69231 0.32143,0.32143 0.50331,0.15592 0.83421,-0.75915 z m 14.38116,0.75915 c 0.2412,-0.2412 -0.56191,-1.68241 -0.94302,-1.69231 -0.17792,-0.005 -0.0927,-0.18297 0.18939,-0.39633 0.28209,-0.21335 0.40098,-0.38414 0.26422,-0.37951 -0.36331,0.0123 -1.32816,0.78424 -0.98019,0.78424 0.16182,0 0.43156,0.41614 0.59942,0.92476 0.29637,0.89802 0.52866,1.10067 0.87018,0.75915 z M 21.283018,62.93378 c -0.003,-0.14532 -0.477761,-0.55563 -1.055121,-0.91181 -0.57737,-0.35618 -1.04976,-0.7571 -1.04976,-0.89093 0,-0.13383 0.26752,-0.0515 0.59449,0.18303 1.793501,1.28629 1.84326,1.07427 0.066,-0.28144 -0.77539,-0.59149 -1.20005,-0.75262 -1.59447,-0.605 -0.7087,0.26524 -1.2688,0.95943 -1.05423,1.30661 0.10067,0.16288 0.44616,-0.0501 0.83948,-0.51756 0.36763,-0.4369 0.7868,-0.72119 0.93151,-0.63176 0.14629,0.0904 -0.12032,0.55817 -0.60051,1.05361 -0.47499,0.49006 -0.81228,0.93216 -0.74956,0.98244 0.0627,0.0503 0.69878,0.52985 1.41344,1.06569 l 1.2994,0.97426 0.48232,-0.73146 c 0.26528,-0.4023 0.47991,-0.85036 0.47695,-0.99568 z m 18.176479,0.0402 0.597281,-0.53387 -0.69501,-0.72544 -0.695021,-0.72544 -1.26011,0.94076 -1.260109,0.94076 0.524988,0.88981 0.525003,0.8898 0.83285,-0.57125 c 0.458068,-0.31417 1.101629,-0.81148 1.430128,-1.10513 z m 31.506108,0.61754 c 0.1838,-0.44373 0.28845,-0.83393 0.23256,-0.8671 -0.0559,-0.0332 -0.59132,-0.43857 -1.18986,-0.90087 l -1.08825,-0.84056 -0.7484,0.78116 -0.7484,0.78116 0.63724,0.45846 c 2.558,1.84032 2.39956,1.80827 2.90511,0.58775 z m 18.87294,-0.84338 c 0.16627,-0.11338 -0.0179,-0.4885 -0.47302,-0.96357 l -0.74529,-0.77792 -1.26413,0.9394 -1.26412,0.93939 0.5187,0.87912 0.5187,0.87915 1.21845,-0.85497 c 0.67014,-0.47022 1.34096,-0.93849 1.49071,-1.0406 z m -61.412858,1.35764 c -1.525839,-0.10825 -3.0715,-0.26561 -3.434799,-0.34966 -0.363301,-0.084 -0.184951,0.0144 0.396319,0.21872 0.632031,0.22218 2.01274,0.36274 3.43481,0.34965 l 2.37794,-0.0219 -2.77427,-0.19685 z m 54.164258,-0.22125 c 0.63701,-0.29158 0.6323,-0.29609 -0.13211,-0.12628 -0.43596,0.0968 -1.98162,0.2677 -3.43481,0.37971 l -2.64216,0.20365 2.77427,-0.0774 c 1.52585,-0.0425 3.07151,-0.21343 3.43481,-0.37972 z m -49.804687,-0.026 c 0.67328,-0.28932 -0.0214,-0.28932 -0.924761,0 -0.531,0.17006 -0.556911,0.21306 -0.132109,0.21931 0.29064,0.004 0.766231,-0.0944 1.05687,-0.21931 z m 43.391947,0.10458 c -0.0878,-0.0878 -0.31569,-0.0972 -0.50642,-0.0208 -0.21077,0.0843 -0.14816,0.14696 0.15963,0.15962 0.27853,0.0115 0.43458,-0.051 0.34679,-0.13877 z M 33.617828,62.91087 c 2.444671,-0.97425 3.39476,-1.61266 5.149231,-3.46001 5.36702,-5.65119 4.983998,-14.44417 -0.859563,-19.73228 -4.40155,-3.98317 -11.459939,-4.56568 -16.483529,-1.36033 -5.90401,3.76712 -8.082939,11.40859 -5.03716,17.66522 1.99019,4.08824 5.55696,6.77314 10.18937,7.6701 1.692481,0.32771 5.246591,-0.0673 7.041651,-0.7827 z m -7.340101,-1.71029 c -6.26212,-1.48187 -10.27082,-8.06539 -8.52808,-14.00574 0.97372,-3.31906 3.2621,-5.98941 6.385011,-7.4508 1.447389,-0.67731 2.183929,-0.84745 4.022249,-0.92913 3.991401,-0.17734 7.427021,1.43924 9.633331,4.53282 3.278529,4.59701 2.98391,10.22392 -0.751721,14.35671 -2.695868,2.98246 -7.00931,4.38389 -10.76079,3.49614 z m 5.916399,-0.68167 c 3.059041,-0.98233 5.72217,-3.59802 6.956592,-6.83268 0.72326,-1.89524 0.67215,-5.56076 -0.105011,-7.53015 -2.01472,-5.10551 -7.772029,-8.13685 -12.86585,-6.77414 -4.51013,1.20657 -7.61058,4.60263 -8.34064,9.13588 -0.55091,3.42085 0.77538,7.15413 3.39296,9.55057 3.13791,2.8728 6.97546,3.73068 10.961949,2.45052 z m -5.353728,-1.16442 c -0.665011,-0.13455 -1.39285,-0.48898 -1.651621,-0.80424 -0.44307,-0.53982 -0.43867,-0.60632 0.10413,-1.5721 0.31172,-0.55464 1.05495,-1.53873 1.65161,-2.18687 1.009131,-1.09618 1.153761,-1.16665 2.072071,-1.00964 0.845029,0.14449 1.17803,0.43416 2.31189,2.01105 1.354101,1.88319 1.46517,2.15152 1.117079,2.69895 -0.49806,0.7833 -3.6218,1.26417 -5.605159,0.86285 z m 4.267219,-0.52269 c 1.135632,-0.31543 1.389611,-0.77803 0.85007,-1.54833 -0.357148,-0.50991 -0.63953,-0.55876 -3.229919,-0.55876 -3.010721,0 -3.472671,0.16419 -3.472671,1.23426 0,0.45008 0.214721,0.66214 0.858711,0.84808 1.169999,0.33783 3.819369,0.35096 4.993809,0.0248 z m 0.0923,-2.63552 c -0.0898,-0.14532 -1.21933,-0.26422 -2.510049,-0.26422 -1.29072,0 -2.42024,0.1189 -2.510051,0.26422 -0.104749,0.16949 0.795101,0.26421 2.510051,0.26421 1.714949,0 2.6148,-0.0947 2.510049,-0.26421 z m -0.71494,-0.82373 c -0.0589,-0.17672 -0.77978,-0.2953 -1.795109,-0.2953 -1.01533,0 -1.736211,0.11858 -1.79511,0.2953 -0.0664,0.19927 0.51729,0.2953 1.79511,0.2953 1.277819,0 1.861539,-0.096 1.795109,-0.2953 z m -0.53876,-0.82762 c -0.131529,-0.39939 -1.073919,-0.56545 -1.954569,-0.34442 -1.003031,0.25174 -0.458941,0.67469 0.867939,0.67469 0.83818,0 1.162891,-0.0987 1.08663,-0.33027 z m -9.00875,0.86038 c -0.7103,-0.84413 -1.75937,-3.78669 -1.75937,-4.93487 0,-0.97894 0.47551,-1.6722 1.14696,-1.6722 0.90375,0 3.944811,1.06241 4.44181,1.55177 0.24011,0.23641 0.50935,0.78654 0.59831,1.22249 0.13697,0.67124 -0.0513,1.07593 -1.22921,2.64216 -1.62343,2.15862 -2.2026,2.37422 -3.1985,1.19065 z m 2.61222,-0.92386 0.97216,-1.1864 -0.42604,-1.06478 c -0.23432,-0.58563 -0.42604,-1.29048 -0.42604,-1.56633 0,-0.38233 -0.40671,-0.63689 -1.71115,-1.07098 -0.941129,-0.31318 -1.83286,-0.49421 -1.98162,-0.40227 -0.44734,0.27648 -0.30524,2.68096 0.24384,4.12603 1.012211,2.66391 1.85791,2.95982 3.32885,1.16473 z m 1.41927,-3.2545 c -0.30147,-0.86479 -1.03497,-1.35702 -1.03497,-0.69453 0,0.21808 0.18564,0.83856 0.41254,1.37884 0.34069,0.81121 0.45516,0.90693 0.65711,0.54953 0.153571,-0.27176 0.140671,-0.73083 -0.0347,-1.23384 z m 8.664852,3.45009 c -1.753391,-2.28869 -1.851131,-2.53904 -1.40662,-3.60289 0.344177,-0.82373 0.587568,-0.9747 2.65893,-1.64927 2.911708,-0.94824 3.201699,-0.8156 3.138998,1.43575 -0.0685,2.45902 -1.55675,5.33565 -2.760469,5.33565 -0.25735,0 -0.989352,-0.68191 -1.630839,-1.51924 z m 3.103927,-0.41683 c 1.171602,-2.39466 1.354051,-5.24251 0.331693,-5.17728 -0.176541,0.0113 -0.91322,0.22885 -1.637081,0.48352 -1.16818,0.411 -1.364879,0.5943 -1.750031,1.63087 -0.238648,0.64231 -0.512511,1.35343 -0.60857,1.58028 -0.10998,0.25975 0.17558,0.87113 0.771321,1.65135 1.32062,1.72956 1.982819,1.69094 2.892668,-0.16874 z m -3.524469,-2.5573 c 0.35864,-1.19706 0.113551,-1.70843 -0.44966,-0.9382 -0.422769,0.57818 -0.508809,1.99676 -0.12111,1.99676 0.139491,0 0.39633,-0.47635 0.57077,-1.05856 z m -5.776159,0.92982 c -1.099871,-0.47809 -1.787061,-1.85137 -1.552381,-3.1023 0.23845,-1.27107 1.19822,-2.08597 2.649451,-2.24954 1.100499,-0.12404 1.274329,-0.059 2.130169,0.79683 1.417839,1.41783 1.216229,3.40335 -0.44865,4.41843 -1.0125,0.61732 -1.605559,0.64647 -2.778589,0.13658 z m 2.982169,-0.784 c 0.809281,-0.80929 0.914451,-2.72795 0.18567,-3.38748 -0.88675,-0.8025 -1.864039,-1.01251 -2.83121,-0.6084 -1.04938,0.43846 -1.461809,1.10012 -1.461809,2.34517 0,2.03752 2.653949,3.10411 4.107349,1.65071 z m -2.577479,-0.47439 c -0.680071,-1.06279 -0.762371,-1.57362 -0.353931,-2.19697 0.60823,-0.92829 1.40154,-1.06043 2.14924,-0.35802 0.78165,0.73433 0.806421,1.37826 0.0916,2.38209 -0.65439,0.919 -1.36769,0.98436 -1.88694,0.1729 z m 1.600839,-0.81065 c 0.213161,-0.25685 0.182871,-0.49987 -0.115389,-0.92569 -0.32571,-0.46502 -0.50424,-0.52399 -0.91723,-0.30297 -0.500731,0.26799 -0.68843,1.04901 -0.33665,1.40079 0.29406,0.29407 1.062539,0.19746 1.369269,-0.17213 z m -6.03419,-3.50968 c -2.25647,-0.76843 -2.64505,-1.02321 -2.64505,-1.73425 0,-0.83648 2.21088,-2.94991 3.960981,-3.78638 2.30549,-1.10192 2.492049,-0.92571 2.587299,2.44393 l 0.075,2.65305 -0.89883,0.5555 c -0.49436,0.30553 -0.94425,0.55247 -0.99975,0.54876 -0.0555,-0.004 -0.99135,-0.30999 -2.07965,-0.68061 z m 2.10085,-0.90867 c 0.50313,-0.43005 1.0731,-0.78191 1.2666,-0.78191 0.267741,0 0.33327,-0.4578 0.274201,-1.91557 -0.0703,-1.73503 -0.1316,-1.92325 -0.650281,-1.99713 -0.88743,-0.1264 -3.030189,1.09589 -4.2599,2.42996 -1.531369,1.66134 -1.50395,1.75823 0.73157,2.58518 1.57792,0.5837 1.58027,0.58341 2.63781,-0.32053 z m 1.5041,0.13145 c 0.22751,-0.59289 -0.0443,-0.73664 -0.71454,-0.37793 -0.46658,0.2497 -0.5118,0.36149 -0.22079,0.54579 0.528701,0.33483 0.75824,0.29364 0.93533,-0.16786 z m 3.81047,0.78056 c -0.80195,-0.6748 -0.812919,-0.71766 -0.812919,-3.17626 0,-2.3373 0.0374,-2.50928 0.601959,-2.7665 0.885892,-0.40364 2.807042,0.50983 4.56102,2.16867 1.59389,1.50743 1.833171,2.34713 0.847932,2.97568 -0.464482,0.29632 -3.905811,1.48243 -4.301072,1.48243 -0.0462,0 -0.449819,-0.30781 -0.89692,-0.68402 z m 4.06516,-0.65604 c 1.826799,-0.68349 1.859229,-1.07284 0.225469,-2.7066 -1.386408,-1.3864 -3.194949,-2.37696 -4.104298,-2.24795 -0.547991,0.0778 -0.609671,0.24203 -0.67696,1.80294 l -0.074,1.71741 1.263,0.96673 c 0.694658,0.5317 1.407171,0.97757 1.58337,0.99081 0.176189,0.0132 0.978749,-0.22226 1.78345,-0.52334 z m -3.587359,0.0433 c 0.29101,-0.1843 0.24579,-0.29609 -0.220789,-0.54579 -0.683272,-0.36568 -0.885012,-0.25685 -0.651561,0.35151 0.18825,0.49055 0.348259,0.52619 0.87235,0.19428 z m 43.097537,17.01756 c -1.20633,-0.46455 -1.68095,-0.45769 -0.66053,0.01 0.43595,0.19963 0.97099,0.35927 1.18897,0.35477 0.21797,-0.004 -0.0198,-0.16844 -0.52844,-0.36431 z m 7.63767,-0.0105 c 4.50046,-1.06083 8.09291,-4.28966 9.70055,-8.71866 3.28065,-9.0381 -3.44054,-18.50242 -13.11076,-18.46166 -12.17506,0.0513 -18.28569,14.93551 -9.64445,23.49181 3.52305,3.48842 8.24433,4.82238 13.05466,3.68851 z m -6.31659,-2.39468 c -4.84147,-1.29534 -8.4636,-6.03495 -8.45177,-11.05927 0.01,-4.18782 2.57655,-8.15261 6.54772,-10.11437 1.96101,-0.96874 2.0826,-0.99309 4.92975,-0.9873 2.63756,0.005 3.06245,0.0757 4.40458,0.72978 2.19745,1.07082 3.73653,2.35141 4.85965,4.04346 2.26403,3.41089 2.60912,7.51262 0.93681,11.13463 -2.32308,5.0315 -7.91378,7.67455 -13.22674,6.25307 z m 6.4106,-0.53811 c 1.59858,-0.51334 4.16784,-2.22133 5.01474,-3.3337 0.93321,-1.22572 1.81058,-3.02711 2.21894,-4.55584 1.28409,-4.8071 -1.24928,-10.17884 -5.86559,-12.43739 -5.35447,-2.6197 -12.0479,-0.34002 -14.6271,4.98176 -1.1731,2.42051 -1.474,4.61187 -0.96709,7.043 1.36041,6.52455 7.89188,10.33624 14.2261,8.30217 z m -5.34187,-1.16401 c -0.6474,-0.13376 -1.40923,-0.47532 -1.69295,-0.75904 -0.58751,-0.58751 -0.58256,-0.59893 1.4703,-3.39039 0.93978,-1.27791 1.10453,-1.38713 2.09233,-1.38713 1.16892,0 1.32424,0.13182 3.01863,2.56182 1.11449,1.59834 1.05757,2.28668 -0.22297,2.69623 -1.32106,0.42251 -3.37489,0.54512 -4.66534,0.27851 z m 4.25536,-0.5231 c 1.13563,-0.31543 1.38961,-0.77803 0.85007,-1.54833 -0.35778,-0.5108 -0.63874,-0.55876 -3.27347,-0.55876 -2.57903,0 -2.91086,0.0537 -3.15561,0.51106 -0.47138,0.8808 -0.31055,1.31265 0.58519,1.57128 1.17001,0.33783 3.81938,0.35096 4.99382,0.0248 z m 0.0923,-2.63552 c -0.0898,-0.14532 -1.21934,-0.26422 -2.51005,-0.26422 -1.29072,0 -2.42024,0.1189 -2.51005,0.26422 -0.10476,0.16949 0.7951,0.26421 2.51005,0.26421 1.71495,0 2.6148,-0.0947 2.51005,-0.26421 z m -0.71494,-0.82373 c -0.0589,-0.17672 -0.77979,-0.2953 -1.79511,-0.2953 -1.01533,0 -1.73621,0.11858 -1.79512,0.2953 -0.0664,0.19927 0.5173,0.2953 1.79512,0.2953 1.27781,0 1.86154,-0.096 1.79511,-0.2953 z m -0.53876,-0.82762 c -0.13092,-0.39753 -1.07279,-0.56573 -1.94376,-0.34713 -1.10422,0.27714 -0.68503,0.6774 0.70943,0.6774 0.95634,0 1.31177,-0.0951 1.23433,-0.33027 z m -8.8424,1.06785 c -1.19197,-1.27739 -2.23677,-5.21122 -1.66689,-6.27605 0.36614,-0.68415 1.06082,-0.67926 3.19073,0.0225 1.97411,0.6504 2.5565,1.11678 2.76493,2.21422 0.12614,0.66417 -0.075,1.08972 -1.24861,2.64124 -1.53652,2.03137 -2.17519,2.32508 -3.04016,1.39812 z m 2.52328,-1.2402 c 0.73185,-1.0738 0.83296,-1.38603 0.59363,-1.83321 -0.15864,-0.29644 -0.38134,-0.98609 -0.49488,-1.53255 -0.19479,-0.93751 -0.29536,-1.02026 -1.78261,-1.46655 -0.86689,-0.26013 -1.72479,-0.41834 -1.90644,-0.35158 -0.78443,0.28832 -0.0535,4.43094 1.02329,5.79991 0.82551,1.04945 1.55049,0.87547 2.56701,-0.61602 z m 1.24335,-3.17376 c -0.86095,-1.66488 -1.28192,-1.09244 -0.52392,0.71244 0.35322,0.84104 0.44963,0.91667 0.67038,0.52584 0.18089,-0.32028 0.13718,-0.68976 -0.14646,-1.23828 z m 8.76336,3.47822 c -1.75339,-2.28869 -1.85113,-2.53904 -1.40663,-3.60289 0.34419,-0.82373 0.58757,-0.9747 2.65894,-1.64927 2.89262,-0.94202 3.19301,-0.80997 3.16044,1.3893 -0.0357,2.40975 -1.57205,5.3821 -2.78191,5.3821 -0.25735,0 -0.98935,-0.68191 -1.63084,-1.51924 z m 3.22206,-0.66054 c 0.99379,-2.04861 1.32096,-4.16222 0.72132,-4.65988 -0.34346,-0.28505 -0.69762,-0.249 -2.08309,0.21206 -1.42534,0.47432 -1.67735,0.65296 -1.72447,1.22241 -0.0304,0.36681 -0.23941,1.02314 -0.46455,1.45852 -0.44303,0.85673 -0.41571,0.94688 0.73565,2.42743 1.18249,1.52058 1.83088,1.36844 2.81514,-0.66054 z m -3.51509,-2.7778 c 0.10911,-0.54558 0.0668,-0.85516 -0.11692,-0.85516 -0.4097,0 -0.83497,0.89469 -0.83497,1.75665 0,0.64798 0.046,0.68853 0.39043,0.34409 0.21473,-0.21472 0.46739,-0.77525 0.56146,-1.24558 z m -5.96544,1.32421 c -1.06612,-0.53639 -1.75881,-2.00658 -1.47611,-3.13295 0.29718,-1.18408 1.62271,-2.21701 2.845,-2.21701 0.84791,0 1.23192,0.17658 1.95368,0.89833 1.47554,1.47554 1.15664,3.56473 -0.68988,4.51959 -0.98762,0.51072 -1.50925,0.49727 -2.63269,-0.068 z m 3.07725,-0.69814 c 0.57516,-0.49474 0.73532,-0.86154 0.73532,-1.68404 0,-1.22048 -0.43873,-1.84985 -1.63934,-2.35171 -0.72957,-0.30497 -0.99457,-0.30219 -1.76219,0.0186 -1.06158,0.44355 -1.47445,1.10172 -1.47445,2.35045 0,2.03547 2.52865,3.05333 4.14066,1.66674 z m -2.61079,-0.49043 c -0.68007,-1.06278 -0.76237,-1.57362 -0.35394,-2.19696 0.60824,-0.92829 1.40155,-1.06043 2.14924,-0.35802 0.774,0.72713 0.79577,1.17018 0.11253,2.29077 -0.6125,1.00457 -1.3672,1.10908 -1.90783,0.26421 z m 1.56723,-0.75878 c 0.31495,-0.31496 0.15853,-1.03756 -0.28933,-1.3365 -0.67684,-0.45179 -1.6291,0.87399 -1.04633,1.45677 0.27377,0.27377 1.0077,0.20769 1.33566,-0.12027 z m -6.00348,-3.58335 c -2.29251,-0.79445 -2.64216,-1.02035 -2.64216,-1.70703 0,-0.84031 2.06843,-2.81271 3.89012,-3.70952 2.38401,-1.17364 2.5618,-1.01958 2.65937,2.3046 0.0752,2.56035 0.066,2.60443 -0.66054,3.19912 -0.91027,0.74503 -0.83994,0.74691 -3.24679,-0.0872 z m 2.10375,-0.88687 c 0.50312,-0.43004 1.07309,-0.78191 1.2666,-0.78191 0.26774,0 0.33327,-0.45779 0.27419,-1.91557 -0.0703,-1.73502 -0.1316,-1.92324 -0.65028,-1.99712 -0.88742,-0.12641 -3.03018,1.09588 -4.25989,2.42996 -1.53137,1.66134 -1.50395,1.75823 0.73156,2.58518 1.57793,0.5837 1.58028,0.58341 2.63782,-0.32054 z m 1.5041,0.13145 c 0.23616,-0.61541 -0.0715,-0.75021 -0.70292,-0.30797 -0.40793,0.28574 -0.46751,0.43369 -0.21525,0.53453 0.59176,0.23658 0.756,0.19605 0.91817,-0.22656 z m 3.81047,0.78057 c -0.80195,-0.6748 -0.81292,-0.71766 -0.81292,-3.17626 0,-2.36651 0.0316,-2.50665 0.62708,-2.77794 0.90208,-0.41102 2.71583,0.45875 4.52533,2.17011 1.48136,1.40101 1.80894,2.25848 1.09057,2.85466 -0.33956,0.28183 -3.98711,1.61344 -4.41948,1.61344 -0.10871,0 -0.56348,-0.3078 -1.01058,-0.68401 z m 4.06516,-0.65604 c 1.76409,-0.66003 1.83391,-1.03133 0.47229,-2.51156 -1.29854,-1.41164 -3.26602,-2.55121 -4.21638,-2.44212 -0.71651,0.0822 -0.7399,0.13545 -0.8155,1.85525 -0.075,1.70498 -0.0505,1.78473 0.66116,2.15273 0.40645,0.21018 0.96521,0.63212 1.2417,0.93763 0.62317,0.6886 0.83613,0.68924 2.65673,0.008 z m -3.58736,0.0433 c 0.29101,-0.1843 0.24579,-0.29609 -0.22079,-0.54579 -0.68327,-0.36568 -0.88501,-0.25685 -0.65156,0.35151 0.18824,0.49055 0.34826,0.52619 0.87235,0.19428 z m -45.987327,16.3793 c 0.839359,-0.42371 2.036189,-1.19654 2.659629,-1.7174 1.242481,-1.03807 1.39569,-1.11523 1.199549,-0.60408 -0.0724,0.18862 0.156602,0.6137 0.508852,0.94462 0.927569,0.87141 1.20885,0.18963 0.30919,-0.74942 l -0.708959,-0.73999 1.07528,-1.41832 c 0.591399,-0.78008 1.075788,-1.50575 1.076409,-1.6126 5.29e-4,-0.10686 0.387559,0.0413 0.859841,0.32928 1.019389,0.62153 1.255029,0.65065 1.255029,0.15506 0,-0.41028 -1.425911,-1.01024 -1.737039,-0.73087 -0.108173,0.0971 -0.118282,-0.0315 -0.02249,-0.28579 0.48664,-1.29164 0.40509,-1.25289 -0.39951,0.18985 -1.369222,2.45514 -3.6028,4.66895 -5.968881,5.91603 -2.332501,1.22939 -2.418829,1.49067 -0.106929,0.32363 z m 48.924057,0.50616 c 0.21798,-0.14087 0.27743,-0.25613 0.13211,-0.25613 -0.14532,0 -0.44256,0.11526 -0.66054,0.25613 -0.21798,0.14087 -0.27743,0.25612 -0.13211,0.25612 0.14532,0 0.44256,-0.11525 0.66054,-0.25612 z m -67.228668,-0.8158 c 0.27228,-0.44056 -0.3401,-0.94577 -0.70459,-0.58128 -0.30488,0.30489 -0.11406,0.86851 0.29404,0.86851 0.12817,0 0.31292,-0.12925 0.41055,-0.28723 z m 24.40622,-0.0856 c 0.221052,-0.26634 0.226981,-0.42373 0.0208,-0.55117 -0.35047,-0.21661 -1.110599,0.36109 -0.907508,0.6897 0.209389,0.3388 0.532469,0.28833 0.88673,-0.13853 z m 25.648458,-0.008 c 0,-0.47356 -0.43654,-0.76411 -0.80548,-0.53609 -0.18939,0.11705 -0.17915,0.28917 0.0324,0.54402 0.39921,0.48103 0.77312,0.4772 0.77312,-0.008 z m 24.31906,-0.5064 c -0.35278,-0.35278 -0.94436,0.18181 -0.67804,0.61273 0.13707,0.22179 0.28563,0.21693 0.56945,-0.0186 0.26641,-0.2211 0.29966,-0.40303 0.10859,-0.5941 z m -21.9532,-1.40677 c -1.96432,-1.85304 -2.83376,-3.11491 -3.8522,-5.59095 -0.33816,-0.82214 -0.61767,-1.34236 -0.62111,-1.15605 -0.003,0.18632 0.17207,0.76561 0.39005,1.2873 0.52748,1.26245 0.51922,1.29741 -0.39633,1.67664 -0.43595,0.18058 -0.79264,0.49226 -0.79264,0.6926 0,0.54455 0.47578,0.44093 1.17193,-0.25522 l 0.61949,-0.61948 1.10029,1.67355 c 0.88685,1.3489 3.64984,4.05709 4.13918,4.05709 0.0621,0 -0.72933,-0.79447 -1.75866,-1.76548 z m 19.64905,-0.44028 c 0.846,-0.87603 1.71069,-1.9568 1.92152,-2.40171 0.38015,-0.80223 0.37959,-0.80346 -0.0669,-0.14841 -0.24763,0.36328 -1.36766,1.57966 -2.48896,2.70302 -1.1213,1.12337 -1.78337,1.90691 -1.47128,1.74117 0.31209,-0.16571 1.25962,-1.01805 2.10562,-1.89407 z m -20.61944,0.26285 c -0.0767,-0.12418 -0.43678,0.0715 -0.80008,0.43477 -0.39017,0.39018 -0.5795,0.79165 -0.46256,0.98087 0.13819,0.2236 0.3798,0.0923 0.80007,-0.43477 0.33115,-0.41531 0.53931,-0.85669 0.46257,-0.98087 z m 21.60225,0.50137 c -0.83277,-0.88645 -1.21763,-0.56784 -0.51167,0.42359 0.39975,0.56139 0.64816,0.712 0.84678,0.51338 0.19862,-0.19863 0.10031,-0.47348 -0.33511,-0.93697 z M 14.368728,60.55964 c -0.459381,-0.65173 -0.88585,-1.13435 -0.94769,-1.07251 -0.145581,0.14558 1.336599,2.24443 1.590219,2.25184 0.10599,0.003 -0.18315,-0.52759 -0.642529,-1.17933 z m 29.668019,-0.73058 c 0.384852,-0.68325 -0.0975,-0.56247 -0.527619,0.13209 -1.081551,1.74647 -1.155941,1.93889 -0.43407,1.12292 0.38568,-0.43594 0.81844,-1.00072 0.961689,-1.25501 z m 20.322258,0.72658 c -0.44991,-0.65392 -0.87878,-1.18897 -0.95304,-1.18897 -0.17519,0 0.0864,0.45511 0.87336,1.51924 0.95468,1.29099 1.01711,1.03225 0.0797,-0.33027 z m 29.07339,0.11993 c 0.46569,-0.58797 0.78438,-1.13137 0.70821,-1.20755 -0.0762,-0.0762 -0.51235,0.40491 -0.9693,1.06906 -1.02843,1.49477 -0.8768,1.57521 0.26109,0.13849 z m -76.280038,-0.13447 0.74853,-0.65838 -0.81458,-0.92776 c -0.44802,-0.51027 -0.81458,-1.0663 -0.81458,-1.23562 0,-0.35121 0.0718,-0.27813 1.30591,1.32924 0.47933,0.62432 0.93823,1.06839 1.01977,0.98686 0.0815,-0.0815 -0.21207,-0.53289 -0.65247,-1.00299 -0.44039,-0.47012 -0.99702,-1.14873 -1.23696,-1.50803 -0.23994,-0.3593 -0.43625,-0.50791 -0.43625,-0.33027 0,0.17765 -0.11603,0.32302 -0.25783,0.32302 -0.14181,0 -0.61948,0.21993 -1.0615,0.48873 l -0.80366,0.48875 0.99544,1.35674 c 0.54749,0.74622 1.05489,1.35481 1.12755,1.35242 0.0727,-0.002 0.46894,-0.3006 0.88063,-0.66271 z m 25.13252,-0.55188 c 0.515281,-0.67483 0.93686,-1.32572 0.93686,-1.4464 0,-0.18623 -1.358191,-1.02565 -1.65949,-1.02565 -0.0552,0 -0.49045,0.54307 -0.96714,1.20685 l -0.86669,1.20684 0.60375,0.64266 c 0.33206,0.35346 0.696471,0.64266 0.8098,0.64266 0.113331,0 0.627642,-0.55213 1.14291,-1.22696 z m 24.959598,0.58867 0.59964,-0.63828 -0.88385,-1.20092 c -0.48612,-0.6605 -0.97015,-1.20556 -1.07563,-1.21123 -0.10548,-0.006 -0.54883,0.20684 -0.98524,0.47223 l -0.79346,0.48254 0.98524,1.35919 c 0.54188,0.74756 1.11313,1.3627 1.26945,1.36699 0.15632,0.004 0.55405,-0.27946 0.88385,-0.63052 z m 25.39213,-1.08856 0.75456,-1.09672 -0.94167,-0.44904 c -0.51793,-0.24698 -0.95791,-0.41424 -0.97776,-0.37168 -0.0198,0.0426 -0.44161,0.60105 -0.93727,1.24108 l -0.9012,1.16371 0.73241,0.62999 c 0.85201,0.73288 1.07263,0.62433 2.27093,-1.11734 z M 13.760378,58.31191 c 0.0891,-0.14418 0.0647,-0.43602 -0.0543,-0.64856 -0.291821,-0.52147 -0.93628,-0.10001 -0.717771,0.46942 0.18995,0.49501 0.528301,0.5735 0.772031,0.17914 z m 30.716371,-0.83566 c -0.188021,-0.11625 -0.500941,-0.0335 -0.726581,0.19214 -0.352279,0.35228 -0.352279,0.42406 0,0.64604 0.279459,0.1761 0.49371,0.11945 0.726581,-0.19214 0.264189,-0.35347 0.264189,-0.4827 0,-0.64604 z m 19.265096,0.68369 c 0.20161,-0.52539 -0.20608,-0.95046 -0.64902,-0.6767 -0.35951,0.22218 -0.16372,1.09079 0.24588,1.09079 0.13433,0 0.31574,-0.18635 0.40314,-0.41409 z m 30.85056,-0.0272 c 0.2185,-0.56942 -0.42596,-0.99089 -0.71778,-0.46943 -0.22744,0.40642 -0.0458,0.91068 0.3281,0.91068 0.12119,0 0.29655,-0.19856 0.38968,-0.44125 z M 15.342967,57.14883 c 0.34788,-0.34789 0.71166,-0.55595 0.8084,-0.46238 0.0967,0.0936 -0.0188,-0.29934 -0.25665,-0.87315 -0.44021,-1.06181 -0.93259,-1.77084 -0.55987,-0.80622 0.47371,1.226 0.44113,1.33974 -0.51437,1.79537 -0.525179,0.25044 -0.882059,0.57315 -0.79308,0.71712 0.257051,0.41592 0.63559,0.30924 1.31557,-0.37074 z m 78.079788,0.26204 c 0,-0.20376 -0.3567,-0.49482 -0.79265,-0.6468 -0.92844,-0.32364 -0.92311,-0.28022 -0.26422,-2.15331 0.28115,-0.79926 0.50659,-1.69099 0.50098,-1.98162 -0.006,-0.29063 -0.21678,0.18495 -0.46928,1.05686 -0.2525,0.87192 -0.60072,1.845 -0.77383,2.16241 -0.32724,0.60006 -0.42386,1.07327 -0.16661,0.81602 0.0815,-0.0815 0.43275,0.13651 0.78064,0.4844 0.71071,0.71071 1.18497,0.81558 1.18497,0.26204 z M 11.886558,55.58032 c -0.440671,-1.2933 -0.809421,-1.70073 -0.52936,-0.58488 0.270479,1.07768 0.694129,2.07428 0.8258,1.94261 0.0682,-0.0682 -0.0652,-0.67916 -0.29644,-1.35773 z m 3.270149,0.48615 c 0.0407,-0.0343 -0.13333,-0.73555 -0.38668,-1.5583 -0.32177,-1.04496 -0.569629,-1.45413 -0.822159,-1.35722 -0.198841,0.0763 -0.66193,0.13872 -1.0291,0.13872 -0.594191,0 -0.64849,0.0799 -0.49398,0.7266 0.0955,0.39962 0.36062,1.22748 0.589209,1.83968 l 0.41563,1.11308 0.826561,-0.42009 c 0.454609,-0.23105 0.859849,-0.44815 0.900519,-0.48247 z m 29.63425,-1.01268 c 0.557901,-1.62153 0.561869,-1.61272 -0.82451,-1.83469 -0.62806,-0.10056 -0.751218,0.009 -1.085049,0.96939 -0.207121,0.59555 -0.45127,1.26116 -0.542559,1.47914 -0.113911,0.27198 0.102158,0.52434 0.688729,0.80442 0.47009,0.22444 0.94117,0.34012 1.04685,0.25701 0.10568,-0.0831 0.42812,-0.83695 0.716539,-1.67527 z m 1.437741,0.0193 c 0.0955,-0.39962 0.0674,-0.72659 -0.0625,-0.72659 -0.129921,0 -0.307671,0.32697 -0.394999,0.72659 -0.0873,0.39963 -0.22792,1.02384 -0.312431,1.38714 l -0.153651,0.66054 0.374951,-0.66054 c 0.206219,-0.3633 0.45312,-0.98751 0.548651,-1.38714 z m 15.670347,0.66754 c -0.36585,-1.23907 -0.87867,-1.91714 -0.61358,-0.8113 0.25713,1.07261 0.69552,2.14748 0.82362,2.01938 0.0623,-0.0623 -0.0322,-0.60591 -0.21004,-1.20808 z m 33.00458,-2.21717 c -0.16055,-0.0894 -0.59809,-0.23505 -0.97231,-0.32372 -0.63375,-0.15015 -0.71219,-0.0604 -1.14374,1.30864 -0.25483,0.80842 -0.42423,1.50316 -0.37645,1.54388 0.0478,0.0407 0.44356,0.25839 0.87952,0.48373 l 0.79265,0.4097 0.55612,-1.62986 c 0.38565,-1.13026 0.46664,-1.67968 0.26421,-1.79237 z m 1.36729,0.87418 c -0.0502,-0.2461 -0.29539,0.16936 -0.54493,0.92326 -0.59296,1.79137 -0.54196,2.0889 0.11347,0.66203 0.28747,-0.6258 0.48163,-1.33918 0.43146,-1.58529 z m -31.82848,2.0268 c 0.31741,-0.165 0.61621,-0.3329 0.66399,-0.37311 0.0478,-0.0402 -0.12163,-0.73453 -0.37646,-1.54295 -0.48676,-1.54418 -0.53352,-1.56774 -2.13994,-1.07841 -0.32768,0.0998 -0.15555,1.02458 0.47796,2.56788 0.33055,0.80522 0.52811,0.86654 1.37445,0.42659 z m -7.43101,-0.42601 c -1.93405,-0.0452 -5.02538,-0.0451 -6.869616,2.6e-4 -1.844231,0.0454 -0.261832,0.0823 3.516456,0.0822 3.77829,-1.5e-4 5.28721,-0.0373 3.35316,-0.0825 z m 3.00408,-1.20682 c -1.52238,-7.31181 0.54278,-14.03138 5.8016,-18.87705 2.14491,-1.97641 5.21668,-3.67205 8.05615,-4.44707 2.62532,-0.71657 7.19168,-0.66091 9.95484,0.12135 2.68305,0.75958 5.87007,2.54641 7.62135,4.27299 0.73116,0.72085 1.41805,1.31064 1.52642,1.31064 0.10836,0 0.18429,-1.90235 0.16873,-4.22745 l -0.0283,-4.22746 h -14.84378 -14.84378 l -4.75038,4.75589 c -2.61271,2.61573 -4.87175,4.75588 -5.0201,4.75588 -0.14835,0 -2.40837,-2.14112 -5.022267,-4.75805 l -4.752552,-4.75806 -14.796669,0.0682 -14.79667,0.0682 v 4.16108 c 0,2.28859 0.0412,4.16122 0.0916,4.1614 0.0504,1.7e-4 0.83891,-0.68334 1.75228,-1.51892 1.84772,-1.69034 5.2302,-3.50854 7.85577,-4.22273 2.27733,-0.61947 7.139151,-0.61369 9.456001,0.0112 3.044018,0.82109 5.997459,2.47891 8.250119,4.63094 3.468341,3.31342 5.145942,6.43974 5.926992,11.04537 0.373639,2.20323 0.394438,2.97114 0.134988,4.9826 -0.168688,1.30787 -0.381418,2.64907 -0.47271,2.98045 l -0.166,0.60251 6.535778,-0.0253 6.53578,-0.0253 -0.1752,-0.84143 z M 15.049727,53.32266 c -0.0928,-0.46422 -0.22388,-0.78896 -0.2912,-0.72163 -0.0673,0.0673 -0.0403,0.49607 0.06,0.95282 0.10032,0.45674 0.23136,0.78146 0.2912,0.72163 0.0598,-0.0598 0.0328,-0.48862 -0.06,-0.95282 z m 28.09953,-2.87336 c 0.138729,-2.25846 0.192299,-2.4443 0.70579,-2.44803 0.666861,-0.005 1.401651,-0.42702 1.161391,-0.66728 -0.266639,-0.26663 -1.791491,0.14714 -1.82104,0.49415 -0.0145,0.1701 -0.109,0.0121 -0.210039,-0.35113 -0.101042,-0.36323 -0.178361,0.46906 -0.171821,1.84951 0.006,1.38045 -0.0729,3.04496 -0.176511,3.69889 -0.150509,0.94995 -0.133049,1.05618 0.0869,0.52844 0.151392,-0.36331 0.342802,-1.76035 0.425371,-3.10455 z m -30.840769,2.72983 c 0,-0.0608 -0.0722,-0.29856 -0.16038,-0.52843 -0.22975,-0.59872 -0.896491,-0.51654 -0.896491,0.11049 0,0.35229 0.17615,0.52843 0.528441,0.52843 0.29063,0 0.52843,-0.0497 0.52843,-0.11049 z m 33.92969,-0.32365 c 0.0916,-0.23876 0.109468,-0.49126 0.0397,-0.56106 -0.245761,-0.24577 -0.942372,0.19081 -0.942372,0.59059 0,0.54093 0.692502,0.51829 0.90271,-0.0295 z m 16.007107,0.32365 c 0,-0.42191 -0.38173,-0.94636 -0.68881,-0.94636 -0.37959,0 -0.50359,0.56905 -0.19191,0.88071 0.19242,0.19244 0.88072,0.24374 0.88072,0.0657 z m 2.38227,-2.66376 -0.18726,-2.64217 -0.0406,2.15042 c -0.0289,1.53 -0.13593,2.14689 -0.37092,2.13817 -0.99754,-0.037 -1.51924,0.11083 -1.51924,0.43067 0,0.40086 1.21001,0.29007 1.78346,-0.16329 0.24407,-0.19297 0.33027,-0.10326 0.33027,0.34372 0,0.33265 0.0431,0.55527 0.0958,0.49472 0.0527,-0.0606 0.0115,-1.29906 -0.0915,-2.75224 z m 31.65185,2.17674 c 0.0538,-0.27916 -0.0746,-0.45934 -0.32723,-0.45934 -0.22863,0 -0.4157,0.0497 -0.4157,0.1105 0,0.0608 -0.0768,0.31062 -0.17066,0.55522 -0.12844,0.33472 -0.0475,0.42101 0.32724,0.34884 0.27384,-0.0527 0.5377,-0.30258 0.58635,-0.55522 z M 14.356158,52.42917 c 0.226089,-0.17875 0.314519,-0.98017 0.280339,-2.54064 l -0.0499,-2.27955 -0.148229,2.24585 c -0.100301,1.51958 -0.25504,2.25437 -0.4785,2.27224 -0.18165,0.0145 -0.56807,0.0443 -0.85871,0.0661 -0.29063,0.0218 -0.52843,0.20149 -0.52843,0.39932 0,0.40086 1.210009,0.29008 1.783459,-0.16328 z m 30.69748,-0.0342 c -0.2584,-0.2501 -1.54537,-0.27476 -1.57109,-0.0301 -0.0368,0.35011 1.124339,0.64119 1.438978,0.36073 0.135642,-0.1209 0.19508,-0.26968 0.132112,-0.33063 z m 49.913907,-0.0266 c -0.0525,-0.0525 -0.39191,-0.13429 -0.75412,-0.18165 -0.95258,-0.12453 -1.07246,0.4101 -0.13013,0.58037 0.68371,0.12354 1.18188,-0.10109 0.88425,-0.39872 z m -1.80901,-2.38147 c 0,-1.87767 0.0312,-1.98183 0.59449,-1.98567 0.69847,-0.005 1.44672,-0.42075 1.20021,-0.66727 -0.26664,-0.26664 -1.79149,0.14714 -1.82104,0.49415 -0.0145,0.1701 -0.109,0.0121 -0.21004,-0.35113 -0.10104,-0.36323 -0.17836,0.49808 -0.17183,1.91403 0.007,1.41594 0.10106,2.57513 0.21005,2.57597 0.10899,8e-4 0.19816,-0.89019 0.19816,-1.98008 z M 10.914327,49.2603 c -0.0586,-0.47227 -0.10657,-0.0859 -0.10657,0.8587 0,0.94458 0.048,1.331 0.10657,0.85871 0.0586,-0.47228 0.0586,-1.24511 0,-1.71741 z m 3.1606,0.86378 c 0.0532,-1.57063 -0.139489,-1.84404 -1.304059,-1.85053 -0.71923,-0.004 -0.7266,0.0136 -0.7266,1.7293 v 1.73336 l 0.99081,-0.082 0.990809,-0.082 z m 31.524761,-0.13717 c 0,-1.64028 -0.0287,-1.71742 -0.63894,-1.71742 -1.3008,0 -1.47479,0.22155 -1.47479,1.87778 v 1.55704 h 1.05686 1.05687 z m 18.495107,0.16036 c 0,-1.65623 -0.174,-1.87778 -1.4748,-1.87778 -0.61023,0 -0.63893,0.0771 -0.63893,1.71742 v 1.7174 h 1.05686 1.05687 z m 31.44168,-0.16036 c 0,-1.64028 -0.0287,-1.71742 -0.63893,-1.71742 -1.3008,0 -1.47479,0.22155 -1.47479,1.87778 v 1.55704 h 1.05686 1.05686 z m -48.615707,0 c 0,-0.79927 -0.118901,-1.45319 -0.26422,-1.45319 -0.14532,0 -0.264211,0.65392 -0.264211,1.45319 0,0.79925 0.118891,1.45317 0.264211,1.45317 0.145319,0 0.26422,-0.65392 0.26422,-1.45317 z m 14.062487,0.33026 c -0.14341,-1.85085 -0.26009,-2.00887 -0.29262,-0.39633 -0.0169,0.8356 0.0617,1.51924 0.1745,1.51924 0.11282,0 0.16598,-0.50531 0.11812,-1.12291 z m 35.80157,-1.05212 c -0.0588,-0.47489 -0.10813,-0.15007 -0.10961,0.72186 -0.002,0.87191 0.0466,1.26044 0.10692,0.86343 0.0603,-0.39702 0.0615,-1.11042 0.003,-1.58529 z m -84.663997,-1.7882 c 0.076,-0.29064 0.0996,-0.52844 0.0524,-0.52844 -0.0472,0 -0.27383,-0.0722 -0.5037,-0.16036 -0.29261,-0.1123 -0.41793,-0.007 -0.41793,0.35229 0,0.94013 0.64595,1.19022 0.8692,0.33651 z m 2.03717,0.26925 c 0,-0.31651 -1.275601,-0.66702 -1.523891,-0.41873 -0.229579,0.22958 0.462021,0.66862 1.061511,0.67386 0.254309,0.002 0.46238,-0.11258 0.46238,-0.25513 z m 32.046998,-0.53225 c -0.0758,-0.28989 -0.281537,-0.43453 -0.499239,-0.35099 -0.422519,0.16214 -0.423929,0.16677 -0.21631,0.7078 0.217561,0.56696 0.871802,0.24072 0.715549,-0.35681 z m 15.848159,0.28006 c 0.0763,-0.29177 -0.0203,-0.57046 -0.22493,-0.649 -0.44101,-0.16923 -0.73819,0.25869 -0.53941,0.7767 0.20816,0.54245 0.6065,0.47591 0.76434,-0.1277 z m 2.16046,0.26865 c 0.17315,-0.28017 -1.3912,-0.6867 -1.64931,-0.42859 -0.22139,0.2214 0.47363,0.66202 1.05252,0.66726 0.24573,0.002 0.51428,-0.10517 0.59679,-0.23867 z m 32.02678,-0.17136 c 0.20161,-0.52538 -0.20608,-0.95046 -0.64902,-0.67671 -0.35951,0.22219 -0.16372,1.09079 0.24588,1.09079 0.13433,0 0.31574,-0.18634 0.40314,-0.41408 z m -31.44219,-0.70884 c -0.0733,-0.18165 -0.13326,-0.033 -0.13326,0.33028 0,0.36329 0.06,0.51191 0.13326,0.33026 0.0733,-0.18165 0.0733,-0.47889 0,-0.66054 z m -49.931288,0.0165 c -0.0843,-0.21077 -0.14695,-0.14816 -0.15963,0.15964 -0.0115,0.27852 0.051,0.43457 0.13877,0.34678 0.0878,-0.0878 0.0972,-0.31569 0.0208,-0.50642 z m -0.20347,-1.03482 c 0.17869,-0.5964 0.38549,-1.2423 0.45957,-1.43533 0.0788,-0.20528 -0.1978,-0.52289 -0.666269,-0.76515 -0.86414,-0.44686 -1.3842,-0.53276 -1.307851,-0.21602 0.0263,0.10899 -0.152079,0.84396 -0.396319,1.63325 -0.244251,0.7893 -0.44409,1.46469 -0.44409,1.50087 0,0.0752 0.98298,0.27716 1.60952,0.33076 0.276639,0.0237 0.53174,-0.3351 0.745439,-1.04838 z m 30.460502,0.64963 c 0.241818,-0.14181 -0.882481,-3.26429 -1.175372,-3.26429 -0.12355,0 -0.562981,0.17496 -0.976501,0.3888 l -0.75184,0.38879 0.542452,1.47255 c 0.52768,1.43246 0.564689,1.46779 1.35945,1.29754 0.44935,-0.0963 0.900171,-0.22378 1.001811,-0.28339 z m 19.476296,-0.64963 c 0.17869,-0.5964 0.38549,-1.2423 0.45956,-1.43533 0.11046,-0.28784 -1.09237,-1.17933 -1.5912,-1.17933 -0.0682,0 -0.32921,0.62421 -0.58004,1.38714 -0.25082,0.76292 -0.50751,1.52695 -0.57043,1.69784 -0.1005,0.27302 0.18265,0.37049 1.66878,0.57446 0.15865,0.0218 0.43465,-0.44838 0.61333,-1.04478 z m 30.60413,0.71035 c 0.0987,-0.0964 -1.02163,-3.32501 -1.15383,-3.32501 -0.064,0 -0.53375,0.17441 -1.04392,0.38757 -0.90435,0.37787 -0.9183,0.40598 -0.55702,1.12292 0.2038,0.40444 0.45202,1.07455 0.5516,1.48912 0.1698,0.70696 0.24184,0.74242 1.15999,0.57092 0.53843,-0.10056 1.00786,-0.21105 1.04318,-0.24552 z M 42.050808,44.56405 c -0.367739,-0.90501 -0.61396,-1.7339 -0.547161,-1.84199 0.0668,-0.10808 0.4807,-0.34532 0.919771,-0.52719 0.439079,-0.18187 0.798319,-0.44894 0.798319,-0.59349 0,-0.14455 -0.43167,-0.85087 -0.95927,-1.56961 l -0.959268,-1.30678 -0.745281,0.71402 -0.745289,0.71403 0.80527,1.17042 c 0.442899,0.64372 0.747918,1.22776 0.677828,1.29785 -0.0701,0.0701 -0.37795,-0.27789 -0.68412,-0.7733 -0.60193,-0.97394 -2.637819,-2.97226 -3.811868,-3.74153 -0.400571,-0.26246 -0.664962,-0.54057 -0.587531,-0.618 0.0774,-0.0774 0.65827,0.23082 1.29073,0.68502 l 1.149929,0.82582 0.69128,-0.72154 0.691279,-0.72154 -0.850839,-0.67711 c -0.937059,-0.74572 -2.042549,-1.38384 -2.16095,-1.24736 -0.0417,0.0481 -0.272388,0.47388 -0.51258,0.94616 -0.240188,0.47229 -0.56167,0.8587 -0.714391,0.8587 -0.152709,0 0.296212,0.43096 0.997601,0.95769 0.70139,0.52673 1.603629,1.2637 2.004981,1.63772 1.049819,0.97834 2.708989,3.65018 3.27315,5.27088 0.266689,0.76615 0.521369,1.28356 0.565959,1.1498 0.0446,-0.13376 -0.21981,-0.98366 -0.587549,-1.88867 z m 50.095877,0.36906 c -0.27823,-0.70807 -0.58407,-1.47158 -0.67966,-1.69669 -0.12426,-0.29263 0.13454,-0.58258 0.90797,-1.01727 0.95566,-0.53711 1.0397,-0.6588 0.72091,-1.0439 -0.19846,-0.23976 -0.695,-0.89129 -1.10342,-1.44785 l -0.74257,-1.01192 -0.74293,0.71177 -0.74294,0.71178 0.77249,1.06639 c 0.42487,0.58651 0.77249,1.1939 0.77249,1.34975 0,0.15585 -0.19577,-0.0106 -0.43504,-0.36991 -1.07936,-1.62081 -4.56277,-4.74863 -5.28849,-4.74863 -0.11654,0 0.26158,0.31335 0.84026,0.69632 2.56051,1.69458 4.76399,4.51394 5.59956,7.16468 0.24991,0.7928 0.49327,1.32478 0.54081,1.18217 0.0475,-0.14261 -0.14121,-0.83862 -0.41944,-1.54669 z M 16.167367,43.32117 c -0.12716,-0.12717 -1.2179,2.47121 -1.21045,2.88356 0.003,0.19104 0.29698,-0.35984 0.65229,-1.22417 0.35531,-0.86435 0.60648,-1.61107 0.55816,-1.65939 z m 50.828898,-1.12102 c 0.86362,-1.34584 2.91262,-3.36229 4.36446,-4.29514 0.56937,-0.36583 0.63136,-0.46326 0.22006,-0.34587 -0.45595,0.13013 -0.54974,0.067 -0.46043,-0.30982 0.0617,-0.26028 -0.11263,-0.76106 -0.38737,-1.11288 l -0.49951,-0.63964 -1.35323,0.99337 -1.35323,0.99336 0.54771,0.76919 c 0.30125,0.42307 0.61757,0.7692 0.70295,0.7692 0.0854,0 0.54494,-0.29724 1.02124,-0.66054 1.53895,-1.17381 1.2878,-0.70258 -0.49737,0.93321 -0.95661,0.87654 -1.99799,2.01232 -2.31419,2.52395 -0.31619,0.5116 -0.6408,0.8643 -0.72134,0.78376 -0.0806,-0.0805 0.22517,-0.66392 0.67937,-1.29638 l 0.82582,-1.14993 -0.74646,-0.71516 -0.74646,-0.71515 -0.8765,1.13893 c -0.48208,0.62641 -0.98178,1.28015 -1.11045,1.45275 -0.1577,0.21154 0.009,0.4452 0.51135,0.71692 1.49282,0.80743 1.47427,0.75122 0.7566,2.29294 -0.36668,0.78771 -0.66502,1.61056 -0.66299,1.82854 0.002,0.21797 0.28332,-0.28361 0.62509,-1.11463 0.34177,-0.83101 1.00547,-2.10946 1.47488,-2.84098 z m -54.813327,0.8356 c -0.164441,-0.16443 -0.67553,1.19943 -0.82266,2.19524 -0.0705,0.47711 0.0946,0.2226 0.41471,-0.63936 0.292509,-0.78759 0.476079,-1.48775 0.40795,-1.55588 z m 33.813069,1.27049 c -0.247589,-0.74543 -0.509349,-1.29612 -0.581678,-1.22378 -0.11262,0.11262 0.0443,0.76209 0.60797,2.51662 0.065,0.20245 0.187018,0.29933 0.271068,0.21529 0.084,-0.084 -0.0498,-0.76271 -0.29736,-1.50813 z m 16.104708,-0.68972 c 0.12577,-0.64784 0.069,-0.6034 -0.37511,0.29339 -0.28783,0.58129 -0.51675,1.29467 -0.5087,1.5853 0.011,0.39731 0.10407,0.32451 0.3751,-0.29339 0.19826,-0.45201 0.42718,-1.16539 0.50871,-1.5853 z m 33.83209,0.68972 c -0.24759,-0.74543 -0.50962,-1.29586 -0.58228,-1.22321 -0.0727,0.0727 0.0705,0.74201 0.31806,1.48742 0.24759,0.74542 0.50961,1.29587 0.58227,1.22321 0.0727,-0.0727 -0.0705,-0.742 -0.31805,-1.48742 z m -80.189518,-0.9999 c 0,-0.11398 -0.34654,-0.41196 -0.77009,-0.66215 -0.582849,-0.3443 -0.798269,-0.37421 -0.88601,-0.12302 -0.0638,0.18253 0.134171,0.47629 0.439831,0.65279 0.641199,0.37025 1.216269,0.43284 1.216269,0.13238 z m 27.069701,-0.0994 c 0.680169,-0.30991 0.909881,-0.75023 0.391379,-0.75023 -0.45176,0 -1.30371,0.52405 -1.30371,0.80194 0,0.32605 0.0951,0.32066 0.912331,-0.0517 z m 22.867097,0.0368 c 0,-0.36046 -1.27047,-0.92566 -1.51994,-0.67619 -0.22799,0.22798 0.66319,0.94607 1.17412,0.94607 0.1902,0 0.34582,-0.12145 0.34582,-0.26988 z m 27.313,-0.0272 c 0.37829,-0.17236 0.59456,-0.44695 0.5151,-0.654 -0.11322,-0.29505 -0.26988,-0.28816 -0.90384,0.0397 -1.28371,0.66383 -0.93374,1.21689 0.38874,0.61433 z M 18.515287,40.36872 c 0.72786,-0.78514 1.85198,-1.76604 2.49804,-2.17978 0.646051,-0.41375 1.05031,-0.75227 0.898341,-0.75227 -0.801061,0 -4.686191,3.65583 -5.342411,5.02709 l -0.31276,0.65355 0.4677,-0.66053 c 0.25723,-0.36329 1.06322,-1.30293 1.79109,-2.08806 z m -4.73935,2.06504 c 0.27228,-0.44055 -0.340099,-0.94577 -0.704589,-0.58128 -0.30488,0.30488 -0.114061,0.86852 0.294039,0.86852 0.12817,0 0.31291,-0.12926 0.41055,-0.28724 z m 3.10431,-1.07232 0.93121,-1.22742 -0.78235,-0.74955 c -0.47759,-0.45756 -0.85468,-0.64348 -0.96801,-0.47727 -0.10211,0.14976 -0.57046,0.82066 -1.04077,1.49093 l -0.855099,1.21866 0.848169,0.53703 c 0.46649,0.29536 0.86785,0.51408 0.89191,0.48604 0.024,-0.028 0.46278,-0.60333 0.97494,-1.27842 z m 27.761692,1.14877 c 0.0717,-0.11591 0.0312,-0.37104 -0.0898,-0.56693 -0.297349,-0.48111 -1.101277,-0.14985 -0.901258,0.37139 0.16509,0.43022 0.77206,0.54998 0.991111,0.19554 z M 63.828025,42.3278 c 0.2653,-0.31967 0.24166,-0.42569 -0.12643,-0.56694 -0.41564,-0.15949 -0.91337,0.25104 -0.9238,0.76198 -0.007,0.34663 0.71141,0.2132 1.05023,-0.19504 z m 30.75071,0.18241 c 0.0717,-0.11591 0.0242,-0.38245 -0.10551,-0.59227 -0.17823,-0.28836 -0.31025,-0.30704 -0.54082,-0.0765 -0.16777,0.16778 -0.22516,0.4343 -0.12752,0.59228 0.20864,0.33759 0.58922,0.37519 0.77385,0.0765 z M 15.046827,38.55959 c 0.10959,-0.18165 0.13354,-0.33026 0.0532,-0.33026 -0.21677,0 -1.734649,2.15016 -1.734649,2.45723 0,0.22888 1.09834,-1.16047 1.681439,-2.12697 z m 28.439171,0.8587 c -0.463971,-0.67434 -0.89716,-1.17253 -0.962631,-1.10706 -0.0655,0.0655 0.256241,0.67512 0.714931,1.35477 0.458679,0.67965 0.89186,1.17782 0.96263,1.10706 0.0708,-0.0708 -0.250959,-0.68041 -0.71493,-1.35477 z m 20.980367,0.0487 c 0.40628,-0.55449 0.6787,-1.06816 0.60537,-1.14148 -0.1428,-0.1428 -1.76955,2.10788 -1.76955,2.44826 0,0.23973 0.17473,0.0436 1.16418,-1.30678 z m 29.74907,1.19233 c 0,-0.31347 -1.62947,-2.47389 -1.76425,-2.33912 -0.10747,0.10747 1.50464,2.55128 1.68301,2.55128 0.0447,0 0.0812,-0.0955 0.0812,-0.21216 z m -75.721578,-1.0705 c 0.20912,-0.33836 -1.079,-1.44398 -1.42976,-1.2272 -0.20915,0.12927 -0.11869,0.38454 0.29072,0.82033 0.6312,0.67189 0.91303,0.77255 1.13904,0.40687 z m 21.91764,-1.15356 c -0.0835,-0.13512 -0.432879,0.0183 -0.776359,0.34104 -0.34349,0.32268 -0.556202,0.69725 -0.472691,0.83239 0.0835,0.13512 0.432879,-0.0183 0.776369,-0.34104 0.343482,-0.32269 0.556192,-0.69726 0.472681,-0.83239 z m 27.549948,0.36999 c -0.37401,-0.37401 -0.76335,-0.59668 -0.8652,-0.49482 -0.25523,0.25523 0.97756,1.52565 1.29192,1.33137 0.13931,-0.0861 -0.0527,-0.46255 -0.42672,-0.83655 z m 22.47386,-0.48089 c -0.25522,-0.25523 -1.52565,0.97756 -1.33136,1.29192 0.0861,0.13932 0.46254,-0.0527 0.83655,-0.42672 0.374,-0.37401 0.59667,-0.76333 0.49481,-0.8652 z m -70.370438,-0.146 c 0.60219,-0.46399 1.13338,-0.86908 1.18043,-0.9002 0.159641,-0.10562 -0.75829,-1.691 -0.97909,-1.691 -0.50504,0 -2.67407,1.90036 -2.50658,2.1961 0.25372,0.44799 0.95026,1.23871 1.09117,1.23871 0.0656,0 0.61189,-0.37962 1.21407,-0.84361 z m 69.339338,0.0693 0.57247,-0.77429 -1.35219,-0.9926 -1.35218,-0.99259 -0.49167,0.60719 c -0.27042,0.33396 -0.49167,0.74985 -0.49167,0.92418 0,0.27588 1.99033,1.92262 2.39431,1.98096 0.0817,0.0118 0.40608,-0.32699 0.72093,-0.75285 z M 16.940047,37.44919 c -0.27175,-0.43969 -0.94414,0.17816 -0.74856,0.68782 0.13474,0.35113 0.1982,0.35184 0.54399,0.006 0.2153,-0.2153 0.30736,-0.52753 0.20457,-0.69385 z m 24.303821,0.0102 c -0.364921,-0.36482 -0.45013,-0.3689 -0.65869,-0.0316 -0.352841,0.57072 0.20516,1.17483 0.703299,0.76141 0.321479,-0.26681 0.315161,-0.37017 -0.0446,-0.72985 z m 25.725537,0.0711 c -0.23024,-0.27743 -0.38962,-0.29224 -0.66705,-0.062 -0.27743,0.23025 -0.29224,0.38963 -0.062,0.66706 0.23025,0.27743 0.38963,0.29224 0.66706,0.062 0.27743,-0.23024 0.29224,-0.38962 0.062,-0.66705 z m 24.30786,0 c -0.22372,-0.26957 -0.39373,-0.28884 -0.65264,-0.074 -0.27434,0.22769 -0.28105,0.36562 -0.031,0.63731 0.45696,0.49649 1.11394,-0.0449 0.68364,-0.56334 z M 13.923108,36.43728 c -0.108921,-1.78672 -0.2935,-1.73978 -0.2935,0.0746 0,0.8477 0.0831,1.45813 0.18474,1.35653 0.1016,-0.10161 0.15054,-0.74563 0.10876,-1.43117 z m -0.821931,0.20677 c 0,-0.64686 -0.109819,-0.79266 -0.59699,-0.79266 -0.628439,0 -1.38084,0.8997 -1.113769,1.33183 0.0862,0.13941 0.506319,0.25346 0.9337,0.25346 0.68725,0 0.777059,-0.0916 0.777059,-0.79263 z m 13.42097,-0.56443 c 0.632771,-0.0319 0.64574,-0.0492 0.11326,-0.15138 -0.6201,-0.11899 -3.9164,0.85886 -4.14568,1.22984 -0.0709,0.11475 0.64658,-0.0728 1.59445,-0.41691 0.94787,-0.34405 2.04495,-0.64176 2.43797,-0.66155 z m 7.584192,0.69339 c -0.726602,-0.3408 -1.796672,-0.68853 -2.377951,-0.77276 -0.803051,-0.11634 -0.676151,-0.0384 0.528429,0.32442 0.871921,0.26264 1.82309,0.61669 2.113729,0.78674 0.290643,0.17006 0.647333,0.30291 0.792652,0.29523 0.14532,-0.008 -0.330271,-0.29283 -1.056859,-0.63363 z m 24.439956,-3.9601 4.61812,-4.62378 h 1.25785 c 0.94195,0 1.25786,-0.0995 1.25786,-0.39632 0,-0.34649 -1.5119,-0.39633 -12.02182,-0.39633 -10.509918,0 -12.021816,0.0498 -12.021816,0.39633 0,0.29672 0.31573,0.39632 1.256289,0.39632 h 1.256289 l 4.622509,4.62169 c 2.542389,2.54192 4.742689,4.62262 4.889559,4.62377 0.14688,10e-4 2.3452,-2.0786 4.88516,-4.62168 z m 16.76686,3.33588 c -0.13711,-0.13711 -2.5417,0.74697 -2.88437,1.06048 -0.13919,0.12734 0.47749,-0.0345 1.37039,-0.35973 0.8929,-0.32519 1.57419,-0.64054 1.51398,-0.70075 z m 9.78684,1.02368 c -0.0898,-0.14532 -0.3049,-0.2624 -0.47798,-0.26017 -0.18907,0.002 -0.15648,0.10627 0.0816,0.26017 0.50759,0.32803 0.59906,0.32803 0.39633,0 z M 71.991545,36.0237 c -0.1756,-0.3854 -0.49309,-0.70073 -0.70554,-0.70073 -0.30822,0 -0.32175,-0.0777 -0.0669,-0.38476 0.45548,-0.54882 0.10549,-1.00624 -0.5156,-0.67385 -0.46505,0.2489 -0.44533,0.33732 0.34631,1.55293 0.86009,1.32072 1.51488,1.46423 0.94178,0.20641 z m 14.86347,-1.69254 c -0.55515,-0.45347 -1.03347,0.0323 -0.57534,0.58428 0.27853,0.33561 0.27005,0.40753 -0.0481,0.40753 -0.43614,0 -1.0878,1.22869 -0.85308,1.60847 0.0842,0.13629 0.54215,-0.31849 1.01759,-1.01061 0.76105,-1.10792 0.81593,-1.29803 0.45889,-1.58967 z m -64.810097,1.78445 c -0.151971,-0.43595 -0.443031,-0.79264 -0.646791,-0.79264 -0.47933,0 -0.46823,0.27129 0.0408,0.99806 0.5886,0.84036 0.93016,0.72456 0.60596,-0.20542 z m 14.131,0.1624 c 0.38101,-0.5815 0.345969,-0.95504 -0.0896,-0.95504 -0.159628,0 -0.791019,1.16983 -0.791019,1.46561 0,0.34233 0.518911,0.0415 0.880621,-0.51057 z m 47.338777,0.22439 c -0.43595,-0.19962 -0.97099,-0.35928 -1.18897,-0.35478 -0.21798,0.004 0.0198,0.16845 0.52843,0.36431 1.20633,0.46455 1.68096,0.4577 0.66054,-0.01 z M 25.539737,34.71639 c -0.21273,-1.04644 -0.97613,-1.22368 -2.43574,-0.56549 -1.13455,0.51161 -1.13207,0.50611 -0.73755,1.63782 l 0.28194,0.80877 1.53172,-0.51728 c 1.51202,-0.51061 1.529501,-0.52816 1.35963,-1.36382 z m 9.636939,1.01144 c 0.210561,-0.50394 0.382842,-0.9679 0.382842,-1.03102 0,-0.14285 -1.438931,-0.67977 -2.552901,-0.95256 -0.798349,-0.19553 -0.843159,-0.16378 -1.007841,0.71407 -0.206139,1.09876 -0.202258,1.10344 1.383631,1.66873 0.6888,0.24553 1.28815,0.46231 1.331891,0.48173 0.0437,0.0194 0.25182,-0.37701 0.462378,-0.88095 z m 40.434359,-0.77948 c -0.0812,-0.30254 -0.14933,-0.69871 -0.15132,-0.88036 -0.005,-0.47431 -1.40354,-0.4101 -2.50469,0.115 -1.05353,0.50239 -1.08734,0.60499 -0.54492,1.6539 l 0.38879,0.75185 1.47992,-0.54516 c 1.26588,-0.46631 1.45856,-0.62473 1.33222,-1.09523 z m 9.48217,0.91622 c 0.57489,-1.11171 0.53111,-1.21352 -0.72864,-1.69463 -1.54177,-0.5888 -2.30306,-0.56415 -2.30306,0.0746 0,0.27876 -0.0656,0.6778 -0.14578,0.88674 -0.10303,0.26849 0.26511,0.53742 1.25502,0.91684 0.77045,0.2953 1.42748,0.55021 1.46008,0.56645 0.0326,0.0162 0.24067,-0.32125 0.46238,-0.75 z m -66.311388,-0.67885 0.79264,-0.69185 -0.87642,0.48064 c -0.48204,0.26433 -1.07652,0.70599 -1.32108,0.98144 -0.42283,0.47625 -0.41872,0.48661 0.0838,0.21123 0.29063,-0.15929 0.88512,-0.60093 1.32108,-0.98146 z m 21.797802,1.07476 c 0,-0.19747 -2.406251,-1.78987 -2.52508,-1.67104 -0.0605,0.0605 0.393718,0.47846 1.00938,0.92878 1.071049,0.78342 1.5157,1.00117 1.5157,0.74226 z m 27.340236,-0.40229 c 0.25967,-0.28691 0.69424,-0.59217 0.96571,-0.67834 0.27147,-0.0862 0.49358,-0.27173 0.49358,-0.41235 0,-0.31922 -0.64159,0.028 -1.7174,0.92928 -0.43596,0.36526 -0.66245,0.66838 -0.50333,0.6736 0.15913,0.005 0.50178,-0.22526 0.76144,-0.51219 z m 22.59656,0.40229 c 0,-0.0657 -0.53504,-0.48754 -1.18897,-0.93746 -1.42375,-0.97956 -1.59268,-0.70129 -0.1883,0.31017 0.94654,0.68172 1.37727,0.8779 1.37727,0.62729 z m -13.54106,-0.32695 c -0.25431,-0.0665 -0.67045,-0.0665 -0.92476,0 -0.2543,0.0665 -0.0462,0.12085 0.46238,0.12085 0.50862,0 0.71669,-0.0544 0.46238,-0.12085 z m 4.6288,0.009 c -0.17888,-0.0724 -0.53557,-0.0768 -0.79264,-0.01 -0.25708,0.067 -0.11072,0.1262 0.32524,0.1316 0.43595,0.005 0.64629,-0.0494 0.4674,-0.12181 z M 29.680717,35.66237 c -0.399629,-0.0605 -1.05356,-0.0605 -1.453189,0 -0.399621,0.0605 -0.0727,0.11007 0.726599,0.11007 0.799251,0 1.12622,-0.0495 0.72659,-0.11007 z m 49.808318,0.003 c -0.32497,-0.0627 -0.91945,-0.0643 -1.32108,-0.004 -0.40162,0.0607 -0.13574,0.11205 0.59086,0.11403 0.72659,0.002 1.05519,-0.0477 0.73022,-0.11041 z M 26.595997,35.2503 c -0.0109,-0.10537 -0.0198,-0.48881 -0.0198,-0.8521 0,-0.43056 -0.14784,-0.66054 -0.42459,-0.66054 -0.27862,0 -0.36946,0.14367 -0.26422,0.41794 0.0882,0.22986 0.16038,0.65591 0.16038,0.94677 0,0.29085 0.12781,0.48624 0.28403,0.43416 0.15622,-0.0521 0.27511,-0.18088 0.26422,-0.28623 z m 4.872329,-0.47467 c 0.166931,-0.76005 0.02612,-1.28843 -0.265617,-0.99668 -0.0711,0.0711 -0.204902,0.5071 -0.297241,0.96879 -0.21951,1.09758 0.322019,1.12441 0.562858,0.0279 z m 45.205029,0.39361 c -0.0882,-0.22987 -0.16038,-0.64601 -0.16038,-0.92476 0,-0.27875 -0.1189,-0.50682 -0.26421,-0.50682 -0.29392,0 -0.35103,0.78741 -0.10384,1.43158 0.0882,0.22986 0.27927,0.41793 0.42459,0.41793 0.14532,0 0.19204,-0.18807 0.10384,-0.41793 z m 4.81041,-0.59322 c 0.0462,-0.46797 -0.0413,-0.83836 -0.19816,-0.83836 -0.15453,0 -0.28258,0.14861 -0.28457,0.33027 -0.002,0.18165 -0.0795,0.61371 -0.17217,0.96012 -0.12568,0.46962 -0.0743,0.59889 0.20177,0.50809 0.20368,-0.067 0.40759,-0.49903 0.45313,-0.96012 z m -51.104728,0.329 c 0.0882,-0.22986 0.160381,-0.70546 0.160381,-1.05686 0,-0.60851 -0.0797,-0.63893 -1.673361,-0.63893 -0.92036,0 -1.72919,0.0558 -1.797399,0.12403 -0.0682,0.0682 -0.075,0.5438 -0.0151,1.05687 l 0.1089,0.93283 h 1.52812 c 1.14971,0 1.56783,-0.10351 1.68849,-0.41794 z m 6.60568,-0.55996 c -0.619659,-0.45312 -1.11918,-0.005 -0.639141,0.57363 0.270881,0.32639 0.420042,0.34512 0.726041,0.0912 0.33383,-0.27705 0.322252,-0.36561 -0.0869,-0.66479 z m 43.441398,-0.14502 0.082,-0.99081 h -1.73335 -1.73336 v 1.06947 1.06947 l 1.65135,-0.0787 1.65135,-0.0787 z M 21.361727,34.9008 c 0.0869,-0.0869 0.0948,-0.32248 0.0176,-0.52359 -0.10532,-0.27447 -0.26735,-0.29767 -0.64973,-0.093 -0.28018,0.14995 -0.43963,0.38557 -0.35432,0.52359 0.17361,0.28092 0.74468,0.33477 0.986431,0.093 z m 3.28206,-2.31328 c 0.28367,-0.28366 -0.28251,-0.19441 -1.58745,0.25022 -0.67982,0.23164 -1.23604,0.5106 -1.23604,0.61994 0,0.20707 2.52417,-0.57082 2.82349,-0.87016 z m 49.936798,0 c 0.28367,-0.28366 -0.28251,-0.19441 -1.58745,0.25022 -0.67983,0.23164 -1.23604,0.5106 -1.23604,0.61994 0,0.20707 2.52416,-0.57082 2.82349,-0.87016 z m -48.004408,0.32923 c 0,-0.39909 -0.11832,-0.5113 -0.41793,-0.39633 -0.229859,0.0882 -0.46766,0.16038 -0.52843,0.16038 -0.0608,0 -0.1105,0.17835 -0.1105,0.39631 0,0.22019 0.23486,0.39633 0.52843,0.39633 0.361241,0 0.52843,-0.17614 0.52843,-0.55669 z m 5.371479,0.18224 c 0.079,-0.20595 -0.0369,-0.44376 -0.257558,-0.52844 -0.587701,-0.22551 -0.62225,-0.20473 -0.62225,0.37447 0,0.60301 0.662969,0.71903 0.879808,0.15397 z m 2.819212,-0.15397 c -1.227129,-0.51493 -2.087001,-0.67815 -1.73981,-0.33028 0.237429,0.23791 1.975329,0.79805 2.53246,0.81624 0.217979,0.007 -0.138711,-0.21157 -0.79265,-0.48596 z m 41.746107,0 c 0,-0.57364 -0.19493,-0.6479 -0.76044,-0.28971 -0.4263,0.27001 -0.1719,0.81813 0.37971,0.81813 0.2094,0 0.38073,-0.23779 0.38073,-0.52842 z m 5.54853,0.16037 c 0,-0.20243 -0.18806,-0.44022 -0.41793,-0.52844 -0.60621,-0.23263 -0.63893,-0.21377 -0.63893,0.36807 0,0.35228 0.17615,0.52842 0.52843,0.52842 0.29064,0 0.52843,-0.16562 0.52843,-0.36805 z m 3.00931,-0.0355 c -1.11276,-0.48811 -2.4039,-0.78665 -2.12898,-0.49229 0.25213,0.26996 1.96442,0.83746 2.55448,0.84662 0.21798,0.003 0.0265,-0.15608 -0.4255,-0.35433 z M 30.143097,32.01928 c 0.14532,-0.0492 -0.419449,-0.0988 -1.25503,-0.11025 -0.83558,-0.0115 -1.51924,0.0834 -1.51924,0.2109 0,0.20589 2.09249,0.12996 2.77427,-0.10065 z m 50.068898,0.0671 c 0,-0.10899 -0.65393,-0.19816 -1.45318,-0.19816 -0.79926,0 -1.45319,0.0892 -1.45319,0.19816 0,0.10899 0.65393,0.19817 1.45319,0.19817 0.79925,0 1.45318,-0.0892 1.45318,-0.19817 z M 13.233278,30.83134 c -0.0898,-0.14532 -0.28219,-0.26422 -0.42751,-0.26422 -0.14531,0 -0.19073,0.1189 -0.100921,0.26422 0.0898,0.14532 0.282191,0.26421 0.427511,0.26421 0.14532,0 0.19074,-0.11889 0.10092,-0.26421 z m 81.461047,-0.2477 c 0.0661,-0.19817 -0.033,-0.29725 -0.23118,-0.23119 -0.19074,0.0636 -0.3988,0.27164 -0.46238,0.46238 -0.0661,0.19816 0.033,0.29724 0.23119,0.23118 0.19073,-0.0636 0.3988,-0.27164 0.46237,-0.46237 z m 3.76279,-3.07763 0.91053,-0.9474 -2.11372,-1.95137 -2.11373,-1.95138 -41.38451,-0.008 -41.384508,-0.008 -2.05887,1.78345 c -2.3966998,2.07611 -2.6138888,2.444 -1.4427988,2.444 0.691159,0 0.80601,-0.0834 0.676589,-0.49113 -0.17794,-0.56063 0.2711,-0.97414 1.0450298,-0.96235 0.393291,0.006 0.526441,0.18422 0.52064,0.69692 -0.008,0.66659 0.0557,0.69424 1.955431,0.85483 1.07977,0.0913 19.99691,0.16595 42.038097,0.16595 h 40.07489 l 0.62055,0.66054 c 0.8525,0.90744 1.58452,0.82839 2.65638,-0.28685 z m -2.34187,-1.3645 c 0.061,-0.31669 0.33652,-0.46238 0.87446,-0.46238 0.53794,0 0.81347,0.14569 0.87446,0.46238 0.0717,0.37211 -0.0991,0.46238 -0.87446,0.46238 -0.7754,0 -0.94612,-0.0903 -0.87446,-0.46238 z m -82.305147,1.4697 c -0.0843,-0.21077 -0.14696,-0.14817 -0.15963,0.15963 -0.0115,0.27853 0.051,0.43458 0.13877,0.34678 0.0878,-0.0878 0.0972,-0.31568 0.0208,-0.50641 z m 2.725879,0.18165 c 0,-0.28624 -0.29357,-0.39633 -1.05686,-0.39633 -0.76329,0 -1.056869,0.11009 -1.056869,0.39633 0,0.28623 0.293579,0.39632 1.056869,0.39632 0.76329,0 1.05686,-0.11009 1.05686,-0.39632 z m 76.622598,0 c 0,-0.28525 -0.29184,-0.39633 -1.04127,-0.39633 -1.00345,0 -1.50553,0.27151 -1.15335,0.62369 0.0929,0.0929 0.62474,0.16896 1.18179,0.16896 0.72415,0 1.01283,-0.11296 1.01283,-0.39632 z m 0.4447,-0.18165 c -0.0843,-0.21077 -0.14695,-0.14817 -0.15962,0.15963 -0.0115,0.27853 0.051,0.43458 0.13877,0.34678 0.0878,-0.0878 0.0972,-0.31568 0.0208,-0.50641 z m -52.231007,0.0495 c 0,-0.17236 -4.271492,-0.26422 -12.286041,-0.26422 -8.01454,0 -12.28603,0.0919 -12.28603,0.26422 0,0.17235 4.27149,0.26421 12.28603,0.26421 8.014549,0 12.286041,-0.0919 12.286041,-0.26421 z m 49.144147,0 c 0,-0.17231 -4.22226,-0.26422 -12.13833,-0.26422 -7.80722,0 -12.19661,0.0943 -12.30163,0.26422 -0.10797,0.1747 4.00452,0.26421 12.13833,0.26421 8.02494,0 12.30163,-0.0918 12.30163,-0.26421 z m 4.22745,-5.54554 c 0,-0.36287 -81.814968,-0.36551 -82.039237,-0.003 -0.1083,0.17525 13.641459,0.26386 40.938087,0.26386 26.91075,0 41.10115,-0.0902 41.10115,-0.26122 z M 18.121277,21.05531 c 0,-0.14707 -0.70978,-0.26421 -1.60089,-0.26421 -0.99998,0 -1.5396,0.0992 -1.4376,0.26421 0.0898,0.14532 0.81022,0.26422 1.60089,0.26422 0.79068,0 1.4376,-0.1189 1.4376,-0.26422 z m 1.84951,0 c 0,-0.14532 -0.2378,-0.26421 -0.52843,-0.26421 -0.29064,0 -0.52844,0.11889 -0.52844,0.26421 0,0.14532 0.2378,0.26422 0.52844,0.26422 0.29063,0 0.52843,-0.1189 0.52843,-0.26422 z m 4.35956,0 c 0.10297,-0.16661 -0.52569,-0.26421 -1.70181,-0.26421 -1.06726,0 -1.8651,0.11302 -1.8651,0.26421 0,0.1488 0.74341,0.26422 1.7018,0.26422 0.936,0 1.7753,-0.1189 1.86511,-0.26422 z m 4.88799,-0.13211 c 0,-0.3212 -0.42568,-0.39632 -2.24583,-0.39632 -1.82016,0 -2.24584,0.0751 -2.24584,0.39632 0,0.32121 0.42568,0.39633 2.24584,0.39633 1.82015,0 2.24583,-0.0751 2.24583,-0.39633 z m 11.82389,-0.066 c 0.0853,-0.25631 -0.98969,-0.33027 -4.80015,-0.33027 -4.220639,0 -4.910008,0.0565 -4.910008,0.40229 0,0.34811 0.646348,0.39258 4.800147,0.33027 3.552772,-0.0533 4.828702,-0.15784 4.910011,-0.40229 z m 1.91534,0.0477 c 0,-0.2754 -0.192739,-0.38634 -0.573789,-0.33027 -0.845891,0.12447 -0.93649,0.74497 -0.10877,0.74497 0.44401,0 0.682559,-0.14493 0.682559,-0.4147 z m 22.722558,0.0184 c 0,-0.22018 -0.23486,-0.39632 -0.52843,-0.39632 -0.29357,0 -0.52843,0.17614 -0.52843,0.39632 0,0.22018 0.23486,0.39633 0.52843,0.39633 0.29357,0 0.52843,-0.17615 0.52843,-0.39633 z m 21.07128,-0.066 c 0.0867,-0.2604 -2.0463,-0.33026 -10.0843,-0.33026 -8.92109,0 -10.19433,0.0499 -10.19433,0.39946 0,0.35071 1.23089,0.39102 10.0843,0.33027 7.78277,-0.0534 10.10941,-0.14457 10.19433,-0.39946 z m 1.80111,0 c -0.10043,-0.68652 -0.94247,-0.76284 -0.94247,-0.0854 0,0.36321 0.17019,0.54781 0.50505,0.54781 0.33062,0 0.48169,-0.15969 0.43742,-0.46238 z M 17.592847,19.99861 c 0,-0.46438 -0.17615,-0.52843 -1.45319,-0.52843 -1.27704,0 -1.45319,0.0641 -1.45319,0.52843 0,0.46438 0.17615,0.52843 1.45319,0.52843 1.27704,0 1.45319,-0.064 1.45319,-0.52843 z m 13.14473,-0.71056 c -0.2543,-0.0665 -0.67044,-0.0665 -0.924749,0 -0.254311,0.0665 -0.0462,0.12083 0.46238,0.12083 0.508609,0 0.716681,-0.0544 0.462369,-0.12083 z m -6.34958,-0.24462 c -0.20324,-0.20324 -9.17248,-0.19037 -9.3763,0.0135 -0.082,0.082 2.0307,0.14908 4.69487,0.14908 2.66418,0 4.77082,-0.0731 4.68143,-0.16253 z m -1.68377,-0.69617 c -0.0674,-0.10899 -1.47575,-0.19816 -3.12977,-0.19816 -1.65401,0 -3.0624,0.0892 -3.12976,0.19816 -0.0674,0.10899 1.34103,0.19816 3.12976,0.19816 1.78873,0 3.19713,-0.0892 3.12977,-0.19816 z m 8.34505,0.13211 c -0.01021,-0.10899 -0.120749,-0.43596 -0.245639,-0.7266 -0.19418,-0.45186 -0.22977,-0.46143 -0.24565,-0.066 -0.0209,0.52048 -0.544751,0.64607 -0.551051,0.13211 -0.003,-0.22018 -0.0894,-0.19816 -0.26017,0.066 -0.413459,0.6398 -0.311559,0.79265 0.528441,0.79265 0.43595,0 0.78429,-0.0892 0.774069,-0.19816 z m -0.54652,-2.2235 c 0.397191,0.61545 0.460791,-0.39169 0.3088,-4.89048 -0.131499,-3.8923895 -0.28419,-4.9178095 -0.674229,-4.5277695 -0.168421,0.16842 -0.559761,8.6591895 -0.42985,9.3262795 0.0751,0.38584 0.13803,0.40641 0.330269,0.10798 0.196571,-0.30515 0.276641,-0.3079 0.46501,-0.016 z"
       id="path848" />
  </g>
</svg>
